<?xml version="1.0" encoding="UTF-8" standalone="no"?>
<!DOCTYPE svg PUBLIC "-//W3C//DTD SVG 1.1//EN" "http://www.w3.org/Graphics/SVG/1.1/DTD/svg11.dtd">
<svg width="100%" height="100%" viewBox="0 0 100 100" version="1.1" xmlns="http://www.w3.org/2000/svg" xmlns:xlink="http://www.w3.org/1999/xlink" xml:space="preserve" xmlns:serif="http://www.serif.com/" style="fill-rule:evenodd;clip-rule:evenodd;stroke-linecap:square;stroke-linejoin:round;stroke-miterlimit:1.5;">
    <g transform="matrix(1,0,0,1,-3400,-700)">
        <g id="Affinity_Up" transform="matrix(1,0,0,1,-500,-400)">
            <g id="glow" transform="matrix(0.993445,0.959358,-0.844278,0.81531,1853.79,-931.788)">
                <path d="M2131.6,43.079L2107.23,34.59L2131.36,27.097L2131.06,6.949L2135.76,12.294L2138.94,-2.72L2147.06,26.972L2152.98,29.098L2152.97,28.6L2172.69,28.704L2167.83,34.422L2170.22,35.281L2168.46,35.94L2172.9,43.17L2165.86,51.461L2158.6,45.286L2153.56,51.208L2153.31,41.605L2147.31,43.849L2141.03,69.63L2136.97,56.501L2125.99,56.667L2125.89,51.875L2135.49,51.713L2134.28,47.811L2131.67,47.865L2131.6,43.079ZM2137.82,59.923L2137.87,63.54L2131.74,63.392L2131.67,59.797L2137.82,59.923ZM2137.92,67.156L2137.98,70.773L2131.83,70.646L2131.78,67.03L2137.92,67.156Z" style="fill:none;stroke:rgb(174,247,134);stroke-width:9.53px;"/>
                <path d="M2131.6,43.079L2107.23,34.59L2131.36,27.097L2131.06,6.949L2135.76,12.294L2138.94,-2.72L2147.06,26.972L2152.98,29.098L2152.97,28.6L2172.69,28.704L2167.83,34.422L2170.22,35.281L2168.46,35.94L2172.9,43.17L2165.86,51.461L2158.6,45.286L2153.56,51.208L2153.31,41.605L2147.31,43.849L2141.03,69.63L2136.97,56.501L2125.99,56.667L2125.89,51.875L2135.49,51.713L2134.28,47.811L2131.67,47.865L2131.6,43.079ZM2137.82,59.923L2137.87,63.54L2131.74,63.392L2131.67,59.797L2137.82,59.923ZM2137.92,67.156L2137.98,70.773L2131.83,70.646L2131.78,67.03L2137.92,67.156Z" style="fill:rgb(174,247,134);"/>
            </g>
            <g id="shadow" transform="matrix(1.33333,0,0,1.34091,1081.33,1082.45)">
                <path d="M2165.75,31.705L2174.75,26.508L2162,50.373L2163.6,53.256L2154.5,62.305L2151.5,60.814L2147.48,62.955L2143.45,59.123L2165.75,36.949L2165.75,31.705ZM2138.61,46.143L2127.5,26.508L2147.38,37.628L2138.61,46.143ZM2138.6,67.687L2130.5,72L2134.52,63.728L2138.6,67.687Z" style="fill:none;stroke:rgb(27,27,27);stroke-width:2.99px;"/>
                <path d="M2165.75,31.705L2174.75,26.508L2162,50.373L2163.6,53.256L2154.5,62.305L2151.5,60.814L2147.48,62.955L2143.45,59.123L2165.75,36.949L2165.75,31.705ZM2138.61,46.143L2127.5,26.508L2147.38,37.628L2138.61,46.143ZM2138.6,67.687L2130.5,72L2134.52,63.728L2138.6,67.687Z" style="fill:rgb(27,27,27);"/>
            </g>
            <g transform="matrix(1.33333,0,0,1.34091,1214.67,1082.45)">
                <clipPath id="_clip1">
                    <path d="M2051.5,87.661L2014,87.661L2014,13.085L2089,13.085L2089,50.373L2066.5,50.373L2051.5,65.288L2051.5,66.78L2043.45,59.123L2065.75,36.949L2065.75,19.797L2034.25,50.373L2020.75,50.373L2051.5,80.203L2051.5,87.661Z"/>
                </clipPath>
                <g clip-path="url(#_clip1)">
                    <g id="color_02" transform="matrix(1,0,0,1,-100,0)">
                        <path d="M2141,50.373L2127.5,26.508L2151.5,39.932L2174.75,26.508L2162,50.373L2174,72L2151.5,60.814L2130.5,72L2141,50.373Z" style="fill:rgb(147,113,188);"/>
                    </g>
                    <g id="color_01" transform="matrix(0.644444,0,0,0.644444,664.978,17.7778)">
                        <path d="M2141,50L2129,28L2151.5,40L2174,28L2162,50L2174,72L2151.5,60L2129,72L2141,50Z" style="fill:rgb(207,189,133);"/>
                    </g>
                </g>
            </g>
            <g transform="matrix(1.49618,0,0,1.43797,887.399,1076.17)">
                <g id="shadow1" serif:id="shadow" transform="matrix(0.663987,0.66716,-0.564289,0.566985,645.904,-1396.38)">
                    <path d="M2142.81,51.59L2142.89,56.412L2125.99,56.667L2125.89,51.875L2142.81,51.59ZM2137.82,59.923L2137.87,63.54L2131.74,63.392L2131.67,59.797L2137.82,59.923ZM2137.92,67.156L2137.98,70.773L2131.83,70.646L2131.78,67.03L2137.92,67.156ZM2136.95,13.654L2137.46,47.746L2131.67,47.865L2131.06,6.949L2136.95,13.654Z" style="fill:none;stroke:rgb(27,27,27);stroke-width:5.56px;"/>
                    <path d="M2142.81,51.59L2142.89,56.412L2125.99,56.667L2125.89,51.875L2142.81,51.59ZM2137.82,59.923L2137.87,63.54L2131.74,63.392L2131.67,59.797L2137.82,59.923ZM2137.92,67.156L2137.98,70.773L2131.83,70.646L2131.78,67.03L2137.92,67.156ZM2136.95,13.654L2137.46,47.746L2131.67,47.865L2131.06,6.949L2136.95,13.654Z" style="fill:rgb(27,27,27);"/>
                </g>
                <g id="color_021" serif:id="color_02" transform="matrix(0.663987,0.66716,-0.564289,0.566985,645.904,-1396.38)">
                    <path d="M2142.81,51.59L2142.89,56.412L2125.99,56.667L2125.89,51.875L2142.81,51.59ZM2137.82,59.923L2137.87,63.54L2131.74,63.392L2131.67,59.797L2137.82,59.923ZM2137.92,67.156L2137.98,70.773L2131.83,70.646L2131.78,67.03L2137.92,67.156Z" style="fill:rgb(182,144,110);"/>
                </g>
                <g id="color_011" serif:id="color_01" transform="matrix(0.23003,0.223189,-4.53703,4.72069,1803.86,-690.655)">
                    <path d="M2143,52.834L2143,57L2126,57L2126,52L2143,52.834Z" style="fill:rgb(230,230,230);"/>
                </g>
            </g>
            <g transform="matrix(0.931818,0,0,0.813953,287.818,240.116)">
                <g id="shadow2" serif:id="shadow" transform="matrix(1.13279,0,0,1.15411,268.428,286.263)">
                    <path d="M3241.95,748.226L3243.84,761L3257.11,761L3259,748.226L3268.47,748.226L3250,728L3232.47,748.226L3241.95,748.226Z" style="fill:none;stroke:rgb(27,27,27);stroke-width:7.01px;"/>
                    <path d="M3241.95,748.226L3243.84,761L3257.11,761L3259,748.226L3268.47,748.226L3250,728L3232.47,748.226L3241.95,748.226Z" style="fill:rgb(27,27,27);"/>
                </g>
                <g id="color_012" serif:id="color_01" transform="matrix(1.13279,0,0,1.15411,268.428,286.263)">
                    <path d="M3241.95,748.226L3243.84,761L3257.11,761L3259,748.226L3268.47,748.226L3250,728L3232.47,748.226L3241.95,748.226Z" style="fill:rgb(122,201,85);"/>
                </g>
            </g>
        </g>
    </g>
</svg>
