<?xml version="1.0" encoding="UTF-8" standalone="no"?>
<!DOCTYPE svg PUBLIC "-//W3C//DTD SVG 1.1//EN" "http://www.w3.org/Graphics/SVG/1.1/DTD/svg11.dtd">
<svg width="100%" height="100%" viewBox="0 0 100 100" version="1.1" xmlns="http://www.w3.org/2000/svg" xmlns:xlink="http://www.w3.org/1999/xlink" xml:space="preserve" xmlns:serif="http://www.serif.com/" style="fill-rule:evenodd;clip-rule:evenodd;stroke-linecap:square;stroke-linejoin:round;stroke-miterlimit:1.5;">
    <g transform="matrix(1,0,0,1,-3400,-700)">
        <g id="Affinity_Up" transform="matrix(1,0,0,1,-500,-400)">
            <g id="glow" transform="matrix(0.993445,0.959358,-0.844278,0.81531,1853.79,-931.788)">
                <path d="M2126.93,65.077C2126.77,64.522 2126.68,63.933 2126.67,63.324L2126.66,62.628L2126.23,62.635C2124.87,62.655 2123.53,62.027 2122.53,60.891C2121.53,59.755 2120.95,58.208 2120.92,56.601L2120.82,51.808C2120.78,49.436 2121.91,47.397 2123.6,46.458L2105.95,40.308C2103.74,39.541 2102.2,37.162 2102.16,34.486C2102.12,31.81 2103.6,29.493 2105.78,28.816L2126.22,22.468L2125.99,6.845C2125.96,4.45 2127.14,2.312 2129,1.416C2130.22,0.826 2131.58,0.848 2132.79,1.413L2134.01,-4.351C2134.55,-6.914 2136.49,-8.684 2138.75,-8.688C2141.01,-8.692 2143.06,-6.928 2143.76,-4.367L2151.03,22.219L2152.27,22.664C2152.45,22.642 2152.63,22.631 2152.82,22.632L2172.53,22.736C2174.6,22.747 2176.49,24.227 2177.32,26.481C2178.16,28.734 2177.77,31.31 2176.34,32.997L2175.2,34.332C2175.25,34.637 2175.28,34.948 2175.29,35.265C2175.31,35.805 2175.26,36.332 2175.16,36.836L2176.98,39.786C2178.45,42.189 2178.27,45.436 2176.55,47.462L2169.5,55.753C2167.78,57.78 2165.02,57.992 2162.98,56.256L2159.26,53.091L2157.21,55.501C2155.79,57.168 2153.64,57.639 2151.74,56.697C2151.02,56.341 2150.39,55.81 2149.88,55.158L2145.91,71.457C2145.31,73.917 2143.42,75.589 2141.23,75.598L2141.11,75.597C2140.27,76.336 2139.21,76.763 2138.07,76.739L2131.92,76.613C2129.12,76.556 2126.81,73.838 2126.76,70.542L2126.71,66.926C2126.7,66.278 2126.78,65.657 2126.93,65.077ZM2137.92,67.156L2131.78,67.03L2131.83,70.646L2137.98,70.773L2137.92,67.156ZM2131.6,43.079L2131.67,47.865L2134.28,47.811L2135.49,51.713L2125.89,51.875L2125.99,56.667L2136.97,56.501L2141.03,69.63L2147.31,43.849L2153.31,41.605L2153.56,51.208L2158.6,45.286L2165.86,51.461L2172.9,43.17L2168.46,35.94L2170.22,35.281L2167.83,34.422L2172.69,28.704L2152.97,28.6L2152.98,29.098L2147.06,26.972L2138.94,-2.72L2135.76,12.294L2131.06,6.949L2131.36,27.097L2107.23,34.59L2131.6,43.079ZM2137.82,59.923L2131.67,59.797L2131.74,63.392L2137.87,63.54L2137.82,59.923Z" style="fill:rgb(174,247,134);"/>
                <path d="M2131.6,43.079L2107.23,34.59L2131.36,27.097L2131.06,6.949L2135.76,12.294L2138.94,-2.72L2147.06,26.972L2152.98,29.098L2152.97,28.6L2172.69,28.704L2167.83,34.422L2170.22,35.281L2168.46,35.94L2172.9,43.17L2165.86,51.461L2158.6,45.286L2153.56,51.208L2153.31,41.605L2147.31,43.849L2141.03,69.63L2136.97,56.501L2125.99,56.667L2125.89,51.875L2135.49,51.713L2134.28,47.811L2131.67,47.865L2131.6,43.079ZM2137.82,59.923L2137.87,63.54L2131.74,63.392L2131.67,59.797L2137.82,59.923ZM2137.92,67.156L2137.98,70.773L2131.83,70.646L2131.78,67.03L2137.92,67.156Z" style="fill:rgb(174,247,134);"/>
            </g>
            <g id="shadow" transform="matrix(1.33333,0,0,1.34091,1081.33,1082.45)">
                <path d="M2165.75,31.705L2174.75,26.508L2162,50.373L2163.6,53.256L2154.5,62.305L2151.5,60.814L2147.48,62.955L2143.45,59.123L2165.75,36.949L2165.75,31.705ZM2138.61,46.143L2127.5,26.508L2147.38,37.628L2138.61,46.143ZM2138.6,67.687L2130.5,72L2134.52,63.728L2138.6,67.687Z" style="fill:none;stroke:rgb(27,27,27);stroke-width:3.74px;"/>
                <path d="M2165.75,31.705L2174.75,26.508L2162,50.373L2163.6,53.256L2154.5,62.305L2151.5,60.814L2147.48,62.955L2143.45,59.123L2165.75,36.949L2165.75,31.705ZM2138.61,46.143L2127.5,26.508L2147.38,37.628L2138.61,46.143ZM2138.6,67.687L2130.5,72L2134.52,63.728L2138.6,67.687Z" style="fill:rgb(27,27,27);"/>
            </g>
            <g transform="matrix(1.33333,0,0,1.34091,1214.67,1082.45)">
                <clipPath id="_clip1">
                    <path d="M2051.5,87.661L2014,87.661L2014,13.085L2089,13.085L2089,50.373L2066.5,50.373L2051.5,65.288L2051.5,66.78L2043.45,59.123L2065.75,36.949L2065.75,19.797L2034.25,50.373L2020.75,50.373L2051.5,80.203L2051.5,87.661Z"/>
                </clipPath>
                <g clip-path="url(#_clip1)">
                    <g id="color_02" transform="matrix(1,0,0,1,-100,0)">
                        <path d="M2141,50.373L2127.5,26.508L2151.5,39.932L2174.75,26.508L2162,50.373L2174,72L2151.5,60.814L2130.5,72L2141,50.373Z" style="fill:rgb(147,113,188);"/>
                    </g>
                    <g id="color_01" transform="matrix(0.644444,0,0,0.644444,664.978,17.7778)">
                        <path d="M2141,50L2129,28L2151.5,40L2174,28L2162,50L2174,72L2151.5,60L2129,72L2141,50Z" style="fill:rgb(207,189,133);"/>
                    </g>
                </g>
            </g>
            <g transform="matrix(1.49618,0,0,1.43797,887.399,1076.17)">
                <g id="shadow1" serif:id="shadow" transform="matrix(0.663987,0.66716,-0.564289,0.566985,645.904,-1396.38)">
                    <path d="M2142.81,51.59L2142.89,56.412L2125.99,56.667L2125.89,51.875L2142.81,51.59ZM2137.82,59.923L2137.87,63.54L2131.74,63.392L2131.67,59.797L2137.82,59.923ZM2137.92,67.156L2137.98,70.773L2131.83,70.646L2131.78,67.03L2137.92,67.156ZM2136.95,13.654L2137.46,47.746L2131.67,47.865L2131.06,6.949L2136.95,13.654Z" style="fill:none;stroke:rgb(27,27,27);stroke-width:5.56px;"/>
                    <path d="M2142.81,51.59L2142.89,56.412L2125.99,56.667L2125.89,51.875L2142.81,51.59ZM2137.82,59.923L2137.87,63.54L2131.74,63.392L2131.67,59.797L2137.82,59.923ZM2137.92,67.156L2137.98,70.773L2131.83,70.646L2131.78,67.03L2137.92,67.156ZM2136.95,13.654L2137.46,47.746L2131.67,47.865L2131.06,6.949L2136.95,13.654Z" style="fill:rgb(27,27,27);"/>
                </g>
                <g id="color_021" serif:id="color_02" transform="matrix(0.663987,0.66716,-0.564289,0.566985,645.904,-1396.38)">
                    <path d="M2142.81,51.59L2142.89,56.412L2125.99,56.667L2125.89,51.875L2142.81,51.59ZM2137.82,59.923L2137.87,63.54L2131.74,63.392L2131.67,59.797L2137.82,59.923ZM2137.92,67.156L2137.98,70.773L2131.83,70.646L2131.78,67.03L2137.92,67.156Z" style="fill:rgb(182,144,110);"/>
                </g>
                <g id="color_011" serif:id="color_01" transform="matrix(0.23003,0.223189,-4.53703,4.72069,1803.86,-690.655)">
                    <path d="M2143,52.834L2143,57L2126,57L2126,52L2143,52.834Z" style="fill:rgb(230,230,230);"/>
                </g>
            </g>
            <g transform="matrix(0.931818,0,0,0.813953,287.818,240.116)">
                <g id="shadow2" serif:id="shadow" transform="matrix(1.13279,0,0,1.15411,268.428,286.263)">
                    <path d="M3241.95,748.226L3243.84,761L3257.11,761L3259,748.226L3268.47,748.226L3250,728L3232.47,748.226L3241.95,748.226Z" style="fill:none;stroke:rgb(27,27,27);stroke-width:7.01px;"/>
                    <path d="M3241.95,748.226L3243.84,761L3257.11,761L3259,748.226L3268.47,748.226L3250,728L3232.47,748.226L3241.95,748.226Z" style="fill:rgb(27,27,27);"/>
                </g>
                <g id="color_012" serif:id="color_01" transform="matrix(1.13279,0,0,1.15411,268.428,286.263)">
                    <path d="M3241.95,748.226L3243.84,761L3257.11,761L3259,748.226L3268.47,748.226L3250,728L3232.47,748.226L3241.95,748.226Z" style="fill:rgb(122,201,85);"/>
                </g>
            </g>
        </g>
    </g>
</svg>
