<?xml version="1.0" encoding="UTF-8" standalone="no"?>
<!DOCTYPE svg PUBLIC "-//W3C//DTD SVG 1.1//EN" "http://www.w3.org/Graphics/SVG/1.1/DTD/svg11.dtd">
<svg width="100%" height="100%" viewBox="0 0 100 105" version="1.1" xmlns="http://www.w3.org/2000/svg" xmlns:xlink="http://www.w3.org/1999/xlink" xml:space="preserve" xmlns:serif="http://www.serif.com/" style="fill-rule:evenodd;clip-rule:evenodd;stroke-linecap:square;stroke-linejoin:round;stroke-miterlimit:1.5;">
    <g transform="matrix(1,0,0,1,-2100,-1000)">
        <g id="Aquatic_Oilsilt_Mobility" transform="matrix(1,0,0,1,-1800,-100)">
            <g id="glow" transform="matrix(1,0,0,1,1800,100)">
                <path d="M2129,1071L2144,1046L2150,1046L2135,1071L2129,1071Z" style="fill:none;stroke:rgb(174,247,134);stroke-width:12px;"/>
                <path d="M2129,1071L2144,1046L2150,1046L2135,1071L2129,1071Z" style="fill:rgb(174,247,134);"/>
            </g>
            <g id="glow1" serif:id="glow" transform="matrix(1,0,0,1,1800,100)">
                <path d="M2165,1063.59C2166.2,1064.42 2167.56,1065 2169,1065C2174,1065 2178,1058 2178,1058C2178,1058 2182,1065 2187,1065L2187,1088L2113,1088L2113,1065C2118,1065 2122,1058 2122,1058C2122,1058 2126,1065 2131,1065C2136,1065 2140,1058 2140,1058C2140,1058 2144,1065 2149,1065L2151,1065C2156,1065 2160,1058 2160,1058L2160,1055L2156,1051L2144,1051L2144,1031.35L2125,1019L2128,1015L2145,1026L2155,1026L2172,1015L2175,1019L2156,1031.35L2156,1043.9L2165,1052L2165,1063.59ZM2153,1012L2153,1023L2147,1023L2147,1012L2153,1012Z" style="fill:none;stroke:rgb(174,247,134);stroke-width:12px;"/>
                <path d="M2165,1063.59C2166.2,1064.42 2167.56,1065 2169,1065C2174,1065 2178,1058 2178,1058C2178,1058 2182,1065 2187,1065L2187,1088L2113,1088L2113,1065C2118,1065 2122,1058 2122,1058C2122,1058 2126,1065 2131,1065C2136,1065 2140,1058 2140,1058C2140,1058 2144,1065 2149,1065L2151,1065C2156,1065 2160,1058 2160,1058L2160,1055L2156,1051L2144,1051L2144,1031.35L2125,1019L2128,1015L2145,1026L2155,1026L2172,1015L2175,1019L2156,1031.35L2156,1043.9L2165,1052L2165,1063.59ZM2153,1012L2153,1023L2147,1023L2147,1012L2153,1012Z" style="fill:rgb(174,247,134);"/>
            </g>
            <g id="shadow" transform="matrix(1,0,0,1,1800,100)">
                <path d="M2165,1063.59C2166.2,1064.42 2167.56,1065 2169,1065C2174,1065 2178,1058 2178,1058C2178,1058 2182,1065 2187,1065L2187,1088L2113,1088L2113,1065C2118,1065 2122,1058 2122,1058C2122,1058 2126,1065 2131,1065C2136,1065 2140,1058 2140,1058C2140,1058 2144,1065 2149,1065L2151,1065C2156,1065 2160,1058 2160,1058L2160,1055L2156,1051L2144,1051L2144,1031.35L2125,1019L2128,1015L2145,1026L2155,1026L2172,1015L2175,1019L2156,1031.35L2156,1043.9L2165,1052L2165,1063.59ZM2153,1012L2153,1023L2147,1023L2147,1012L2153,1012Z" style="fill:none;stroke:rgb(27,27,27);stroke-width:4px;"/>
                <path d="M2165,1063.59C2166.2,1064.42 2167.56,1065 2169,1065C2174,1065 2178,1058 2178,1058C2178,1058 2182,1065 2187,1065L2187,1088L2113,1088L2113,1065C2118,1065 2122,1058 2122,1058C2122,1058 2126,1065 2131,1065C2136,1065 2140,1058 2140,1058C2140,1058 2144,1065 2149,1065L2151,1065C2156,1065 2160,1058 2160,1058L2160,1055L2156,1051L2144,1051L2144,1031.35L2125,1019L2128,1015L2145,1026L2155,1026L2172,1015L2175,1019L2156,1031.35L2156,1043.9L2165,1052L2165,1063.59ZM2153,1012L2153,1023L2147,1023L2147,1012L2153,1012Z" style="fill:rgb(27,27,27);"/>
            </g>
            <g id="color_01" transform="matrix(1,0,0,1,1800,100)">
                <path d="M2155,1043L2165,1052L2165,1068L2160,1068L2160,1055L2155,1050L2155,1043Z" style="fill:rgb(198,183,121);"/>
            </g>
            <g>
                <clipPath id="_clip1">
                    <rect x="3913" y="1150" width="74" height="38"/>
                </clipPath>
                <g clip-path="url(#_clip1)">
                    <g id="color_04" transform="matrix(1,0,0,1,1818,100)">
                        <path d="M2113,1065C2118,1065 2122,1058 2122,1058C2122,1058 2126,1065 2131,1065L2133,1065C2138,1065 2142,1058 2142,1058C2142,1058 2146,1065 2151,1065C2156,1065 2160,1058 2160,1058C2160,1058 2164,1065 2169,1065L2169,1088L2095,1088L2095,1065C2100,1065 2104,1058 2104,1058C2104,1058 2108,1065 2113,1065Z" style="fill:rgb(137,126,118);"/>
                    </g>
                    <g>
                        <g id="color_03" transform="matrix(1,0,0,1,1818,109)">
                            <path d="M2113,1065C2118,1065 2122,1058 2122,1058C2122,1058 2126,1065 2131,1065L2133,1065C2138,1065 2142,1058 2142,1058C2142,1058 2146,1065 2151,1065C2156,1065 2160,1058 2160,1058C2160,1058 2164,1065 2169,1065L2169,1088L2095,1088L2095,1065C2100,1065 2104,1058 2104,1058C2104,1058 2108,1065 2113,1065Z" style="fill:rgb(105,97,91);"/>
                        </g>
                        <g id="color_02" transform="matrix(1,0,0,1,1818,117)">
                            <path d="M2113,1065C2118,1065 2122,1058 2122,1058C2122,1058 2126,1065 2131,1065L2133,1065C2138,1065 2142,1058 2142,1058C2142,1058 2146,1065 2151,1065C2156,1065 2160,1058 2160,1058C2160,1058 2164,1065 2169,1065L2169,1088L2095,1088L2095,1065C2100,1065 2104,1058 2104,1058C2104,1058 2108,1065 2113,1065Z" style="fill:rgb(89,80,75);"/>
                        </g>
                    </g>
                </g>
            </g>
            <g id="shadow1" serif:id="shadow" transform="matrix(1,0,0,1,1800,100)">
                <path d="M2129,1071L2144,1046L2150,1046L2135,1071L2129,1071Z" style="fill:none;stroke:rgb(27,27,27);stroke-width:4px;"/>
                <path d="M2129,1071L2144,1046L2150,1046L2135,1071L2129,1071Z" style="fill:rgb(27,27,27);"/>
            </g>
            <g id="color_011" serif:id="color_01" transform="matrix(1,0,0,1,1800,100)">
                <path d="M2129,1071L2144,1046L2150,1046L2135,1071L2129,1071Z" style="fill:rgb(198,183,121);"/>
            </g>
            <g id="color_012" serif:id="color_01" transform="matrix(0.857143,0,0,1,2106.71,100)">
                <path d="M2144.67,1026L2156.33,1026L2176.17,1015L2179.67,1019L2157.5,1031.35L2157.5,1051L2143.5,1051L2143.5,1031.35L2121.33,1019L2124.83,1015L2144.67,1026ZM2154,1012L2154,1023L2147,1023L2147,1012L2154,1012Z" style="fill:rgb(198,183,121);"/>
            </g>
        </g>
    </g>
</svg>
