<?xml version="1.0" encoding="UTF-8" standalone="no"?>
<!DOCTYPE svg PUBLIC "-//W3C//DTD SVG 1.1//EN" "http://www.w3.org/Graphics/SVG/1.1/DTD/svg11.dtd">
<svg width="100%" height="100%" viewBox="0 0 100 100" version="1.1" xmlns="http://www.w3.org/2000/svg" xmlns:xlink="http://www.w3.org/1999/xlink" xml:space="preserve" xmlns:serif="http://www.serif.com/" style="fill-rule:evenodd;clip-rule:evenodd;stroke-linecap:square;stroke-linejoin:round;stroke-miterlimit:1.5;">
    <g transform="matrix(1,0,0,1,-3000,-700)">
        <g id="Blastblight" transform="matrix(1,0,0,1,-900,-400)">
            <g transform="matrix(1,0,0,1,900,400)">
                <path d="M3027,712.934L3049,736L3060,714L3066,741L3084,729L3075,756L3088,752L3076,775L3086,774L3071,784L3032,784L3018,773L3031,775L3012,747L3032,751L3027,712.934Z" style="fill:none;stroke:rgb(27,27,27);stroke-width:4px;"/>
                <path d="M3027,712.934L3049,736L3060,714L3066,741L3084,729L3075,756L3088,752L3076,775L3086,774L3071,784L3032,784L3018,773L3031,775L3012,747L3032,751L3027,712.934Z" style="fill:rgb(27,27,27);"/>
            </g>
            <g transform="matrix(1,0,0,1,900,400)">
                <path d="M3027,712.934L3049,736L3060,714L3066,741L3084,729L3075,756L3088,752L3076,775L3086,774L3071,784L3032,784L3018,773L3031,775L3012,747L3032,751L3027,712.934Z" style="fill:rgb(168,117,80);"/>
            </g>
            <g transform="matrix(1,0,0,1,900,400)">
                <path d="M3030,763L3041,784L3064,784L3076,762L3063,766L3066,746L3053,759L3038,741L3040,766L3030,763Z" style="fill:rgb(123,73,37);"/>
            </g>
            <g transform="matrix(1,0,0,1,900,400)">
                <path d="M3037,769L3044,784L3059,784L3068,767L3059,772L3061,756L3053,765L3042,750L3046,774L3037,769Z" style="fill:rgb(204,150,111);"/>
            </g>
        </g>
    </g>
</svg>
