<?xml version="1.0" encoding="UTF-8" standalone="no"?>
<!DOCTYPE svg PUBLIC "-//W3C//DTD SVG 1.1//EN" "http://www.w3.org/Graphics/SVG/1.1/DTD/svg11.dtd">
<svg width="100%" height="100%" viewBox="0 0 100 100" version="1.1" xmlns="http://www.w3.org/2000/svg" xmlns:xlink="http://www.w3.org/1999/xlink" xml:space="preserve" xmlns:serif="http://www.serif.com/" style="fill-rule:evenodd;clip-rule:evenodd;stroke-linecap:square;stroke-linejoin:round;stroke-miterlimit:1.5;">
    <g transform="matrix(1,0,0,1,-3100,-700)">
        <g id="Bleeding" transform="matrix(1,0,0,1,-800,-400)">
            <g transform="matrix(0.707107,0.707107,-0.707107,0.707107,2253.21,-1608.19)">
                <path d="M3150,708L3156,725C3156,725 3152,733.833 3152,738C3152,742.167 3157,750 3157,750C3157,750 3152.17,762.333 3152,767C3151.86,770.899 3156,778 3156,778L3150,798L3144,778C3144,778 3148.14,770.899 3148,767C3147.83,762.333 3143,750 3143,750C3143,750 3148,742.167 3148,738C3148,733.833 3144,725 3144,725L3150,708ZM3132,719L3138,740C3138,740 3134,746.41 3134,750C3134,754 3138,764 3138,764L3132,785L3126,764C3126,764 3130,754 3130,750C3130,746.41 3126,740 3126,740L3132,719ZM3169,782L3163,761C3163,761 3167,754.59 3167,751C3167,747 3163,737 3163,737L3169,716L3175,737C3175,737 3171,747 3171,751C3171,754.59 3175,761 3175,761L3169,782Z" style="fill:none;stroke:rgb(27,27,27);stroke-width:4px;"/>
                <path d="M3150,708L3156,725C3156,725 3152,733.833 3152,738C3152,742.167 3157,750 3157,750C3157,750 3152.17,762.333 3152,767C3151.86,770.899 3156,778 3156,778L3150,798L3144,778C3144,778 3148.14,770.899 3148,767C3147.83,762.333 3143,750 3143,750C3143,750 3148,742.167 3148,738C3148,733.833 3144,725 3144,725L3150,708ZM3132,719L3138,740C3138,740 3134,746.41 3134,750C3134,754 3138,764 3138,764L3132,785L3126,764C3126,764 3130,754 3130,750C3130,746.41 3126,740 3126,740L3132,719ZM3169,782L3163,761C3163,761 3167,754.59 3167,751C3167,747 3163,737 3163,737L3169,716L3175,737C3175,737 3171,747 3171,751C3171,754.59 3175,761 3175,761L3169,782Z" style="fill:rgb(27,27,27);"/>
            </g>
            <g transform="matrix(0.707107,0.707107,-0.707107,0.707107,2253.21,-1608.19)">
                <path d="M3150,708L3156,725C3156,725 3152,733.833 3152,738C3152,742.167 3157,750 3157,750C3157,750 3152.17,762.333 3152,767C3151.86,770.899 3156,778 3156,778L3150,798L3144,778C3144,778 3148.14,770.899 3148,767C3147.83,762.333 3143,750 3143,750C3143,750 3148,742.167 3148,738C3148,733.833 3144,725 3144,725L3150,708ZM3132,719L3138,740C3138,740 3134,746.41 3134,750C3134,754 3138,764 3138,764L3132,785L3126,764C3126,764 3130,754 3130,750C3130,746.41 3126,740 3126,740L3132,719ZM3169,782L3163,761C3163,761 3167,754.59 3167,751C3167,747 3163,737 3163,737L3169,716L3175,737C3175,737 3171,747 3171,751C3171,754.59 3175,761 3175,761L3169,782Z" style="fill:rgb(181,109,125);"/>
            </g>
        </g>
    </g>
</svg>
