<?xml version="1.0" encoding="UTF-8" standalone="no"?>
<!DOCTYPE svg PUBLIC "-//W3C//DTD SVG 1.1//EN" "http://www.w3.org/Graphics/SVG/1.1/DTD/svg11.dtd">
<svg width="100%" height="100%" viewBox="0 0 100 100" version="1.1" xmlns="http://www.w3.org/2000/svg" xmlns:xlink="http://www.w3.org/1999/xlink" xml:space="preserve" xmlns:serif="http://www.serif.com/" style="fill-rule:evenodd;clip-rule:evenodd;stroke-linecap:square;stroke-linejoin:round;stroke-miterlimit:1.5;">
    <g transform="matrix(1,0,0,1,-3800,-900)">
        <g id="Blight_Negated" transform="matrix(1,0,0,1,-100,-200)">
            <g id="glow" transform="matrix(1,0,0,1,100,200)">
                <path d="M3858,922L3858,943L3876,943L3876,961L3872,965.001L3872,969L3881,976L3881,988L3819,988L3819,976L3828,969L3828,965.001L3824,961L3824,943L3843,943L3843,922L3858,922ZM3818,940L3818,912L3839,912L3839,935L3831,940L3818,940ZM3883,940L3870,940L3862,935L3862,912L3883,912L3883,940Z" style="fill:none;stroke:rgb(174,247,134);stroke-width:12px;"/>
                <path d="M3858,922L3858,943L3876,943L3876,961L3872,965.001L3872,969L3881,976L3881,988L3819,988L3819,976L3828,969L3828,965.001L3824,961L3824,943L3843,943L3843,922L3858,922ZM3818,940L3818,912L3839,912L3839,935L3831,940L3818,940ZM3883,940L3870,940L3862,935L3862,912L3883,912L3883,940Z" style="fill:rgb(174,247,134);"/>
            </g>
            <g id="shadow" transform="matrix(1,0,0,1,100,200)">
                <path d="M3858,922L3858,943L3876,943L3876,961L3872,965.001L3872,969L3881,976L3881,988L3819,988L3819,976L3828,969L3828,965.001L3824,961L3824,943L3843,943L3843,922L3858,922ZM3818,940L3818,912L3839,912L3839,935L3831,940L3818,940ZM3883,940L3870,940L3862,935L3862,912L3883,912L3883,940Z" style="fill:none;stroke:rgb(27,27,27);stroke-width:4px;"/>
                <path d="M3858,922L3858,943L3876,943L3876,961L3872,965.001L3872,969L3881,976L3881,988L3819,988L3819,976L3828,969L3828,965.001L3824,961L3824,943L3843,943L3843,922L3858,922ZM3818,940L3818,912L3839,912L3839,935L3831,940L3818,940ZM3883,940L3870,940L3862,935L3862,912L3883,912L3883,940Z" style="fill:rgb(27,27,27);"/>
            </g>
            <g id="color_02" transform="matrix(1,0,0,1,100,200)">
                <path d="M3858,922L3858,943L3876,943L3876,961L3872,965.001L3872,969L3881,976L3881,988L3819,988L3819,976L3828,969L3828,965.001L3824,961L3824,943L3843,943L3843,922L3858,922ZM3818,940L3818,912L3839,912L3839,935L3831,940L3818,940ZM3883,940L3870,940L3862,935L3862,912L3883,912L3883,940Z" style="fill:rgb(130,176,108);"/>
            </g>
            <g id="color_01" transform="matrix(1,0,0,1,100,200)">
                <path d="M3831,920L3831,925L3826,925L3826,920L3831,920ZM3874,920L3874,925L3869,925L3869,920L3874,920ZM3862,964L3862,969L3857,969L3857,964L3862,964ZM3843,964L3843,969L3838,969L3838,964L3843,964ZM3876,951L3876,956L3824,956L3824,951L3876,951ZM3881,977L3881,982L3819,982L3819,977L3881,977ZM3858,922L3858,926L3843,926L3843,922L3858,922Z" style="fill:rgb(69,101,65);"/>
            </g>
        </g>
    </g>
</svg>
