<?xml version="1.0" encoding="UTF-8" standalone="no"?>
<!DOCTYPE svg PUBLIC "-//W3C//DTD SVG 1.1//EN" "http://www.w3.org/Graphics/SVG/1.1/DTD/svg11.dtd">
<svg width="100%" height="100%" viewBox="0 0 100 100" version="1.1" xmlns="http://www.w3.org/2000/svg" xmlns:xlink="http://www.w3.org/1999/xlink" xml:space="preserve" xmlns:serif="http://www.serif.com/" style="fill-rule:evenodd;clip-rule:evenodd;stroke-linecap:square;stroke-linejoin:round;stroke-miterlimit:1.5;">
    <g transform="matrix(1,0,0,1,-3100,-1000)">
        <g id="Cold_Resistance" transform="matrix(1,0,0,1,-800,-100)">
            <g id="glow" transform="matrix(1,0,0,1,300,401)">
                <path d="M3659,717L3665,717L3665,723C3665,723 3658,726 3658,732C3658,733.944 3660,736 3662,737C3664,738 3668,738 3671,740C3674,742 3675,745 3675,745L3675,766C3675,772 3661,787 3658,787L3642,787C3639,787 3625,772 3625,766L3625,745C3625,745 3626,742 3629,740C3632,738 3636,738 3638,737C3640,736 3642,733.944 3642,732C3642,726 3635,723 3635,723L3635,717L3641,717L3641,711L3659,711L3659,717Z" style="fill:none;stroke:rgb(174,247,134);stroke-width:12px;"/>
                <path d="M3659,717L3665,717L3665,723C3665,723 3658,726 3658,732C3658,733.944 3660,736 3662,737C3664,738 3668,738 3671,740C3674,742 3675,745 3675,745L3675,766C3675,772 3661,787 3658,787L3642,787C3639,787 3625,772 3625,766L3625,745C3625,745 3626,742 3629,740C3632,738 3636,738 3638,737C3640,736 3642,733.944 3642,732C3642,726 3635,723 3635,723L3635,717L3641,717L3641,711L3659,711L3659,717Z" style="fill:rgb(174,247,134);"/>
            </g>
            <g id="shadow" transform="matrix(1,0,0,1,300,401)">
                <path d="M3659,717L3665,717L3665,723C3665,723 3658,726 3658,732C3658,733.944 3660,736 3662,737C3664,738 3668,738 3671,740C3674,742 3675,745 3675,745L3675,766C3675,772 3661,787 3658,787L3642,787C3639,787 3625,772 3625,766L3625,745C3625,745 3626,742 3629,740C3632,738 3636,738 3638,737C3640,736 3642,733.944 3642,732C3642,726 3635,723 3635,723L3635,717L3641,717L3641,711L3659,711L3659,717Z" style="fill:none;stroke:rgb(27,27,27);stroke-width:4px;"/>
                <path d="M3659,717L3665,717L3665,723C3665,723 3658,726 3658,732C3658,733.944 3660,736 3662,737C3664,738 3668,738 3671,740C3674,742 3675,745 3675,745L3675,766C3675,772 3661,787 3658,787L3642,787C3639,787 3625,772 3625,766L3625,745C3625,745 3626,742 3629,740C3632,738 3636,738 3638,737C3640,736 3642,733.944 3642,732C3642,726 3635,723 3635,723L3635,717L3641,717L3641,711L3659,711L3659,717Z" style="fill:rgb(27,27,27);"/>
            </g>
            <g transform="matrix(1,0,0,1,0,1)">
                <g id="color_02" transform="matrix(1,0,0,1,300,400)">
                    <path d="M3658,787L3642,787C3639,787 3625,772 3625,766L3625,745C3625,745 3626,742 3629,740C3632,738 3636,738 3638,737C3640,736 3642,733.944 3642,732C3642,726 3635,723 3635,723L3635,717L3665,717L3665,723C3665,723 3658,726 3658,732C3658,733.944 3660,736 3662,737C3664,738 3668,738 3671,740C3674,742 3675,745 3675,745L3675,766C3675,772 3661,787 3658,787Z" style="fill:rgb(184,99,102);"/>
                </g>
                <g id="color_01" transform="matrix(1.125,0,0,1,-156.25,398)">
                    <rect x="3642" y="713" width="16" height="10" style="fill:rgb(119,97,78);"/>
                </g>
            </g>
            <g id="color_011" serif:id="color_01" transform="matrix(1,0,-0.388889,1,1320.39,100)">
                <path d="M3046.11,1067L3043,1067L3043,1081L3038,1081L3038,1063L3034.89,1055L3023.89,1055C3023.89,1055 3022.12,1049.17 3021.78,1047C3021.5,1045.25 3021.83,1042 3021.83,1042L3025.83,1042C3025.83,1042 3026.88,1042.03 3027.22,1043L3028.39,1046L3026.78,1047L3027.83,1051L3048.83,1051L3046.78,1047L3044.39,1046L3043.22,1043C3042.81,1042.03 3043.83,1042 3043.83,1042L3047.83,1042C3047.83,1042 3050.69,1045.25 3051.78,1047C3053.12,1049.17 3055.89,1055 3055.89,1055L3044.89,1055L3048,1063L3062,1081L3057,1081L3046.11,1067ZM3037.06,1040L3039.78,1047L3033.78,1047L3031.06,1040L3037.06,1040Z" style="fill:rgb(238,181,181);"/>
            </g>
        </g>
    </g>
</svg>
