<?xml version="1.0" encoding="UTF-8" standalone="no"?>
<!DOCTYPE svg PUBLIC "-//W3C//DTD SVG 1.1//EN" "http://www.w3.org/Graphics/SVG/1.1/DTD/svg11.dtd">
<svg width="100%" height="100%" viewBox="0 0 100 100" version="1.1" xmlns="http://www.w3.org/2000/svg" xmlns:xlink="http://www.w3.org/1999/xlink" xml:space="preserve" xmlns:serif="http://www.serif.com/" style="fill-rule:evenodd;clip-rule:evenodd;stroke-linecap:square;stroke-linejoin:round;stroke-miterlimit:1.5;">
    <g transform="matrix(1,0,0,1,-3300,-700)">
        <g id="Defense_Up" transform="matrix(1,0,0,1,-600,-400)">
            <g id="glow" transform="matrix(1,0,0,1,600,400)">
                <path d="M3312,766L3312,713C3312,709.134 3315.13,706 3319,706L3381,706C3384.87,706 3388,709.134 3388,713L3388,766C3388,767.671 3387.4,769.287 3386.32,770.556L3368.32,791.556C3366.99,793.107 3365.04,794 3363,794L3337,794C3334.96,794 3333.01,793.107 3331.68,791.556L3313.68,770.556C3312.6,769.287 3312,767.671 3312,766ZM3319,766L3337,787L3363,787L3381,766L3381,713L3319,713L3319,766Z" style="fill:rgb(174,247,134);"/>
                <path d="M3319,766L3319,713L3381,713L3381,766L3363,787L3337,787L3319,766Z" style="fill:rgb(174,247,134);"/>
            </g>
            <g id="shadow" transform="matrix(1,0,0,1,600,400)">
                <path d="M3319,766L3319,713L3381,713L3381,766L3363,787L3337,787L3319,766Z" style="fill:none;stroke:rgb(27,27,27);stroke-width:7px;"/>
                <path d="M3319,766L3319,713L3381,713L3381,766L3363,787L3337,787L3319,766Z" style="fill:rgb(27,27,27);"/>
            </g>
            <g>
                <g id="color_03" transform="matrix(1,0,0,1,600,400)">
                    <path d="M3319,766L3319,713L3381,713L3381,766L3363,787L3337,787L3319,766Z" style="fill:rgb(163,139,111);"/>
                </g>
                <g id="color_02" transform="matrix(1,0,0,1,600,396)">
                    <path d="M3322,769L3322,720L3378,720L3378,769L3362,788L3338,788L3322,769Z" style="fill:rgb(123,109,90);"/>
                </g>
                <g id="color_01" transform="matrix(1,0,0,1,600,396)">
                    <path d="M3325,768L3325,723L3375,723L3375,768L3361,785L3339,785L3325,768Z" style="fill:rgb(163,139,111);"/>
                </g>
            </g>
            <g>
                <g id="color_021" serif:id="color_02" transform="matrix(1.61852,0,0,1.59259,-1310.19,-33.8148)">
                    <path d="M3243.2,745.837L3245.06,754L3254.94,754L3256.8,745.837L3263.59,745.837L3263.59,742.07L3250,727L3236.41,742.07L3236.41,745.837L3243.2,745.837Z" style="fill:rgb(84,121,66);"/>
                </g>
                <g id="color_011" serif:id="color_01" transform="matrix(1,0,0,1,700,402)">
                    <path d="M3242,748L3245,761L3255,761L3258,748L3268,748L3250,728L3232,748L3242,748Z" style="fill:rgb(122,201,85);"/>
                </g>
            </g>
        </g>
    </g>
</svg>
