<?xml version="1.0" encoding="UTF-8" standalone="no"?>
<!DOCTYPE svg PUBLIC "-//W3C//DTD SVG 1.1//EN" "http://www.w3.org/Graphics/SVG/1.1/DTD/svg11.dtd">
<svg width="100%" height="100%" viewBox="0 0 100 100" version="1.1" xmlns="http://www.w3.org/2000/svg" xmlns:xlink="http://www.w3.org/1999/xlink" xml:space="preserve" xmlns:serif="http://www.serif.com/" style="fill-rule:evenodd;clip-rule:evenodd;stroke-linecap:square;stroke-linejoin:round;stroke-miterlimit:1.5;">
    <g transform="matrix(1,0,0,1,-2400,-1100)">
        <g id="Demon_Boost_Mode" transform="matrix(1,0,0,1,-1500,0)">
            <g id="glow" transform="matrix(1,0,0,1,3000.27,501)">
                <path d="M959.091,665.156C955.608,663.788 953.806,663.348 952.457,662C951.515,661.057 951.457,660 952.457,658C953.457,656 954.457,655 955.457,655C956.281,655 959.815,656.355 965.501,659.066L968.352,656.358L962.457,654C962.457,654 970.457,637 970.457,629C970.457,620 959.457,612 959.457,612C959.457,612 980.457,615 980.457,632C980.457,641 972.457,658 972.457,658L969.576,656.848L987.729,675L978.729,675L975.729,687L961.729,687L958.729,675L948.729,675L959.091,665.156ZM941.089,676.233C943.351,676.916 945,679.017 945,681.5C945,684.536 942.536,687 939.5,687C936.464,687 934,684.536 934,681.5C934,680.277 934.4,679.146 935.077,678.232C933.668,676.156 932,673.578 932,673C932,672.057 934,671 934,671C934,671 936,670 937,670C937.696,670 939.846,673.877 941.089,676.233ZM936,654L926,658C926,658 918,641 918,632C918,615 939,612 939,612C939,612 928,620 928,629C928,637 936,654 936,654ZM917,669C917,669 921,665 929,661C937,657 942,655 943,655C944,655 945,656 946,658C947,660 946.943,661.057 946,662C944,664 941,664 933,668C925,672 923,675 922,675C921,675 920,675 918,673C916,671 917,669 917,669Z" style="fill:none;stroke:rgb(174,247,134);stroke-width:12px;"/>
                <path d="M959.091,665.156C955.608,663.788 953.806,663.348 952.457,662C951.515,661.057 951.457,660 952.457,658C953.457,656 954.457,655 955.457,655C956.281,655 959.815,656.355 965.501,659.066L968.352,656.358L962.457,654C962.457,654 970.457,637 970.457,629C970.457,620 959.457,612 959.457,612C959.457,612 980.457,615 980.457,632C980.457,641 972.457,658 972.457,658L969.576,656.848L987.729,675L978.729,675L975.729,687L961.729,687L958.729,675L948.729,675L959.091,665.156ZM941.089,676.233C943.351,676.916 945,679.017 945,681.5C945,684.536 942.536,687 939.5,687C936.464,687 934,684.536 934,681.5C934,680.277 934.4,679.146 935.077,678.232C933.668,676.156 932,673.578 932,673C932,672.057 934,671 934,671C934,671 936,670 937,670C937.696,670 939.846,673.877 941.089,676.233ZM936,654L926,658C926,658 918,641 918,632C918,615 939,612 939,612C939,612 928,620 928,629C928,637 936,654 936,654ZM917,669C917,669 921,665 929,661C937,657 942,655 943,655C944,655 945,656 946,658C947,660 946.943,661.057 946,662C944,664 941,664 933,668C925,672 923,675 922,675C921,675 920,675 918,673C916,671 917,669 917,669Z" style="fill:rgb(174,247,134);"/>
            </g>
            <g id="shadow" transform="matrix(1,0,0,1,3000.27,501)">
                <path d="M941.089,676.233C943.351,676.916 945,679.017 945,681.5C945,684.536 942.536,687 939.5,687C936.464,687 934,684.536 934,681.5C934,680.277 934.4,679.146 935.077,678.232C933.668,676.156 932,673.578 932,673C932,672.057 934,671 934,671C934,671 936,670 937,670C937.696,670 939.846,673.877 941.089,676.233ZM936,654L926,658C926,658 918,641 918,632C918,615 939,612 939,612C939,612 928,620 928,629C928,637 936,654 936,654ZM917,669C917,669 921,665 929,661C937,657 942,655 943,655C944,655 945,656 946,658C947,660 946.943,661.057 946,662C944,664 941,664 933,668C925,672 923,675 922,675C921,675 920,675 918,673C916,671 917,669 917,669ZM962.457,654C962.457,654 970.457,637 970.457,629C970.457,620 959.457,612 959.457,612C959.457,612 980.457,615 980.457,632C980.457,641 972.457,658 972.457,658L962.457,654ZM981.457,669C981.457,669 982.457,671 980.457,673C978.457,675 977.457,675 976.457,675C975.457,675 973.457,672 965.457,668C957.457,664 954.457,664 952.457,662C951.515,661.057 951.457,660 952.457,658C953.457,656 954.457,655 955.457,655C956.457,655 961.457,657 969.457,661C977.457,665 981.457,669 981.457,669Z" style="fill:none;stroke:rgb(27,27,27);stroke-width:4px;"/>
                <path d="M941.089,676.233C943.351,676.916 945,679.017 945,681.5C945,684.536 942.536,687 939.5,687C936.464,687 934,684.536 934,681.5C934,680.277 934.4,679.146 935.077,678.232C933.668,676.156 932,673.578 932,673C932,672.057 934,671 934,671C934,671 936,670 937,670C937.696,670 939.846,673.877 941.089,676.233ZM936,654L926,658C926,658 918,641 918,632C918,615 939,612 939,612C939,612 928,620 928,629C928,637 936,654 936,654ZM917,669C917,669 921,665 929,661C937,657 942,655 943,655C944,655 945,656 946,658C947,660 946.943,661.057 946,662C944,664 941,664 933,668C925,672 923,675 922,675C921,675 920,675 918,673C916,671 917,669 917,669ZM962.457,654C962.457,654 970.457,637 970.457,629C970.457,620 959.457,612 959.457,612C959.457,612 980.457,615 980.457,632C980.457,641 972.457,658 972.457,658L962.457,654ZM981.457,669C981.457,669 982.457,671 980.457,673C978.457,675 977.457,675 976.457,675C975.457,675 973.457,672 965.457,668C957.457,664 954.457,664 952.457,662C951.515,661.057 951.457,660 952.457,658C953.457,656 954.457,655 955.457,655C956.457,655 961.457,657 969.457,661C977.457,665 981.457,669 981.457,669Z" style="fill:rgb(27,27,27);"/>
            </g>
            <g transform="matrix(1,0,0,1,3000,501)">
                <g id="color_02" transform="matrix(1,0,0,1,0.271289,0)">
                    <path d="M941.089,676.233C943.351,676.916 945,679.017 945,681.5C945,684.536 942.536,687 939.5,687C936.464,687 934,684.536 934,681.5C934,680.277 934.4,679.146 935.077,678.232C933.668,676.156 932,673.578 932,673C932,672.057 934,671 934,671C934,671 936,670 937,670C937.696,670 939.846,673.877 941.089,676.233Z" style="fill:rgb(99,69,77);"/>
                </g>
                <g id="color_01" transform="matrix(1,0,0,1,0.271289,0)">
                    <path d="M936,654L926,658C926,658 918,641 918,632C918,615 939,612 939,612C939,612 928,620 928,629C928,637 936,654 936,654ZM917,669C917,669 921,665 929,661C937,657 942,655 943,655C944,655 945,656 946,658C947,660 946.943,661.057 946,662C944,664 941,664 933,668C925,672 923,675 922,675C921,675 920,675 918,673C916,671 917,669 917,669ZM962.457,654C962.457,654 970.457,637 970.457,629C970.457,620 959.457,612 959.457,612C959.457,612 980.457,615 980.457,632C980.457,641 972.457,658 972.457,658L962.457,654ZM981.457,669C981.457,669 982.457,671 980.457,673C978.457,675 977.457,675 976.457,675C975.457,675 973.457,672 965.457,668C957.457,664 954.457,664 952.457,662C951.515,661.057 951.457,660 952.457,658C953.457,656 954.457,655 955.457,655C956.457,655 961.457,657 969.457,661C977.457,665 981.457,669 981.457,669Z" style="fill:rgb(199,136,154);"/>
                </g>
            </g>
            <g>
                <g id="color_021" serif:id="color_02" transform="matrix(1,0,0,1,719,427)">
                    <path d="M3240,749L3243,761L3257,761L3260,749L3269,749L3250,730L3230,749L3240,749Z" style="fill:none;stroke:rgb(27,27,27);stroke-width:4px;"/>
                    <path d="M3240,749L3243,761L3257,761L3260,749L3269,749L3250,730L3230,749L3240,749Z" style="fill:rgb(27,27,27);"/>
                </g>
                <g id="color_011" serif:id="color_01" transform="matrix(1,0,0,1,719,427)">
                    <path d="M3240,749L3243,761L3257,761L3260,749L3269,749L3250,730L3230,749L3240,749Z" style="fill:rgb(122,200,84);"/>
                </g>
            </g>
        </g>
    </g>
</svg>
