<?xml version="1.0" encoding="UTF-8" standalone="no"?>
<!DOCTYPE svg PUBLIC "-//W3C//DTD SVG 1.1//EN" "http://www.w3.org/Graphics/SVG/1.1/DTD/svg11.dtd">
<svg width="100%" height="100%" viewBox="0 0 100 100" version="1.1" xmlns="http://www.w3.org/2000/svg" xmlns:xlink="http://www.w3.org/1999/xlink" xml:space="preserve" xmlns:serif="http://www.serif.com/" style="fill-rule:evenodd;clip-rule:evenodd;stroke-linecap:square;stroke-linejoin:round;stroke-miterlimit:1.5;">
    <g transform="matrix(1,0,0,1,-2700,-900)">
        <g id="Divine_Protection" transform="matrix(1,0,0,1,-1200,-200)">
            <g id="glow" transform="matrix(1,0,0,1,1200,200)">
                <path d="M2750,913L2755,939L2775.02,924L2760,944L2788,949L2760,954L2775,974L2755,959L2750,989L2745,959L2725,974L2740,954L2712,949L2740,944L2724.98,924L2745,939L2750,913Z" style="fill:none;stroke:rgb(174,247,134);stroke-width:12px;"/>
                <path d="M2750,913L2755,939L2775.02,924L2760,944L2788,949L2760,954L2775,974L2755,959L2750,989L2745,959L2725,974L2740,954L2712,949L2740,944L2724.98,924L2745,939L2750,913Z" style="fill:rgb(174,247,134);"/>
            </g>
            <g id="shadow" transform="matrix(1,0,0,1,1200,200)">
                <path d="M2750,913L2755,939L2775.02,924L2760,944L2788,949L2760,954L2775,974L2755,959L2750,989L2745,959L2725,974L2740,954L2712,949L2740,944L2724.98,924L2745,939L2750,913Z" style="fill:none;stroke:rgb(27,27,27);stroke-width:4px;"/>
                <path d="M2750,913L2755,939L2775.02,924L2760,944L2788,949L2760,954L2775,974L2755,959L2750,989L2745,959L2725,974L2740,954L2712,949L2740,944L2724.98,924L2745,939L2750,913Z" style="fill:rgb(27,27,27);"/>
            </g>
            <g id="color_03" transform="matrix(1,0,0,1,1200,200)">
                <path d="M2750,913L2755,939L2775.02,924L2760,944L2788,949L2760,954L2775,974L2755,959L2750,989L2745,959L2725,974L2740,954L2712,949L2740,944L2724.98,924L2745,939L2750,913Z" style="fill:rgb(219,185,129);"/>
            </g>
            <g id="color_02" transform="matrix(1,0,0,1,1200,200)">
                <path d="M2750,933L2754,941L2760,939L2758,945L2766,949L2758,953L2760,960L2754,957L2750,965L2746,957L2740,960L2742,953L2734,949L2742,945L2740,939L2746,941L2750,933Z" style="fill:rgb(225,225,131);"/>
            </g>
            <g id="color_01" transform="matrix(1,0,0,1,1201,200)">
                <path d="M2749,940L2752,943L2755,943L2755,946L2758,949L2755,952L2755,955L2752,955L2749,958L2746,955L2743,955L2743,952L2740,949L2743,946L2743,943L2746,943L2749,940Z" style="fill:white;"/>
            </g>
        </g>
    </g>
</svg>
