<?xml version="1.0" encoding="UTF-8" standalone="no"?>
<!DOCTYPE svg PUBLIC "-//W3C//DTD SVG 1.1//EN" "http://www.w3.org/Graphics/SVG/1.1/DTD/svg11.dtd">
<svg width="100%" height="100%" viewBox="0 0 100 100" version="1.1" xmlns="http://www.w3.org/2000/svg" xmlns:xlink="http://www.w3.org/1999/xlink" xml:space="preserve" xmlns:serif="http://www.serif.com/" style="fill-rule:evenodd;clip-rule:evenodd;stroke-linecap:square;stroke-linejoin:round;stroke-miterlimit:1.5;">
    <g transform="matrix(1,0,0,1,-3600,-800)">
        <g id="Dragon_Wind_Pressure" transform="matrix(1,0,0,1,-300,-300)">
            <g id="shadow" transform="matrix(0.763158,0,0,0.714286,1310.11,520.714)">
                <path d="M3412,881L3429,881C3434.28,881 3441.15,889.916 3443.45,893.6C3446.07,897.8 3450,903.4 3451.31,907.6C3452.62,911.8 3455.02,917.867 3457.86,920.2C3457.86,920.2 3460.48,923 3468.35,923C3481.45,923 3481.45,916 3481.45,916L3481.45,900.6C3481.45,900.6 3481.45,899.2 3480.14,899.2L3468.35,899.2C3468.35,899.2 3467.03,899.2 3467.03,900.6L3467.03,906.2L3470.97,906.2L3470.97,904.8C3470.97,903.4 3473.59,903.4 3473.59,903.4C3473.59,903.4 3476.21,903.4 3476.21,904.8L3476.21,907.6C3476.21,907.6 3476.21,916 3468.35,916C3457.86,916 3457.86,910.4 3457.86,907.6L3457.86,896.4C3457.86,890.8 3465.72,889.4 3473.54,889.4C3481.45,889.4 3490.62,890.8 3490.62,897.8L3490.62,917.4C3490.62,928.6 3484.07,932.8 3465.72,932.8C3450,932.8 3446.07,923 3444.76,918.8C3443.26,914.011 3440.83,909 3438.21,904.8C3436.53,902.118 3430.35,890.8 3425.1,890.8L3412,890.8L3412,881ZM3464.41,860L3464.41,851.6L3468.35,851.6C3470.97,853 3472.28,854.4 3474.9,857.2C3476.87,859.313 3480.14,865.6 3480.14,865.6C3480.14,865.6 3482.76,872.6 3484.07,874C3485.38,875.4 3488,876.8 3493.24,876.8C3501.1,876.8 3501.1,872.6 3501.1,872.6L3501.1,860C3501.1,858.6 3499.79,858.6 3499.79,858.6L3493.24,858.6C3493.24,858.6 3491.93,858.6 3491.93,860L3491.93,865.6L3494.55,865.6L3494.55,862.8L3496.52,862.8C3498.48,862.8 3498.48,864.2 3498.48,864.2L3498.48,868.4C3498.48,868.4 3498.48,872.6 3491.89,872.6C3484.07,872.6 3485.38,862.8 3485.38,862.8L3485.38,855.8C3485.38,855.8 3485.38,851.6 3497.17,851.6C3508.97,851.6 3508.97,855.8 3508.97,855.8L3508.97,874C3508.97,874 3508.97,885.2 3491.93,885.2C3478.83,885.2 3477.52,879.6 3474.9,872.6C3473.78,869.623 3472.28,865.6 3468.35,861.4C3467.03,860 3464.41,860 3464.41,860ZM3443.45,832L3448.69,837.6L3456.55,837.727L3457.9,836.29L3460.48,836.2L3460.48,855.8L3459.17,855.8L3451.31,847.4L3446.07,853L3440.83,848.8L3434.28,857.2L3440.83,865.6L3447.38,861.4L3452.62,867L3457.86,861.4L3460.48,861.4L3459.17,876.8L3419.86,876.8L3418.55,860L3409.38,850.2L3418.55,840.4L3409.38,832L3443.45,832Z" style="fill:none;stroke:rgb(27,27,27);stroke-width:5.41px;"/>
                <path d="M3412,881L3429,881C3434.28,881 3441.15,889.916 3443.45,893.6C3446.07,897.8 3450,903.4 3451.31,907.6C3452.62,911.8 3455.02,917.867 3457.86,920.2C3457.86,920.2 3460.48,923 3468.35,923C3481.45,923 3481.45,916 3481.45,916L3481.45,900.6C3481.45,900.6 3481.45,899.2 3480.14,899.2L3468.35,899.2C3468.35,899.2 3467.03,899.2 3467.03,900.6L3467.03,906.2L3470.97,906.2L3470.97,904.8C3470.97,903.4 3473.59,903.4 3473.59,903.4C3473.59,903.4 3476.21,903.4 3476.21,904.8L3476.21,907.6C3476.21,907.6 3476.21,916 3468.35,916C3457.86,916 3457.86,910.4 3457.86,907.6L3457.86,896.4C3457.86,890.8 3465.72,889.4 3473.54,889.4C3481.45,889.4 3490.62,890.8 3490.62,897.8L3490.62,917.4C3490.62,928.6 3484.07,932.8 3465.72,932.8C3450,932.8 3446.07,923 3444.76,918.8C3443.26,914.011 3440.83,909 3438.21,904.8C3436.53,902.118 3430.35,890.8 3425.1,890.8L3412,890.8L3412,881ZM3464.41,860L3464.41,851.6L3468.35,851.6C3470.97,853 3472.28,854.4 3474.9,857.2C3476.87,859.313 3480.14,865.6 3480.14,865.6C3480.14,865.6 3482.76,872.6 3484.07,874C3485.38,875.4 3488,876.8 3493.24,876.8C3501.1,876.8 3501.1,872.6 3501.1,872.6L3501.1,860C3501.1,858.6 3499.79,858.6 3499.79,858.6L3493.24,858.6C3493.24,858.6 3491.93,858.6 3491.93,860L3491.93,865.6L3494.55,865.6L3494.55,862.8L3496.52,862.8C3498.48,862.8 3498.48,864.2 3498.48,864.2L3498.48,868.4C3498.48,868.4 3498.48,872.6 3491.89,872.6C3484.07,872.6 3485.38,862.8 3485.38,862.8L3485.38,855.8C3485.38,855.8 3485.38,851.6 3497.17,851.6C3508.97,851.6 3508.97,855.8 3508.97,855.8L3508.97,874C3508.97,874 3508.97,885.2 3491.93,885.2C3478.83,885.2 3477.52,879.6 3474.9,872.6C3473.78,869.623 3472.28,865.6 3468.35,861.4C3467.03,860 3464.41,860 3464.41,860ZM3443.45,832L3448.69,837.6L3456.55,837.727L3457.9,836.29L3460.48,836.2L3460.48,855.8L3459.17,855.8L3451.31,847.4L3446.07,853L3440.83,848.8L3434.28,857.2L3440.83,865.6L3447.38,861.4L3452.62,867L3457.86,861.4L3460.48,861.4L3459.17,876.8L3419.86,876.8L3418.55,860L3409.38,850.2L3418.55,840.4L3409.38,832L3443.45,832Z" style="fill:rgb(27,27,27);"/>
            </g>
            <g id="color_03" transform="matrix(0.763158,0,0,0.714286,1310.11,520.714)">
                <path d="M3412,881L3429,881C3434.28,881 3441.15,889.916 3443.45,893.6C3446.07,897.8 3450,903.4 3451.31,907.6C3452.62,911.8 3455.02,917.867 3457.86,920.2C3457.86,920.2 3460.48,923 3468.35,923C3481.45,923 3481.45,916 3481.45,916L3481.45,900.6C3481.45,900.6 3481.45,899.2 3480.14,899.2L3468.35,899.2C3468.35,899.2 3467.03,899.2 3467.03,900.6L3467.03,906.2L3470.97,906.2L3470.97,904.8C3470.97,903.4 3473.59,903.4 3473.59,903.4C3473.59,903.4 3476.21,903.4 3476.21,904.8L3476.21,907.6C3476.21,907.6 3476.21,916 3468.35,916C3457.86,916 3457.86,910.4 3457.86,907.6L3457.86,896.4C3457.86,890.8 3465.72,889.4 3473.54,889.4C3481.45,889.4 3490.62,890.8 3490.62,897.8L3490.62,917.4C3490.62,928.6 3484.07,932.8 3465.72,932.8C3450,932.8 3446.07,923 3444.76,918.8C3443.26,914.011 3440.83,909 3438.21,904.8C3436.53,902.118 3430.35,890.8 3425.1,890.8L3412,890.8L3412,881ZM3464.41,860L3464.41,851.6L3468.35,851.6C3470.97,853 3472.28,854.4 3474.9,857.2C3476.87,859.313 3480.14,865.6 3480.14,865.6C3480.14,865.6 3482.76,872.6 3484.07,874C3485.38,875.4 3488,876.8 3493.24,876.8C3501.1,876.8 3501.1,872.6 3501.1,872.6L3501.1,860C3501.1,858.6 3499.79,858.6 3499.79,858.6L3493.24,858.6C3493.24,858.6 3491.93,858.6 3491.93,860L3491.93,865.6L3494.55,865.6L3494.55,862.8L3496.52,862.8C3498.48,862.8 3498.48,864.2 3498.48,864.2L3498.48,868.4C3498.48,868.4 3498.48,872.6 3491.89,872.6C3484.07,872.6 3485.38,862.8 3485.38,862.8L3485.38,855.8C3485.38,855.8 3485.38,851.6 3497.17,851.6C3508.97,851.6 3508.97,855.8 3508.97,855.8L3508.97,874C3508.97,874 3508.97,885.2 3491.93,885.2C3478.83,885.2 3477.52,879.6 3474.9,872.6C3473.78,869.623 3472.28,865.6 3468.35,861.4C3467.03,860 3464.41,860 3464.41,860Z" style="fill:rgb(79,55,129);"/>
            </g>
            <g id="color_02" transform="matrix(1,0,0,1,300,300)">
                <path d="M3638,815L3642,819L3648,819.091L3649.03,818.064L3651,818L3651,832L3650,832L3644,826L3640,830L3636,827L3631,833L3636,839L3641,836L3645,840L3649,836L3651,836L3650,847L3620,847L3619,835L3612,828L3619,821L3612,815L3638,815Z" style="fill:rgb(91,82,113);"/>
            </g>
            <g id="color_01" transform="matrix(1.08333,0,0,1.16667,-2,162.5)">
                <clipPath id="_clip1">
                    <path d="M3623.08,825.857L3623.08,819L3625.85,819L3635.1,824.143L3635.08,825.857L3623.08,825.857Z"/>
                </clipPath>
                <g clip-path="url(#_clip1)">
                    <circle cx="3630" cy="819" r="6" style="fill:rgb(63,16,29);"/>
                </g>
            </g>
        </g>
    </g>
</svg>
