<?xml version="1.0" encoding="UTF-8" standalone="no"?>
<!DOCTYPE svg PUBLIC "-//W3C//DTD SVG 1.1//EN" "http://www.w3.org/Graphics/SVG/1.1/DTD/svg11.dtd">
<svg width="100%" height="100%" viewBox="0 0 100 100" version="1.1" xmlns="http://www.w3.org/2000/svg" xmlns:xlink="http://www.w3.org/1999/xlink" xml:space="preserve" xmlns:serif="http://www.serif.com/" style="fill-rule:evenodd;clip-rule:evenodd;stroke-linecap:square;stroke-linejoin:round;stroke-miterlimit:1.5;">
    <g transform="matrix(1,0,0,1,-3200,-1000)">
        <g id="Dragon_Attack_Up" transform="matrix(1,0,0,1,-700,-100)">
            <g id="glow" transform="matrix(1,0,0,1,1,1)">
                <path d="M3961.68,1162L3928,1162C3928,1162 3930,1146.04 3930,1134C3930,1119 3922,1111 3922,1111C3922,1111 3958,1109 3966,1127C3969.4,1134.65 3969.45,1149.56 3969.22,1157.22L3987,1175L3978,1175L3975,1187L3961,1187L3958,1175L3954,1175L3954,1187L3944,1187L3944,1175L3948,1175L3952.21,1171L3923,1171L3923,1166L3957.47,1166L3961.68,1162Z" style="fill:none;stroke:rgb(174,247,134);stroke-width:12px;"/>
                <path d="M3961.68,1162L3928,1162C3928,1162 3930,1146.04 3930,1134C3930,1119 3922,1111 3922,1111C3922,1111 3958,1109 3966,1127C3969.4,1134.65 3969.45,1149.56 3969.22,1157.22L3987,1175L3978,1175L3975,1187L3961,1187L3958,1175L3954,1175L3954,1187L3944,1187L3944,1175L3948,1175L3952.21,1171L3923,1171L3923,1166L3957.47,1166L3961.68,1162Z" style="fill:rgb(174,247,134);"/>
            </g>
            <g id="shadow" transform="matrix(1,0,0,1,1,1)">
                <path d="M3961.68,1162L3928,1162C3928,1162 3930,1146.04 3930,1134C3930,1119 3922,1111 3922,1111C3922,1111 3958,1109 3966,1127C3969.4,1134.65 3969.45,1149.56 3969.22,1157.22L3987,1175L3978,1175L3975,1187L3961,1187L3958,1175L3954,1175L3954,1187L3944,1187L3944,1175L3948,1175L3952.21,1171L3923,1171L3923,1166L3957.47,1166L3961.68,1162Z" style="fill:none;stroke:rgb(27,27,27);stroke-width:4px;"/>
                <path d="M3961.68,1162L3928,1162C3928,1162 3930,1146.04 3930,1134C3930,1119 3922,1111 3922,1111C3922,1111 3958,1109 3966,1127C3969.4,1134.65 3969.45,1149.56 3969.22,1157.22L3987,1175L3978,1175L3975,1187L3961,1187L3958,1175L3954,1175L3954,1187L3944,1187L3944,1175L3948,1175L3952.21,1171L3923,1171L3923,1166L3957.47,1166L3961.68,1162Z" style="fill:rgb(27,27,27);"/>
            </g>
            <g transform="matrix(1,0,0,1,1,1)">
                <g id="color_02" transform="matrix(1,0,0,1,699,399)">
                    <path d="M3276,767L3276,772L3224,772L3224,767L3276,767ZM3255,776L3255,788L3245,788L3245,776L3255,776Z" style="fill:rgb(152,124,96);"/>
                </g>
                <g id="color_01" transform="matrix(1,0,0,1,699,399)">
                    <path d="M3270,763L3229,763C3229,763 3231,747.042 3231,735C3231,720 3223,712 3223,712C3223,712 3259,710 3267,728C3271.7,738.563 3270,763 3270,763" style="fill:rgb(155,140,207);"/>
                </g>
            </g>
            <g id="Dragonblight" transform="matrix(1,0,0,1,-0.00873105,-13)">
                <g id="color_021" serif:id="color_02" transform="matrix(0.520894,0,0,0.576038,2673.81,723.176)">
                    <path d="M2425.05,754.853L2425.05,732.285L2436.57,725.341L2436.57,749.645L2442.33,754.853L2442.33,720.133L2450.01,713.189L2457.69,720.133L2457.69,754.853L2463.45,749.645L2463.45,725.341L2474.97,732.285L2474.97,754.853L2457.69,770.477L2457.69,777.421L2442.33,777.421L2442.33,770.477L2425.05,754.853Z" style="fill:none;stroke:rgb(92,84,122);stroke-width:10.93px;"/>
                    <path d="M2425.05,754.853L2425.05,732.285L2436.57,725.341L2436.57,749.645L2442.33,754.853L2442.33,720.133L2450.01,713.189L2457.69,720.133L2457.69,754.853L2463.45,749.645L2463.45,725.341L2474.97,732.285L2474.97,754.853L2457.69,770.477L2457.69,777.421L2442.33,777.421L2442.33,770.477L2425.05,754.853Z" style="fill:rgb(92,84,122);"/>
                </g>
                <g id="color_022" serif:id="color_02" transform="matrix(0.520894,0,0,0.576038,2673.81,723.176)">
                    <path d="M2436.57,742.502L2436.57,749.645L2442.33,754.853L2442.33,737.493L2457.69,737.493L2457.69,754.853L2463.45,749.645L2463.45,742.701L2474.97,742.701L2474.97,754.853L2457.69,770.477L2457.69,777.421L2442.33,777.421L2442.33,770.477L2425.05,754.853L2425.05,742.701L2436.57,742.502Z" style="fill:rgb(135,128,159);"/>
                </g>
                <g id="color_011" serif:id="color_01" transform="matrix(0.519818,0,0,0.524009,2676.45,760.906)">
                    <path d="M2425,740.625L2425,732.992L2436.54,725.359L2436.54,740.625L2425,740.625ZM2442.31,734.9L2442.31,719.633L2450.01,712L2457.7,719.633L2457.7,734.9L2442.31,734.9ZM2463.47,740.625L2463.47,725.359L2475.02,732.992L2475.02,740.625L2463.47,740.625Z" style="fill:rgb(82,62,124);"/>
                </g>
            </g>
            <g transform="matrix(1,0,0,1,19,24)">
                <g id="color_023" serif:id="color_02" transform="matrix(1.61852,0,0,1.59259,-1310.19,-33.8148)">
                    <path d="M3251.42,730.954L3251.24,742.07L3241.97,742.07L3241.97,747.093L3234.55,747.093L3234.55,745.209L3250,729.512L3251.42,730.954Z" style="fill:rgb(27,27,27);"/>
                </g>
                <g id="color_012" serif:id="color_01" transform="matrix(1,0,0,1,700,403)">
                    <path d="M3240,749L3243,761L3257,761L3260,749L3269,749L3250,730L3230,749L3240,749Z" style="fill:rgb(122,200,84);"/>
                </g>
            </g>
        </g>
    </g>
</svg>
