<?xml version="1.0" encoding="UTF-8" standalone="no"?>
<!DOCTYPE svg PUBLIC "-//W3C//DTD SVG 1.1//EN" "http://www.w3.org/Graphics/SVG/1.1/DTD/svg11.dtd">
<svg width="100%" height="100%" viewBox="0 0 100 100" version="1.1" xmlns="http://www.w3.org/2000/svg" xmlns:xlink="http://www.w3.org/1999/xlink" xml:space="preserve" xmlns:serif="http://www.serif.com/" style="fill-rule:evenodd;clip-rule:evenodd;stroke-linecap:square;stroke-linejoin:round;stroke-miterlimit:1.5;">
    <g transform="matrix(1,0,0,1,-3500,-1000)">
        <g id="Echo_Wave" transform="matrix(1,0,0,1,-400,-100)">
            <g id="glow" transform="matrix(2.85714,0,0,2.6087,-6085.71,-1491.91)">
                <path d="M3519.98,1007.76C3519.18,1006.51 3518.12,1005.47 3516.89,1004.72L3517.59,1003.44C3518.89,1004.24 3520.03,1005.32 3520.91,1006.62L3523.7,1006.6L3522.13,1008.92C3522.46,1009.74 3522.7,1010.62 3522.85,1011.52L3525.8,1013.29L3522.91,1015.01C3522.8,1015.9 3522.6,1016.76 3522.32,1017.57L3524.4,1021.55L3519.98,1021.57C3519.4,1022.21 3518.76,1022.77 3518.07,1023.25L3518.1,1027.3L3514.89,1024.7C3514.12,1024.9 3513.32,1025 3512.5,1025C3511.68,1025 3510.88,1024.9 3510.11,1024.7L3506.9,1027.3L3506.93,1023.25C3506.24,1022.77 3505.6,1022.21 3505.02,1021.57L3500.6,1021.55L3502.68,1017.57C3502.4,1016.76 3502.2,1015.9 3502.09,1015.01L3499.2,1013.29L3502.16,1011.52C3502.3,1010.62 3502.54,1009.74 3502.87,1008.92L3501.3,1006.6L3504.09,1006.62C3504.97,1005.32 3506.11,1004.24 3507.41,1003.44L3508.11,1004.72C3506.88,1005.47 3505.82,1006.51 3505.02,1007.76L3503.4,1007.75L3504.3,1009.09C3503.87,1010.05 3503.57,1011.11 3503.44,1012.22L3501.65,1013.29L3503.4,1014.33C3503.48,1015.49 3503.75,1016.58 3504.16,1017.59L3502.7,1020.4L3505.9,1020.42C3506.51,1021.11 3507.2,1021.71 3507.97,1022.19L3507.95,1025.16L3510.34,1023.22C3511.03,1023.41 3511.76,1023.5 3512.5,1023.5C3513.24,1023.5 3513.97,1023.41 3514.66,1023.22L3517.05,1025.16L3517.03,1022.19C3517.8,1021.71 3518.49,1021.11 3519.1,1020.42L3522.3,1020.4L3520.84,1017.59C3521.25,1016.58 3521.52,1015.49 3521.6,1014.33L3523.35,1013.29L3521.56,1012.22C3521.43,1011.11 3521.13,1010.05 3520.7,1009.09L3521.6,1007.75L3519.98,1007.76ZM3517.31,1006.15C3519.07,1007.7 3520.2,1010.07 3520.2,1012.73C3520.2,1017.39 3516.75,1021.17 3512.5,1021.17C3508.25,1021.17 3504.8,1017.39 3504.8,1012.73C3504.8,1010.07 3505.93,1007.7 3507.69,1006.15L3508.56,1007.33C3507.11,1008.6 3506.19,1010.55 3506.19,1012.73C3506.19,1016.55 3509.01,1019.65 3512.5,1019.65C3515.99,1019.65 3518.81,1016.55 3518.81,1012.73C3518.81,1010.55 3517.89,1008.6 3516.44,1007.33L3517.31,1006.15ZM3512.15,1012.73L3512.15,1011.96C3512.15,1011.58 3511.8,1011.58 3511.8,1011.58L3510.4,1011.58C3510.4,1011.58 3510.05,1011.58 3510.05,1011.97L3510.05,1015.03C3510.05,1015.03 3510.05,1015.42 3510.41,1015.42L3514.25,1015.42C3514.6,1015.42 3514.6,1015.03 3514.6,1015.03L3514.6,998.167L3517.75,998.167L3519.15,999.7L3523.35,999.7C3523.35,999.7 3522.3,1003.92 3519.85,1003.92C3517.75,1003.92 3516.35,1001.23 3516.35,1001.23L3516.35,1015.8C3516.35,1017.33 3514.95,1017.33 3514.95,1017.33L3510.4,1017.33C3507.95,1017.33 3507.95,1014.65 3507.95,1014.65L3507.95,1010.05C3507.95,1009.67 3508.29,1009.67 3508.29,1009.67L3513.21,1009.67C3513.21,1009.67 3513.55,1009.67 3513.55,1010.05L3513.55,1014.27L3511.1,1014.27C3510.75,1014.27 3510.75,1013.5 3510.75,1013.5C3510.75,1013.5 3510.75,1012.73 3511.1,1012.73L3512.15,1012.73Z" style="fill:none;stroke:rgb(174,247,134);stroke-width:4.39px;"/>
                <path d="M3519.98,1007.76C3519.18,1006.51 3518.12,1005.47 3516.89,1004.72L3517.59,1003.44C3518.89,1004.24 3520.03,1005.32 3520.91,1006.62L3523.7,1006.6L3522.13,1008.92C3522.46,1009.74 3522.7,1010.62 3522.85,1011.52L3525.8,1013.29L3522.91,1015.01C3522.8,1015.9 3522.6,1016.76 3522.32,1017.57L3524.4,1021.55L3519.98,1021.57C3519.4,1022.21 3518.76,1022.77 3518.07,1023.25L3518.1,1027.3L3514.89,1024.7C3514.12,1024.9 3513.32,1025 3512.5,1025C3511.68,1025 3510.88,1024.9 3510.11,1024.7L3506.9,1027.3L3506.93,1023.25C3506.24,1022.77 3505.6,1022.21 3505.02,1021.57L3500.6,1021.55L3502.68,1017.57C3502.4,1016.76 3502.2,1015.9 3502.09,1015.01L3499.2,1013.29L3502.16,1011.52C3502.3,1010.62 3502.54,1009.74 3502.87,1008.92L3501.3,1006.6L3504.09,1006.62C3504.97,1005.32 3506.11,1004.24 3507.41,1003.44L3508.11,1004.72C3506.88,1005.47 3505.82,1006.51 3505.02,1007.76L3503.4,1007.75L3504.3,1009.09C3503.87,1010.05 3503.57,1011.11 3503.44,1012.22L3501.65,1013.29L3503.4,1014.33C3503.48,1015.49 3503.75,1016.58 3504.16,1017.59L3502.7,1020.4L3505.9,1020.42C3506.51,1021.11 3507.2,1021.71 3507.97,1022.19L3507.95,1025.16L3510.34,1023.22C3511.03,1023.41 3511.76,1023.5 3512.5,1023.5C3513.24,1023.5 3513.97,1023.41 3514.66,1023.22L3517.05,1025.16L3517.03,1022.19C3517.8,1021.71 3518.49,1021.11 3519.1,1020.42L3522.3,1020.4L3520.84,1017.59C3521.25,1016.58 3521.52,1015.49 3521.6,1014.33L3523.35,1013.29L3521.56,1012.22C3521.43,1011.11 3521.13,1010.05 3520.7,1009.09L3521.6,1007.75L3519.98,1007.76ZM3517.31,1006.15C3519.07,1007.7 3520.2,1010.07 3520.2,1012.73C3520.2,1017.39 3516.75,1021.17 3512.5,1021.17C3508.25,1021.17 3504.8,1017.39 3504.8,1012.73C3504.8,1010.07 3505.93,1007.7 3507.69,1006.15L3508.56,1007.33C3507.11,1008.6 3506.19,1010.55 3506.19,1012.73C3506.19,1016.55 3509.01,1019.65 3512.5,1019.65C3515.99,1019.65 3518.81,1016.55 3518.81,1012.73C3518.81,1010.55 3517.89,1008.6 3516.44,1007.33L3517.31,1006.15ZM3512.15,1012.73L3512.15,1011.96C3512.15,1011.58 3511.8,1011.58 3511.8,1011.58L3510.4,1011.58C3510.4,1011.58 3510.05,1011.58 3510.05,1011.97L3510.05,1015.03C3510.05,1015.03 3510.05,1015.42 3510.41,1015.42L3514.25,1015.42C3514.6,1015.42 3514.6,1015.03 3514.6,1015.03L3514.6,998.167L3517.75,998.167L3519.15,999.7L3523.35,999.7C3523.35,999.7 3522.3,1003.92 3519.85,1003.92C3517.75,1003.92 3516.35,1001.23 3516.35,1001.23L3516.35,1015.8C3516.35,1017.33 3514.95,1017.33 3514.95,1017.33L3510.4,1017.33C3507.95,1017.33 3507.95,1014.65 3507.95,1014.65L3507.95,1010.05C3507.95,1009.67 3508.29,1009.67 3508.29,1009.67L3513.21,1009.67C3513.21,1009.67 3513.55,1009.67 3513.55,1010.05L3513.55,1014.27L3511.1,1014.27C3510.75,1014.27 3510.75,1013.5 3510.75,1013.5C3510.75,1013.5 3510.75,1012.73 3511.1,1012.73L3512.15,1012.73Z" style="fill:rgb(174,247,134);"/>
            </g>
            <g id="shadow" transform="matrix(2.85714,0,0,2.6087,-6085.71,-1491.91)">
                <path d="M3519.98,1007.76C3519.18,1006.51 3518.12,1005.47 3516.89,1004.72L3517.59,1003.44C3518.89,1004.24 3520.03,1005.32 3520.91,1006.62L3523.7,1006.6L3522.13,1008.92C3522.46,1009.74 3522.7,1010.62 3522.85,1011.52L3525.8,1013.29L3522.91,1015.01C3522.8,1015.9 3522.6,1016.76 3522.32,1017.57L3524.4,1021.55L3519.98,1021.57C3519.4,1022.21 3518.76,1022.77 3518.07,1023.25L3518.1,1027.3L3514.89,1024.7C3514.12,1024.9 3513.32,1025 3512.5,1025C3511.68,1025 3510.88,1024.9 3510.11,1024.7L3506.9,1027.3L3506.93,1023.25C3506.24,1022.77 3505.6,1022.21 3505.02,1021.57L3500.6,1021.55L3502.68,1017.57C3502.4,1016.76 3502.2,1015.9 3502.09,1015.01L3499.2,1013.29L3502.16,1011.52C3502.3,1010.62 3502.54,1009.74 3502.87,1008.92L3501.3,1006.6L3504.09,1006.62C3504.97,1005.32 3506.11,1004.24 3507.41,1003.44L3508.11,1004.72C3506.88,1005.47 3505.82,1006.51 3505.02,1007.76L3503.4,1007.75L3504.3,1009.09C3503.87,1010.05 3503.57,1011.11 3503.44,1012.22L3501.65,1013.29L3503.4,1014.33C3503.48,1015.49 3503.75,1016.58 3504.16,1017.59L3502.7,1020.4L3505.9,1020.42C3506.51,1021.11 3507.2,1021.71 3507.97,1022.19L3507.95,1025.16L3510.34,1023.22C3511.03,1023.41 3511.76,1023.5 3512.5,1023.5C3513.24,1023.5 3513.97,1023.41 3514.66,1023.22L3517.05,1025.16L3517.03,1022.19C3517.8,1021.71 3518.49,1021.11 3519.1,1020.42L3522.3,1020.4L3520.84,1017.59C3521.25,1016.58 3521.52,1015.49 3521.6,1014.33L3523.35,1013.29L3521.56,1012.22C3521.43,1011.11 3521.13,1010.05 3520.7,1009.09L3521.6,1007.75L3519.98,1007.76ZM3517.31,1006.15C3519.07,1007.7 3520.2,1010.07 3520.2,1012.73C3520.2,1017.39 3516.75,1021.17 3512.5,1021.17C3508.25,1021.17 3504.8,1017.39 3504.8,1012.73C3504.8,1010.07 3505.93,1007.7 3507.69,1006.15L3508.56,1007.33C3507.11,1008.6 3506.19,1010.55 3506.19,1012.73C3506.19,1016.55 3509.01,1019.65 3512.5,1019.65C3515.99,1019.65 3518.81,1016.55 3518.81,1012.73C3518.81,1010.55 3517.89,1008.6 3516.44,1007.33L3517.31,1006.15ZM3512.15,1012.73L3512.15,1011.96C3512.15,1011.58 3511.8,1011.58 3511.8,1011.58L3510.4,1011.58C3510.4,1011.58 3510.05,1011.58 3510.05,1011.97L3510.05,1015.03C3510.05,1015.03 3510.05,1015.42 3510.41,1015.42L3514.25,1015.42C3514.6,1015.42 3514.6,1015.03 3514.6,1015.03L3514.6,998.167L3517.75,998.167L3519.15,999.7L3523.35,999.7C3523.35,999.7 3522.3,1003.92 3519.85,1003.92C3517.75,1003.92 3516.35,1001.23 3516.35,1001.23L3516.35,1015.8C3516.35,1017.33 3514.95,1017.33 3514.95,1017.33L3510.4,1017.33C3507.95,1017.33 3507.95,1014.65 3507.95,1014.65L3507.95,1010.05C3507.95,1009.67 3508.29,1009.67 3508.29,1009.67L3513.21,1009.67C3513.21,1009.67 3513.55,1009.67 3513.55,1010.05L3513.55,1014.27L3511.1,1014.27C3510.75,1014.27 3510.75,1013.5 3510.75,1013.5C3510.75,1013.5 3510.75,1012.73 3511.1,1012.73L3512.15,1012.73Z" style="fill:none;stroke:rgb(27,27,27);stroke-width:1.46px;"/>
                <path d="M3519.98,1007.76C3519.18,1006.51 3518.12,1005.47 3516.89,1004.72L3517.59,1003.44C3518.89,1004.24 3520.03,1005.32 3520.91,1006.62L3523.7,1006.6L3522.13,1008.92C3522.46,1009.74 3522.7,1010.62 3522.85,1011.52L3525.8,1013.29L3522.91,1015.01C3522.8,1015.9 3522.6,1016.76 3522.32,1017.57L3524.4,1021.55L3519.98,1021.57C3519.4,1022.21 3518.76,1022.77 3518.07,1023.25L3518.1,1027.3L3514.89,1024.7C3514.12,1024.9 3513.32,1025 3512.5,1025C3511.68,1025 3510.88,1024.9 3510.11,1024.7L3506.9,1027.3L3506.93,1023.25C3506.24,1022.77 3505.6,1022.21 3505.02,1021.57L3500.6,1021.55L3502.68,1017.57C3502.4,1016.76 3502.2,1015.9 3502.09,1015.01L3499.2,1013.29L3502.16,1011.52C3502.3,1010.62 3502.54,1009.74 3502.87,1008.92L3501.3,1006.6L3504.09,1006.62C3504.97,1005.32 3506.11,1004.24 3507.41,1003.44L3508.11,1004.72C3506.88,1005.47 3505.82,1006.51 3505.02,1007.76L3503.4,1007.75L3504.3,1009.09C3503.87,1010.05 3503.57,1011.11 3503.44,1012.22L3501.65,1013.29L3503.4,1014.33C3503.48,1015.49 3503.75,1016.58 3504.16,1017.59L3502.7,1020.4L3505.9,1020.42C3506.51,1021.11 3507.2,1021.71 3507.97,1022.19L3507.95,1025.16L3510.34,1023.22C3511.03,1023.41 3511.76,1023.5 3512.5,1023.5C3513.24,1023.5 3513.97,1023.41 3514.66,1023.22L3517.05,1025.16L3517.03,1022.19C3517.8,1021.71 3518.49,1021.11 3519.1,1020.42L3522.3,1020.4L3520.84,1017.59C3521.25,1016.58 3521.52,1015.49 3521.6,1014.33L3523.35,1013.29L3521.56,1012.22C3521.43,1011.11 3521.13,1010.05 3520.7,1009.09L3521.6,1007.75L3519.98,1007.76ZM3517.31,1006.15C3519.07,1007.7 3520.2,1010.07 3520.2,1012.73C3520.2,1017.39 3516.75,1021.17 3512.5,1021.17C3508.25,1021.17 3504.8,1017.39 3504.8,1012.73C3504.8,1010.07 3505.93,1007.7 3507.69,1006.15L3508.56,1007.33C3507.11,1008.6 3506.19,1010.55 3506.19,1012.73C3506.19,1016.55 3509.01,1019.65 3512.5,1019.65C3515.99,1019.65 3518.81,1016.55 3518.81,1012.73C3518.81,1010.55 3517.89,1008.6 3516.44,1007.33L3517.31,1006.15ZM3512.15,1012.73L3512.15,1011.96C3512.15,1011.58 3511.8,1011.58 3511.8,1011.58L3510.4,1011.58C3510.4,1011.58 3510.05,1011.58 3510.05,1011.97L3510.05,1015.03C3510.05,1015.03 3510.05,1015.42 3510.41,1015.42L3514.25,1015.42C3514.6,1015.42 3514.6,1015.03 3514.6,1015.03L3514.6,998.167L3517.75,998.167L3519.15,999.7L3523.35,999.7C3523.35,999.7 3522.3,1003.92 3519.85,1003.92C3517.75,1003.92 3516.35,1001.23 3516.35,1001.23L3516.35,1015.8C3516.35,1017.33 3514.95,1017.33 3514.95,1017.33L3510.4,1017.33C3507.95,1017.33 3507.95,1014.65 3507.95,1014.65L3507.95,1010.05C3507.95,1009.67 3508.29,1009.67 3508.29,1009.67L3513.21,1009.67C3513.21,1009.67 3513.55,1009.67 3513.55,1010.05L3513.55,1014.27L3511.1,1014.27C3510.75,1014.27 3510.75,1013.5 3510.75,1013.5C3510.75,1013.5 3510.75,1012.73 3511.1,1012.73L3512.15,1012.73Z" style="fill:rgb(27,27,27);"/>
            </g>
            <g id="color_03" transform="matrix(2.85714,0,0,2.6087,-6085.71,-1491.91)">
                <path d="M3519.98,1007.76C3519.18,1006.51 3518.12,1005.47 3516.89,1004.72L3517.59,1003.44C3518.89,1004.24 3520.03,1005.32 3520.91,1006.62L3523.7,1006.6L3522.13,1008.92C3522.46,1009.74 3522.7,1010.62 3522.85,1011.52L3525.8,1013.29L3522.91,1015.01C3522.8,1015.9 3522.6,1016.76 3522.32,1017.57L3524.4,1021.55L3519.98,1021.57C3519.4,1022.21 3518.76,1022.77 3518.07,1023.25L3518.1,1027.3L3514.89,1024.7C3514.12,1024.9 3513.32,1025 3512.5,1025C3511.68,1025 3510.88,1024.9 3510.11,1024.7L3506.9,1027.3L3506.93,1023.25C3506.24,1022.77 3505.6,1022.21 3505.02,1021.57L3500.6,1021.55L3502.68,1017.57C3502.4,1016.76 3502.2,1015.9 3502.09,1015.01L3499.2,1013.29L3502.16,1011.52C3502.3,1010.62 3502.54,1009.74 3502.87,1008.92L3501.3,1006.6L3504.09,1006.62C3504.97,1005.32 3506.11,1004.24 3507.41,1003.44L3508.11,1004.72C3506.88,1005.47 3505.82,1006.51 3505.02,1007.76L3503.4,1007.75L3504.3,1009.09C3503.87,1010.05 3503.57,1011.11 3503.44,1012.22L3501.65,1013.29L3503.4,1014.33C3503.48,1015.49 3503.75,1016.58 3504.16,1017.59L3502.7,1020.4L3505.9,1020.42C3506.51,1021.11 3507.2,1021.71 3507.97,1022.19L3507.95,1025.16L3510.34,1023.22C3511.03,1023.41 3511.76,1023.5 3512.5,1023.5C3513.24,1023.5 3513.97,1023.41 3514.66,1023.22L3517.05,1025.16L3517.03,1022.19C3517.8,1021.71 3518.49,1021.11 3519.1,1020.42L3522.3,1020.4L3520.84,1017.59C3521.25,1016.58 3521.52,1015.49 3521.6,1014.33L3523.35,1013.29L3521.56,1012.22C3521.43,1011.11 3521.13,1010.05 3520.7,1009.09L3521.6,1007.75L3519.98,1007.76Z" style="fill:rgb(238,196,83);"/>
            </g>
            <g id="color_02" transform="matrix(1.29412,0,0,1,-637.647,100)">
                <clipPath id="_clip1">
                    <path d="M3545,1050L3575.91,1000L3583.64,1000L3583.64,1100L3506.36,1100L3506.36,1000L3514.09,1000L3545,1050Z"/>
                </clipPath>
                <g clip-path="url(#_clip1)">
                    <path d="M3545,1028C3554.38,1028 3562,1037.86 3562,1050C3562,1062.14 3554.38,1072 3545,1072C3535.62,1072 3528,1062.14 3528,1050C3528,1037.86 3535.62,1028 3545,1028ZM3545,1031.96C3552.69,1031.96 3558.94,1040.04 3558.94,1050C3558.94,1059.96 3552.69,1068.04 3545,1068.04C3537.31,1068.04 3531.06,1059.96 3531.06,1050C3531.06,1040.04 3537.31,1031.96 3545,1031.96Z" style="fill:rgb(207,134,77);"/>
                </g>
            </g>
            <g id="color_01" transform="matrix(1,0,0,1,400,100)">
                <path d="M3549,1050L3549,1047.98C3549,1047 3548,1047 3548,1047L3544,1047C3544,1047 3543,1047 3543,1048L3543,1056C3543,1056 3543,1057 3544.03,1057L3555,1057C3556,1057 3556,1056 3556,1056L3556,1012L3565,1012L3569,1016L3581,1016C3581,1016 3578,1027 3571,1027C3565,1027 3561,1020 3561,1020L3561,1058C3561,1062 3557,1062 3557,1062L3544,1062C3537,1062 3537,1055 3537,1055L3537,1043C3537,1042 3537.96,1042 3537.96,1042L3552.02,1042C3552.02,1042 3553,1042 3553,1043L3553,1054L3546,1054C3545,1054 3545,1052 3545,1052C3545,1052 3545,1050 3546,1050L3549,1050Z" style="fill:rgb(159,73,61);"/>
            </g>
        </g>
    </g>
</svg>
