<?xml version="1.0" encoding="UTF-8" standalone="no"?>
<!DOCTYPE svg PUBLIC "-//W3C//DTD SVG 1.1//EN" "http://www.w3.org/Graphics/SVG/1.1/DTD/svg11.dtd">
<svg width="100%" height="100%" viewBox="0 0 100 100" version="1.1" xmlns="http://www.w3.org/2000/svg" xmlns:xlink="http://www.w3.org/1999/xlink" xml:space="preserve" xmlns:serif="http://www.serif.com/" style="fill-rule:evenodd;clip-rule:evenodd;stroke-linecap:square;stroke-linejoin:round;stroke-miterlimit:1.5;">
    <g transform="matrix(1,0,0,1,-2500,-1100)">
        <g id="Element_Absorption_1" transform="matrix(1,0,0,1,-1400,0)">
            <g id="shadow" transform="matrix(1,0,0,1,1400,0)">
                <path d="M2568.8,1150.21L2542,1179C2542,1179 2539,1182 2531,1182C2523,1182 2512,1178 2512,1178L2517.28,1173.82C2516.39,1172.15 2515,1168.77 2515,1164C2515,1157.55 2519.24,1151.95 2523.04,1148.76C2517.81,1145.08 2517,1140.98 2517,1136C2517,1123 2535,1116 2535,1116C2535,1116 2522,1128 2522,1136C2522,1139.38 2524.04,1142.52 2527.03,1145.5C2529.8,1142.94 2532,1139.97 2532,1137C2532,1134 2528,1129 2529,1128C2530,1127 2536,1130 2536,1137C2536,1137 2536,1142.8 2532,1146C2531.24,1146.61 2530.49,1147.28 2529.76,1147.99C2530.17,1148.33 2530.58,1148.66 2531,1149C2533.91,1151.33 2535.64,1155.15 2536.66,1158.48L2544.75,1152.07C2545.32,1150.33 2546,1147.51 2546,1144C2546,1138 2542,1135 2542,1129C2542,1119 2550,1119 2550,1119C2550,1119 2545,1122 2545,1128C2545,1132 2551,1137 2551,1143C2551,1144.5 2550.94,1145.94 2550.84,1147.25L2559.7,1140.24L2554,1134L2561,1128L2582,1150L2575,1157L2568.8,1150.21ZM2526.7,1151.41C2523.32,1155.7 2521,1160.59 2521,1164C2521,1165.93 2521.59,1168 2522.33,1169.83L2531.5,1162.56C2530.79,1159.49 2529.27,1154.27 2526.7,1151.41ZM2571,1133L2582,1123L2587,1129L2577,1139L2571,1133Z" style="fill:none;stroke:rgb(27,27,27);stroke-width:4px;"/>
                <path d="M2568.8,1150.21L2542,1179C2542,1179 2539,1182 2531,1182C2523,1182 2512,1178 2512,1178L2517.28,1173.82C2516.39,1172.15 2515,1168.77 2515,1164C2515,1157.55 2519.24,1151.95 2523.04,1148.76C2517.81,1145.08 2517,1140.98 2517,1136C2517,1123 2535,1116 2535,1116C2535,1116 2522,1128 2522,1136C2522,1139.38 2524.04,1142.52 2527.03,1145.5C2529.8,1142.94 2532,1139.97 2532,1137C2532,1134 2528,1129 2529,1128C2530,1127 2536,1130 2536,1137C2536,1137 2536,1142.8 2532,1146C2531.24,1146.61 2530.49,1147.28 2529.76,1147.99C2530.17,1148.33 2530.58,1148.66 2531,1149C2533.91,1151.33 2535.64,1155.15 2536.66,1158.48L2544.75,1152.07C2545.32,1150.33 2546,1147.51 2546,1144C2546,1138 2542,1135 2542,1129C2542,1119 2550,1119 2550,1119C2550,1119 2545,1122 2545,1128C2545,1132 2551,1137 2551,1143C2551,1144.5 2550.94,1145.94 2550.84,1147.25L2559.7,1140.24L2554,1134L2561,1128L2582,1150L2575,1157L2568.8,1150.21ZM2526.7,1151.41C2523.32,1155.7 2521,1160.59 2521,1164C2521,1165.93 2521.59,1168 2522.33,1169.83L2531.5,1162.56C2530.79,1159.49 2529.27,1154.27 2526.7,1151.41ZM2571,1133L2582,1123L2587,1129L2577,1139L2571,1133Z" style="fill:rgb(27,27,27);"/>
            </g>
            <g id="color_04" transform="matrix(1,0,0,1,1400,0)">
                <path d="M2554,1134L2561,1128L2582,1150L2575,1157L2554,1134ZM2571,1133L2582,1123L2587,1129L2577,1139L2571,1133Z" style="fill:rgb(129,107,81);"/>
            </g>
            <g id="color_03" transform="matrix(1,0,0,1,1400,0)">
                <path d="M2535,1116C2535,1116 2517,1123 2517,1136C2517,1141.55 2518,1146 2525,1150C2530.06,1152.89 2532,1165 2532,1165L2538,1165C2538,1165 2537,1153.8 2531,1149C2526,1145 2522,1140.74 2522,1136C2522,1128 2535,1116 2535,1116Z" style="fill:rgb(159,192,220);"/>
            </g>
            <g id="shadow1" serif:id="shadow" transform="matrix(1,0,0,1,1400,0)">
                <path d="M2525,1175C2525,1175 2521,1169 2521,1164C2521,1159 2526,1150.8 2532,1146C2536,1142.8 2536,1137 2536,1137C2536,1130 2530,1127 2529,1128C2528,1129 2532,1134 2532,1137C2532,1141 2528,1145 2524,1148C2520,1151 2515,1157 2515,1164C2515,1171 2518,1175 2518,1175L2525,1175Z" style="fill:none;stroke:rgb(27,27,27);stroke-width:4px;"/>
                <path d="M2525,1175C2525,1175 2521,1169 2521,1164C2521,1159 2526,1150.8 2532,1146C2536,1142.8 2536,1137 2536,1137C2536,1130 2530,1127 2529,1128C2528,1129 2532,1134 2532,1137C2532,1141 2528,1145 2524,1148C2520,1151 2515,1157 2515,1164C2515,1171 2518,1175 2518,1175L2525,1175Z" style="fill:rgb(27,27,27);"/>
            </g>
            <g id="color_02" transform="matrix(1,0,0,1,1400,0)">
                <path d="M2550.84,1147.25L2560,1140L2569,1150L2542,1179C2542,1179 2539,1182 2531,1182C2523,1182 2512,1178 2512,1178L2517.28,1173.82C2516.39,1172.15 2515,1168.77 2515,1164C2515,1157 2520,1151 2524,1148C2528,1145 2532,1141 2532,1137C2532,1134 2528,1129 2529,1128C2530,1127 2536,1130 2536,1137C2536,1137 2536,1142.8 2532,1146C2526,1150.8 2521,1159 2521,1164C2521,1165.93 2521.59,1168 2522.33,1169.83L2544.75,1152.07C2545.32,1150.33 2546,1147.51 2546,1144C2546,1138 2542,1135 2542,1129C2542,1119 2550,1119 2550,1119C2550,1119 2545,1122 2545,1128C2545,1132 2551,1137 2551,1143C2551,1144.5 2550.94,1145.94 2550.84,1147.25Z" style="fill:rgb(195,215,228);"/>
            </g>
            <g id="color_01" transform="matrix(1,0,0,1,1400,0)">
                <path d="M2521,1176L2559,1144L2565,1150L2542,1173C2542,1173 2537,1178 2532,1178C2524,1178 2521,1176 2521,1176Z" style="fill:rgb(42,57,70);"/>
            </g>
            <g transform="matrix(1,0,0,1,0.5,0)">
                <g id="shadow2" serif:id="shadow" transform="matrix(1,0,0,1,719,427)">
                    <path d="M3240,749L3243,761L3257,761L3260,749L3269,749L3250,730L3230,749L3240,749Z" style="fill:none;stroke:rgb(27,27,27);stroke-width:4px;"/>
                    <path d="M3240,749L3243,761L3257,761L3260,749L3269,749L3250,730L3230,749L3240,749Z" style="fill:rgb(27,27,27);"/>
                </g>
                <g id="color_011" serif:id="color_01" transform="matrix(1,0,0,1,719,427)">
                    <path d="M3240,749L3243,761L3257,761L3260,749L3269,749L3250,730L3230,749L3240,749Z" style="fill:rgb(122,200,84);"/>
                </g>
            </g>
        </g>
    </g>
</svg>
