<?xml version="1.0" encoding="UTF-8" standalone="no"?>
<!DOCTYPE svg PUBLIC "-//W3C//DTD SVG 1.1//EN" "http://www.w3.org/Graphics/SVG/1.1/DTD/svg11.dtd">
<svg width="100%" height="100%" viewBox="0 0 100 100" version="1.1" xmlns="http://www.w3.org/2000/svg" xmlns:xlink="http://www.w3.org/1999/xlink" xml:space="preserve" xmlns:serif="http://www.serif.com/" style="fill-rule:evenodd;clip-rule:evenodd;stroke-linecap:square;stroke-linejoin:round;stroke-miterlimit:1.5;">
    <g transform="matrix(1,0,0,1,-2200,-1000)">
        <g id="Environmental_Damage_Negated" transform="matrix(1,0,0,1,-1700,-100)">
            <g id="glow" transform="matrix(1,0,0,1,1700,100)">
                <path d="M2217,1077L2220,1080L2225,1074L2236,1074L2242,1080L2245,1078L2239,1072L2239,1070L2244,1063L2250,1063L2254,1069L2255,1069L2258,1066L2259,1066L2260,1067L2253,1074L2256,1077L2263,1070L2273,1070L2277,1075L2272,1080L2275,1083L2283,1074L2287,1074L2287,1088L2213,1088L2213,1068L2218.87,1060L2228,1060L2229,1061L2229,1063L2217,1077ZM2268,1056L2273,1056L2276,1062L2284,1062L2287,1070L2282,1070L2280,1072L2279,1072L2268,1056ZM2244,1045L2244,1032L2236,1036L2241,1045L2237,1050L2233,1047L2236,1043L2230,1038L2230,1033L2244,1026L2257,1026L2271,1033L2271,1038L2265,1043L2268,1047L2264,1050L2260,1045L2265,1036L2257,1032L2257,1045L2270,1067L2263,1067L2253.55,1051L2247.4,1051L2236,1070L2229,1070L2244,1045ZM2254,1012L2254,1023L2247,1023L2247,1012L2254,1012Z" style="fill:none;stroke:rgb(174,247,134);stroke-width:12px;"/>
                <path d="M2217,1077L2220,1080L2225,1074L2236,1074L2242,1080L2245,1078L2239,1072L2239,1070L2244,1063L2250,1063L2254,1069L2255,1069L2258,1066L2259,1066L2260,1067L2253,1074L2256,1077L2263,1070L2273,1070L2277,1075L2272,1080L2275,1083L2283,1074L2287,1074L2287,1088L2213,1088L2213,1068L2218.87,1060L2228,1060L2229,1061L2229,1063L2217,1077ZM2268,1056L2273,1056L2276,1062L2284,1062L2287,1070L2282,1070L2280,1072L2279,1072L2268,1056ZM2244,1045L2244,1032L2236,1036L2241,1045L2237,1050L2233,1047L2236,1043L2230,1038L2230,1033L2244,1026L2257,1026L2271,1033L2271,1038L2265,1043L2268,1047L2264,1050L2260,1045L2265,1036L2257,1032L2257,1045L2270,1067L2263,1067L2253.55,1051L2247.4,1051L2236,1070L2229,1070L2244,1045ZM2254,1012L2254,1023L2247,1023L2247,1012L2254,1012Z" style="fill:rgb(174,247,134);"/>
            </g>
            <g id="shadow" transform="matrix(1,0,0,1,1700,100)">
                <path d="M2217,1077L2220,1080L2225,1074L2236,1074L2242,1080L2245,1078L2239,1072L2239,1070L2244,1063L2250,1063L2254,1069L2255,1069L2258,1066L2259,1066L2260,1067L2253,1074L2256,1077L2263,1070L2273,1070L2277,1075L2272,1080L2275,1083L2283,1074L2287,1074L2287,1088L2213,1088L2213,1068L2218.87,1060L2228,1060L2229,1061L2229,1063L2217,1077ZM2268,1056L2273,1056L2276,1062L2284,1062L2287,1070L2282,1070L2280,1072L2279,1072L2268,1056Z" style="fill:none;stroke:rgb(27,27,27);stroke-width:4px;"/>
                <path d="M2217,1077L2220,1080L2225,1074L2236,1074L2242,1080L2245,1078L2239,1072L2239,1070L2244,1063L2250,1063L2254,1069L2255,1069L2258,1066L2259,1066L2260,1067L2253,1074L2256,1077L2263,1070L2273,1070L2277,1075L2272,1080L2275,1083L2283,1074L2287,1074L2287,1088L2213,1088L2213,1068L2218.87,1060L2228,1060L2229,1061L2229,1063L2217,1077ZM2268,1056L2273,1056L2276,1062L2284,1062L2287,1070L2282,1070L2280,1072L2279,1072L2268,1056Z" style="fill:rgb(27,27,27);"/>
            </g>
            <g>
                <clipPath id="_clip1">
                    <path d="M3917,1177L3920,1180L3925,1174L3936,1174L3942,1180L3945,1178L3939,1172L3939,1170L3944,1163L3950,1163L3954,1169L3955,1169L3958,1166L3959,1166L3960,1167L3953,1174L3956,1177L3963,1170L3973,1170L3977,1175L3972,1180L3975,1183L3983,1174L3987,1174L3987,1188L3913,1188L3913,1168L3918.87,1160L3928,1160L3929,1161L3929,1163L3917,1177ZM3968,1156L3973,1156L3976,1162L3984,1162L3987,1170L3982,1170L3980,1172L3979,1172L3968,1156Z"/>
                </clipPath>
                <g clip-path="url(#_clip1)">
                    <g id="color_03" transform="matrix(1,0,0,1,1700,100)">
                        <rect x="2213" y="1056" width="74" height="32" style="fill:rgb(192,187,149);"/>
                    </g>
                    <g id="color_02" transform="matrix(1,0,0,1,1700,100)">
                        <path d="M2254,1079L2254,1082C2254,1082.55 2253.55,1083 2253,1083L2250,1083C2249.45,1083 2249,1082.55 2249,1082L2249,1079C2249,1078.45 2249.45,1078 2250,1078L2253,1078C2253.55,1078 2254,1078.45 2254,1079ZM2237,1083L2237,1085C2237,1085.55 2236.55,1086 2236,1086L2234,1086C2233.45,1086 2233,1085.55 2233,1085L2233,1083C2233,1082.45 2233.45,1082 2234,1082L2236,1082C2236.55,1082 2237,1082.45 2237,1083ZM2220,1080L2220,1084C2220,1084.55 2219.55,1085 2219,1085L2215,1085C2214.45,1085 2214,1084.55 2214,1084L2214,1080C2214,1079.45 2214.45,1079 2215,1079L2219,1079C2219.55,1079 2220,1079.45 2220,1080ZM2273,1085L2273,1087C2273,1087.55 2272.55,1088 2272,1088L2270,1088C2269.45,1088 2269,1087.55 2269,1087L2269,1085C2269,1084.45 2269.45,1084 2270,1084L2272,1084C2272.55,1084 2273,1084.45 2273,1085ZM2286,1086C2286,1086.55 2285.55,1087 2285,1087C2284.45,1087 2284,1086.55 2284,1086C2284,1085.45 2284.45,1085 2285,1085C2285.55,1085 2286,1085.45 2286,1086ZM2282,1065L2282,1066C2282,1066.55 2281.55,1067 2281,1067L2280,1067C2279.45,1067 2279,1066.55 2279,1066L2279,1065C2279,1064.45 2279.45,1064 2280,1064L2281,1064C2281.55,1064 2282,1064.45 2282,1065Z" style="fill:rgb(138,134,100);"/>
                    </g>
                    <g id="color_01" transform="matrix(1,0,0,1,1700,100)">
                        <path d="M2247,1085L2247,1089C2247,1089.55 2246.55,1090 2246,1090L2242,1090C2241.45,1090 2241,1089.55 2241,1089L2241,1085C2241,1084.45 2241.45,1084 2242,1084L2246,1084C2246.55,1084 2247,1084.45 2247,1085ZM2220,1068L2220,1070C2220,1070.55 2219.55,1071 2219,1071L2217,1071C2216.45,1071 2216,1070.55 2216,1070L2216,1068C2216,1067.45 2216.45,1067 2217,1067L2219,1067C2219.55,1067 2220,1067.45 2220,1068ZM2226,1064L2226,1065C2226,1065.55 2225.55,1066 2225,1066L2224,1066C2223.45,1066 2223,1065.55 2223,1065L2223,1064C2223,1063.45 2223.45,1063 2224,1063L2225,1063C2225.55,1063 2226,1063.45 2226,1064ZM2284,1078L2284,1082C2284,1082.55 2283.55,1083 2283,1083L2279,1083C2278.45,1083 2278,1082.55 2278,1082L2278,1078C2278,1077.45 2278.45,1077 2279,1077L2283,1077C2283.55,1077 2284,1077.45 2284,1078ZM2273,1072L2273,1073C2273,1073.55 2272.55,1074 2272,1074L2271,1074C2270.45,1074 2270,1073.55 2270,1073L2270,1072C2270,1071.45 2270.45,1071 2271,1071L2272,1071C2272.55,1071 2273,1071.45 2273,1072ZM2245,1069L2245,1070C2245,1070.55 2244.55,1071 2244,1071L2243,1071C2242.45,1071 2242,1070.55 2242,1070L2242,1069C2242,1068.45 2242.45,1068 2243,1068L2244,1068C2244.55,1068 2245,1068.45 2245,1069Z" style="fill:rgb(134,136,107);"/>
                    </g>
                </g>
            </g>
            <g>
                <g id="shadow1" serif:id="shadow" transform="matrix(1.16667,0,0,1,1325.5,100)">
                    <path d="M2244.43,1045L2244.43,1032L2237.57,1036L2241.86,1045L2238.43,1050L2235,1047L2237.57,1043L2232.43,1038L2232.43,1033L2244.43,1026L2255.57,1026L2267.57,1033L2267.57,1038L2262.43,1043L2265,1047L2261.57,1050L2258.14,1045L2262.43,1036L2255.57,1032L2255.57,1045L2266.71,1067L2260.71,1067L2252.61,1051L2247.34,1051L2237.57,1070L2231.57,1070L2244.43,1045ZM2253,1012L2253,1023L2247,1023L2247,1012L2253,1012Z" style="fill:none;stroke:rgb(27,27,27);stroke-width:3.68px;"/>
                    <path d="M2244.43,1045L2244.43,1032L2237.57,1036L2241.86,1045L2238.43,1050L2235,1047L2237.57,1043L2232.43,1038L2232.43,1033L2244.43,1026L2255.57,1026L2267.57,1033L2267.57,1038L2262.43,1043L2265,1047L2261.57,1050L2258.14,1045L2262.43,1036L2255.57,1032L2255.57,1045L2266.71,1067L2260.71,1067L2252.61,1051L2247.34,1051L2237.57,1070L2231.57,1070L2244.43,1045ZM2253,1012L2253,1023L2247,1023L2247,1012L2253,1012Z" style="fill:rgb(27,27,27);"/>
                </g>
                <g id="color_011" serif:id="color_01" transform="matrix(1.16667,0,0,1,1325.5,100)">
                    <path d="M2244.43,1045L2244.43,1032L2237.57,1036L2241.86,1045L2238.43,1050L2235,1047L2237.57,1043L2232.43,1038L2232.43,1033L2244.43,1026L2255.57,1026L2267.57,1033L2267.57,1038L2262.43,1043L2265,1047L2261.57,1050L2258.14,1045L2262.43,1036L2255.57,1032L2255.57,1045L2266.71,1067L2260.71,1067L2252.61,1051L2247.34,1051L2237.57,1070L2231.57,1070L2244.43,1045ZM2253,1012L2253,1023L2247,1023L2247,1012L2253,1012Z" style="fill:rgb(198,183,121);"/>
                </g>
            </g>
        </g>
    </g>
</svg>
