<?xml version="1.0" encoding="UTF-8" standalone="no"?>
<!DOCTYPE svg PUBLIC "-//W3C//DTD SVG 1.1//EN" "http://www.w3.org/Graphics/SVG/1.1/DTD/svg11.dtd">
<svg width="100%" height="100%" viewBox="0 0 100 100" version="1.1" xmlns="http://www.w3.org/2000/svg" xmlns:xlink="http://www.w3.org/1999/xlink" xml:space="preserve" xmlns:serif="http://www.serif.com/" style="fill-rule:evenodd;clip-rule:evenodd;stroke-linecap:square;stroke-linejoin:round;stroke-miterlimit:1.5;">
    <g transform="matrix(1,0,0,1,-2100,-800)">
        <g id="Exhaust" transform="matrix(1,0,0,1,-1800,-300)">
            <g transform="matrix(1,0,0,1,1800,300)">
                <path d="M2139,812C2142,812 2174,839 2174,839C2175,840 2178,839 2178,841L2178,878L2161,878L2157,868L2157,842C2157,842 2128,823 2128,821C2128,818 2136,812 2139,812ZM2141,878L2126,878C2122,878 2122,868 2122,868L2145,868L2145,874C2145,874 2145,878 2141,878ZM2151,867C2153,867 2158,878 2158,883C2158,888 2151,888 2151,888C2151,888 2144,888 2144,883C2144,880.446 2147,878 2148,875C2149,872 2149,867 2151,867ZM2123,866L2124,856L2130,856L2131,866L2123,866ZM2136,866L2137,856L2143,856L2144,866L2136,866ZM2135.69,832.513L2129.83,839.416L2124.86,836.06L2129.06,828.04L2135.69,832.513ZM2149,842L2143.14,848.902L2138.16,845.547L2142.37,837.526L2149,842Z" style="fill:none;stroke:rgb(27,27,27);stroke-width:4px;"/>
                <path d="M2139,812C2142,812 2174,839 2174,839C2175,840 2178,839 2178,841L2178,878L2161,878L2157,868L2157,842C2157,842 2128,823 2128,821C2128,818 2136,812 2139,812ZM2141,878L2126,878C2122,878 2122,868 2122,868L2145,868L2145,874C2145,874 2145,878 2141,878ZM2151,867C2153,867 2158,878 2158,883C2158,888 2151,888 2151,888C2151,888 2144,888 2144,883C2144,880.446 2147,878 2148,875C2149,872 2149,867 2151,867ZM2123,866L2124,856L2130,856L2131,866L2123,866ZM2136,866L2137,856L2143,856L2144,866L2136,866ZM2135.69,832.513L2129.83,839.416L2124.86,836.06L2129.06,828.04L2135.69,832.513ZM2149,842L2143.14,848.902L2138.16,845.547L2142.37,837.526L2149,842Z" style="fill:rgb(27,27,27);"/>
            </g>
            <g id="color_04" transform="matrix(1,0,0,1,1800,300)">
                <path d="M2139,812C2142,812 2174,839 2174,839C2175,840 2178,839 2178,841L2178,878L2161,878L2157,868L2157,842C2157,842 2128,823 2128,821C2128,818 2136,812 2139,812ZM2141,878L2126,878C2122,878 2122,868 2122,868L2145,868L2145,874C2145,874 2145,878 2141,878Z" style="fill:rgb(146,171,60);"/>
            </g>
            <g id="color_03" transform="matrix(1,0,0,1,1800,300)">
                <path d="M2151,867C2149,867 2149,872 2148,875C2147,878 2144,880.446 2144,883C2144,888 2151,888 2151,888C2151,888 2158,888 2158,883C2158,878 2153,867 2151,867Z" style="fill:rgb(83,253,253);"/>
            </g>
            <g id="color_02" transform="matrix(1,0,0,1,1800,300)">
                <path d="M2123,866L2124,856L2130,856L2131,866L2123,866ZM2136,866L2137,856L2143,856L2144,866L2136,866ZM2135.69,832.513L2129.83,839.416L2124.86,836.06L2129.06,828.04L2135.69,832.513ZM2149,842L2143.14,848.902L2138.16,845.547L2142.37,837.526L2149,842Z" style="fill:white;"/>
            </g>
            <g id="color_01" transform="matrix(1,0,0,1,1800,300)">
                <circle cx="2165" cy="844" r="5" style="fill:rgb(251,243,4);"/>
            </g>
        </g>
    </g>
</svg>
