<?xml version="1.0" encoding="UTF-8" standalone="no"?>
<!DOCTYPE svg PUBLIC "-//W3C//DTD SVG 1.1//EN" "http://www.w3.org/Graphics/SVG/1.1/DTD/svg11.dtd">
<svg width="100%" height="100%" viewBox="0 0 100 100" version="1.1" xmlns="http://www.w3.org/2000/svg" xmlns:xlink="http://www.w3.org/1999/xlink" xml:space="preserve" xmlns:serif="http://www.serif.com/" style="fill-rule:evenodd;clip-rule:evenodd;stroke-linecap:square;stroke-linejoin:round;stroke-miterlimit:1.5;">
    <g transform="matrix(1,0,0,1,-3600,-1000)">
        <g id="Extend_Melodies" transform="matrix(1,0,0,1,-300,-100)">
            <g id="glow" transform="matrix(1,0,0,1,300,100)">
                <path d="M3634,1013L3643,1013L3646,1015L3646,1019L3640,1019L3640,1040L3624,1040C3618,1040 3618,1034 3618,1034L3618,1029L3634,1029L3634,1013ZM3644,1023L3655,1023C3655,1023 3655,1024 3658,1026C3661,1028 3664,1028 3664,1028L3673,1028C3673,1028 3669,1040 3662.5,1040C3655,1040 3651,1033 3651,1033L3651,1080C3651,1080 3651,1088 3643,1088L3621,1088C3613,1088 3613,1080 3613,1080L3613,1061C3613,1061 3613,1060 3614,1060L3639.05,1060C3640,1060 3640,1061 3640,1061L3640,1077L3626,1077C3625,1077 3625,1074 3625,1074C3625,1074 3625,1071 3626,1071L3634,1071L3634,1067C3634,1067 3634,1066 3633,1066L3620,1066C3619,1066 3619,1067 3619,1067L3619,1080C3619,1080 3619,1082 3621,1082L3643,1082C3644,1082 3644,1081 3644,1081L3644,1023ZM3665,1078L3655,1078L3655,1065L3665,1065L3665,1055L3678,1055L3678,1065L3688,1065L3688,1078L3678,1078L3678,1088L3665,1088L3665,1078Z" style="fill:none;stroke:rgb(174,247,134);stroke-width:12px;"/>
                <path d="M3634,1013L3643,1013L3646,1015L3646,1019L3640,1019L3640,1040L3624,1040C3618,1040 3618,1034 3618,1034L3618,1029L3634,1029L3634,1013ZM3644,1023L3655,1023C3655,1023 3655,1024 3658,1026C3661,1028 3664,1028 3664,1028L3673,1028C3673,1028 3669,1040 3662.5,1040C3655,1040 3651,1033 3651,1033L3651,1080C3651,1080 3651,1088 3643,1088L3621,1088C3613,1088 3613,1080 3613,1080L3613,1061C3613,1061 3613,1060 3614,1060L3639.05,1060C3640,1060 3640,1061 3640,1061L3640,1077L3626,1077C3625,1077 3625,1074 3625,1074C3625,1074 3625,1071 3626,1071L3634,1071L3634,1067C3634,1067 3634,1066 3633,1066L3620,1066C3619,1066 3619,1067 3619,1067L3619,1080C3619,1080 3619,1082 3621,1082L3643,1082C3644,1082 3644,1081 3644,1081L3644,1023ZM3665,1078L3655,1078L3655,1065L3665,1065L3665,1055L3678,1055L3678,1065L3688,1065L3688,1078L3678,1078L3678,1088L3665,1088L3665,1078Z" style="fill:rgb(174,247,134);"/>
            </g>
            <g id="shadow" transform="matrix(1,0,0,1,300,100)">
                <path d="M3634,1013L3643,1013L3646,1015L3646,1019L3640,1019L3640,1040L3624,1040C3618,1040 3618,1034 3618,1034L3618,1029L3634,1029L3634,1013ZM3644,1023L3655,1023C3655,1023 3655,1024 3658,1026C3661,1028 3664,1028 3664,1028L3673,1028C3673,1028 3669,1040 3662.5,1040C3655,1040 3651,1033 3651,1033L3651,1080C3651,1080 3651,1088 3643,1088L3621,1088C3613,1088 3613,1080 3613,1080L3613,1061C3613,1061 3613,1060 3614,1060L3639.05,1060C3640,1060 3640,1061 3640,1061L3640,1077L3626,1077C3625,1077 3625,1074 3625,1074C3625,1074 3625,1071 3626,1071L3634,1071L3634,1067C3634,1067 3634,1066 3633,1066L3620,1066C3619,1066 3619,1067 3619,1067L3619,1080C3619,1080 3619,1082 3621,1082L3643,1082C3644,1082 3644,1081 3644,1081L3644,1023ZM3665,1078L3655,1078L3655,1065L3665,1065L3665,1055L3678,1055L3678,1065L3688,1065L3688,1078L3678,1078L3678,1088L3665,1088L3665,1078Z" style="fill:none;stroke:rgb(27,27,27);stroke-width:4px;"/>
                <path d="M3634,1013L3643,1013L3646,1015L3646,1019L3640,1019L3640,1040L3624,1040C3618,1040 3618,1034 3618,1034L3618,1029L3634,1029L3634,1013ZM3644,1023L3655,1023C3655,1023 3655,1024 3658,1026C3661,1028 3664,1028 3664,1028L3673,1028C3673,1028 3669,1040 3662.5,1040C3655,1040 3651,1033 3651,1033L3651,1080C3651,1080 3651,1088 3643,1088L3621,1088C3613,1088 3613,1080 3613,1080L3613,1061C3613,1061 3613,1060 3614,1060L3639.05,1060C3640,1060 3640,1061 3640,1061L3640,1077L3626,1077C3625,1077 3625,1074 3625,1074C3625,1074 3625,1071 3626,1071L3634,1071L3634,1067C3634,1067 3634,1066 3633,1066L3620,1066C3619,1066 3619,1067 3619,1067L3619,1080C3619,1080 3619,1082 3621,1082L3643,1082C3644,1082 3644,1081 3644,1081L3644,1023ZM3665,1078L3655,1078L3655,1065L3665,1065L3665,1055L3678,1055L3678,1065L3688,1065L3688,1078L3678,1078L3678,1088L3665,1088L3665,1078Z" style="fill:rgb(27,27,27);"/>
            </g>
            <g id="color_04" transform="matrix(1,0,0,1,300,100)">
                <path d="M3634,1013L3634,1029L3618,1029L3618,1034C3618,1034 3618,1040 3624,1040L3640,1040L3640,1019L3646,1019L3646,1015L3643,1013L3634,1013Z" style="fill:rgb(110,132,71);"/>
            </g>
            <g id="color_03" transform="matrix(1,0,0,1,486,100)">
                <path d="M3458,1023L3458,1081C3458,1081 3458,1082 3457,1082L3435,1082C3433,1082 3433,1080 3433,1080L3433,1067C3433,1067 3433,1066 3434,1066L3447,1066C3448,1066 3448,1067 3448,1067L3448,1071L3440,1071C3439,1071 3439,1074 3439,1074C3439,1074 3439,1077 3440,1077L3454,1077L3454,1061C3454,1061 3454,1060 3453.05,1060L3428,1060C3427,1060 3427,1061 3427,1061L3427,1080C3427,1080 3427,1088 3435,1088L3457,1088C3465,1088 3465,1080 3465,1080L3465,1033C3465,1033 3469,1040 3476.5,1040C3483,1040 3487,1028 3487,1028L3478,1028C3478,1028 3475,1028 3472,1026C3469,1024 3469,1023 3469,1023L3458,1023Z" style="fill:rgb(206,200,95);"/>
            </g>
            <g id="color_02" transform="matrix(1,0,0,0.970588,300,132)">
                <path d="M3665,1077.7L3655,1077.7L3655,1064.3L3665,1064.3L3665,1054L3678,1054L3678,1064.3L3688,1064.3L3688,1077.7L3678,1077.7L3678,1088L3665,1088L3665,1077.7Z" style="fill:rgb(92,116,64);"/>
            </g>
            <g id="color_01" transform="matrix(0.384615,0,0,0.735294,2559.38,384)">
                <path d="M3665,1074.4L3639,1074.4L3639,1067.6L3665,1067.6L3665,1054L3678,1054L3678,1067.6L3704,1067.6L3704,1074.4L3678,1074.4L3678,1088L3665,1088L3665,1074.4Z" style="fill:rgb(138,192,112);"/>
            </g>
        </g>
    </g>
</svg>
