<?xml version="1.0" encoding="UTF-8" standalone="no"?>
<!DOCTYPE svg PUBLIC "-//W3C//DTD SVG 1.1//EN" "http://www.w3.org/Graphics/SVG/1.1/DTD/svg11.dtd">
<svg width="100%" height="100%" viewBox="0 0 100 100" version="1.1" xmlns="http://www.w3.org/2000/svg" xmlns:xlink="http://www.w3.org/1999/xlink" xml:space="preserve" xmlns:serif="http://www.serif.com/" style="fill-rule:evenodd;clip-rule:evenodd;stroke-linecap:square;stroke-linejoin:round;stroke-miterlimit:1.5;">
    <g transform="matrix(1,0,0,1,-2000,-700)">
        <g id="Fireblight" transform="matrix(1,0,0,1,-1900,-400)">
            <g id="shadow" transform="matrix(1,0,0,1,1900,400)">
                <path d="M2050,786C2059.5,786 2077,779 2077,761C2077,740 2061,738 2061,738C2061,738 2064.14,729.818 2067,726C2070,722 2079,714 2079,714C2079,714 2058,712 2040,725C2027.18,734.257 2020,745 2020,761C2020,781 2040.5,786 2050,786Z" style="fill:none;stroke:rgb(27,27,27);stroke-width:4px;"/>
                <path d="M2050,786C2059.5,786 2077,779 2077,761C2077,740 2061,738 2061,738C2061,738 2064.14,729.818 2067,726C2070,722 2079,714 2079,714C2079,714 2058,712 2040,725C2027.18,734.257 2020,745 2020,761C2020,781 2040.5,786 2050,786Z" style="fill:rgb(27,27,27);"/>
            </g>
            <g id="color_02" transform="matrix(1,0,0,1,1900,400)">
                <path d="M2050,786C2059.5,786 2077,779 2077,761C2077,740 2061,738 2061,738C2061,738 2064.14,729.818 2067,726C2070,722 2079,714 2079,714C2079,714 2058,712 2040,725C2027.18,734.257 2020,745 2020,761C2020,781 2040.5,786 2050,786Z" style="fill:rgb(193,105,113);"/>
            </g>
            <g id="color_01" transform="matrix(1,0,0,1,1900,400)">
                <clipPath id="_clip1">
                    <path d="M2050,786C2059.5,786 2077,779 2077,761C2077,740 2061,738 2061,738C2061,738 2064.14,728.818 2067,725C2070,721 2079,714 2079,714C2079,714 2058,712 2040,725C2027.18,734.257 2020,745 2020,761C2020,781 2040.5,786 2050,786Z"/>
                </clipPath>
                <g clip-path="url(#_clip1)">
                    <path d="M2052,762C2052,762 2054,765 2054,767C2054,769 2050,772 2045,772C2040,772 2034,767 2034,761C2034,757 2035,747 2050,747C2064,747 2067,758.463 2067,766C2067,791 2016,785 2016,785L2016,759C2016,759 2026,778 2043,778C2055,778 2060,769 2060,765C2060,760 2057,756 2051,756C2047,756 2043,758 2043,761C2043,764 2046.49,765 2048,765C2050,765 2052,762 2052,762Z" style="fill:rgb(133,49,55);"/>
                </g>
            </g>
        </g>
    </g>
</svg>
