<?xml version="1.0" encoding="UTF-8" standalone="no"?>
<!DOCTYPE svg PUBLIC "-//W3C//DTD SVG 1.1//EN" "http://www.w3.org/Graphics/SVG/1.1/DTD/svg11.dtd">
<svg width="100%" height="100%" viewBox="0 0 100 100" version="1.1" xmlns="http://www.w3.org/2000/svg" xmlns:xlink="http://www.w3.org/1999/xlink" xml:space="preserve" xmlns:serif="http://www.serif.com/" style="fill-rule:evenodd;clip-rule:evenodd;stroke-linecap:square;stroke-linejoin:round;stroke-miterlimit:1.5;">
    <g transform="matrix(1,0,0,1,-2800,-900)">
        <g id="Fire_Resistance_Up_S" transform="matrix(1,0,0,1,-1100,-200)">
            <g id="glow" transform="matrix(1.03226,0,0,1.02703,491.935,379.73)">
                <path d="M3376.16,787L3337.41,787L3319,765.579L3319,713L3381,713L3381,765.579L3379.65,767.146L3387.78,775.316L3378.09,775.316L3376.16,787Z" style="fill:none;stroke:rgb(174,247,134);stroke-width:11.65px;"/>
                <path d="M3376.16,787L3337.41,787L3319,765.579L3319,713L3381,713L3381,765.579L3379.65,767.146L3387.78,775.316L3378.09,775.316L3376.16,787Z" style="fill:rgb(174,247,134);"/>
            </g>
            <g id="shadow" transform="matrix(1.03226,0,0,1.02703,491.935,379.73)">
                <path d="M3376.16,787L3337.41,787L3319,765.579L3319,713L3381,713L3381,765.579L3379.65,767.146L3387.78,775.316L3378.09,775.316L3376.16,787Z" style="fill:none;stroke:rgb(27,27,27);stroke-width:3.88px;"/>
                <path d="M3376.16,787L3337.41,787L3319,765.579L3319,713L3381,713L3381,765.579L3379.65,767.146L3387.78,775.316L3378.09,775.316L3376.16,787Z" style="fill:rgb(27,27,27);"/>
            </g>
            <g transform="matrix(1.03226,0,0,1.02703,-127.419,-31.0811)">
                <g id="color_03" transform="matrix(1,0,0,1,600,400)">
                    <path d="M3319,765.579L3319,713L3381,713L3381,765.579L3362.59,787L3337.41,787L3319,765.579Z" style="fill:rgb(181,104,110);"/>
                </g>
                <g id="color_02" transform="matrix(1,0,0,1,600,396)">
                    <path d="M3320.94,769.579L3320.94,718.947L3379.06,718.947L3379.06,769.579L3361.62,789.053L3338.38,789.053L3320.94,769.579Z" style="fill:rgb(126,82,80);"/>
                </g>
                <g id="color_01" transform="matrix(1,0,0,1,600,396)">
                    <path d="M3325.78,766.658L3325.78,723.816L3374.22,723.816L3374.22,766.658L3357.75,784.184L3342.25,784.184L3325.78,766.658Z" style="fill:rgb(181,104,110);"/>
                </g>
            </g>
            <g id="Fireblight">
                <g id="color_031" serif:id="color_03" transform="matrix(0.525424,0,0,0.526967,2872.64,751.914)">
                    <path d="M2050,786C2059.5,786 2077,779 2077,761C2077,740 2061,738 2061,738C2061,738 2064.14,729.818 2067,726C2070,722 2079,714 2079,714C2079,714 2058,712 2040,725C2027.18,734.257 2020,745 2020,761C2020,781 2040.5,786 2050,786Z" style="fill:rgb(98,68,70);stroke:rgb(98,68,70);stroke-width:19px;stroke-linecap:round;stroke-miterlimit:2;"/>
                </g>
                <g id="color_021" serif:id="color_02" transform="matrix(0.525424,0,0,0.526967,2872.64,751.914)">
                    <path d="M2050,786C2059.5,786 2077,779 2077,761C2077,740 2061,738 2061,738C2061,738 2064.14,729.818 2067,726C2070,722 2079,714 2079,714C2079,714 2058,712 2040,725C2027.18,734.257 2020,745 2020,761C2020,781 2040.5,786 2050,786Z" style="fill:rgb(165,87,94);"/>
                </g>
                <g id="color_011" serif:id="color_01" transform="matrix(0.525424,0,0,0.526967,2872.64,751.914)">
                    <clipPath id="_clip1">
                        <path d="M2050,786C2059.5,786 2077,779 2077,761C2077,740 2061,738 2061,738C2061,738 2064.14,728.818 2067,725C2070,721 2079,714 2079,714C2079,714 2058,712 2040,725C2027.18,734.257 2020,745 2020,761C2020,781 2040.5,786 2050,786Z"/>
                    </clipPath>
                    <g clip-path="url(#_clip1)">
                        <path d="M2052,762C2052,762 2054,765 2054,767C2054,769 2050,772 2045,772C2040,772 2034,767 2034,761C2034,757 2035,747 2050,747C2064,747 2067,758.463 2067,766C2067,791 2016,785 2016,785L2016,759C2016,759 2026,778 2043,778C2055,778 2060,769 2060,765C2060,760 2057,756 2051,756C2047,756 2043,758 2043,761C2043,764 2046.49,765 2048,765C2050,765 2052,762 2052,762Z" style="fill:rgb(121,46,52);"/>
                    </g>
                </g>
            </g>
            <g transform="matrix(0.818182,0,0,0.837209,738.182,212.977)">
                <g id="color_012" serif:id="color_01" transform="matrix(1,0,0,1,700,403.389)">
                    <clipPath id="_clip2">
                        <path d="M3185.22,736.139L3185.22,669.25L3265.89,669.25L3265.89,736.139L3242.67,762.417L3208.44,762.417L3185.22,736.139Z"/>
                    </clipPath>
                    <g clip-path="url(#_clip2)">
                        <path d="M3234.11,751.667L3236.56,766L3263.44,766L3265.89,751.667L3285.44,751.667L3250,717.028L3214.56,751.667L3234.11,751.667Z" style="fill:rgb(27,27,27);"/>
                    </g>
                </g>
                <g id="color_013" serif:id="color_01" transform="matrix(1,0,0,1,700,403.389)">
                    <path d="M3239,746.889L3241.44,761.222L3258.56,761.222L3261,746.889L3273.22,746.889L3250,724.194L3226.78,746.889L3239,746.889Z" style="fill:rgb(122,200,84);"/>
                </g>
            </g>
        </g>
    </g>
</svg>
