<?xml version="1.0" encoding="UTF-8" standalone="no"?>
<!DOCTYPE svg PUBLIC "-//W3C//DTD SVG 1.1//EN" "http://www.w3.org/Graphics/SVG/1.1/DTD/svg11.dtd">
<svg width="100%" height="100%" viewBox="0 0 100 100" version="1.1" xmlns="http://www.w3.org/2000/svg" xmlns:xlink="http://www.w3.org/1999/xlink" xml:space="preserve" xmlns:serif="http://www.serif.com/" style="fill-rule:evenodd;clip-rule:evenodd;stroke-linecap:square;stroke-linejoin:round;stroke-miterlimit:1.5;">
    <g transform="matrix(1,0,0,1,-2400,-800)">
        <g id="Frenzy_Debuff" transform="matrix(1,0,0,1,-1500,-300)">
            <g id="shadow" transform="matrix(1,0,0,1,1702.54,300)">
                <path d="M2246.46,877L2248.46,877L2254.46,884L2254.46,888L2240.46,888L2240.46,884L2246.46,877ZM2230.46,827C2230.46,827 2230.46,816 2245.46,816C2261.46,816 2261.46,830 2261.46,830C2261.46,830 2274.46,830 2274.46,848C2274.46,860 2264.46,860 2264.46,860C2264.46,860 2264.46,871 2247.46,871C2225.46,871 2225.46,857 2225.46,857C2225.46,857 2231.46,860 2237.46,860C2251.46,860 2251.46,848 2251.46,848C2251.46,848 2251.46,836 2240.46,836C2230.46,836 2230.46,843 2230.46,843C2230.46,843 2230.46,849 2236.46,849C2236.46,849 2234.46,848 2234.46,845C2234.46,845 2234.46,841 2240.46,841C2246.46,841 2246.46,847 2246.46,847C2246.46,847 2246.46,855 2235.46,855C2219.46,855 2219.46,841 2219.46,841C2219.46,827 2230.46,827 2230.46,827ZM2231.25,871.594C2230.55,874.133 2228.22,876 2225.46,876C2222.15,876 2219.46,873.311 2219.46,870C2219.46,867.351 2221.18,865.101 2223.56,864.307C2224.66,866.703 2226.86,869.596 2231.25,871.594ZM2259.49,816.437C2260.94,813.794 2263.74,812 2266.96,812C2271.65,812 2275.46,815.809 2275.46,820.5C2275.46,824.205 2273.09,827.359 2269.78,828.522C2266.97,827 2264.46,827 2264.46,827C2264.46,827 2264.46,820.582 2259.49,816.437Z" style="fill:none;stroke:rgb(27,27,27);stroke-width:4px;"/>
                <path d="M2246.46,877L2248.46,877L2254.46,884L2254.46,888L2240.46,888L2240.46,884L2246.46,877ZM2230.46,827C2230.46,827 2230.46,816 2245.46,816C2261.46,816 2261.46,830 2261.46,830C2261.46,830 2274.46,830 2274.46,848C2274.46,860 2264.46,860 2264.46,860C2264.46,860 2264.46,871 2247.46,871C2225.46,871 2225.46,857 2225.46,857C2225.46,857 2231.46,860 2237.46,860C2251.46,860 2251.46,848 2251.46,848C2251.46,848 2251.46,836 2240.46,836C2230.46,836 2230.46,843 2230.46,843C2230.46,843 2230.46,849 2236.46,849C2236.46,849 2234.46,848 2234.46,845C2234.46,845 2234.46,841 2240.46,841C2246.46,841 2246.46,847 2246.46,847C2246.46,847 2246.46,855 2235.46,855C2219.46,855 2219.46,841 2219.46,841C2219.46,827 2230.46,827 2230.46,827ZM2231.25,871.594C2230.55,874.133 2228.22,876 2225.46,876C2222.15,876 2219.46,873.311 2219.46,870C2219.46,867.351 2221.18,865.101 2223.56,864.307C2224.66,866.703 2226.86,869.596 2231.25,871.594ZM2259.49,816.437C2260.94,813.794 2263.74,812 2266.96,812C2271.65,812 2275.46,815.809 2275.46,820.5C2275.46,824.205 2273.09,827.359 2269.78,828.522C2266.97,827 2264.46,827 2264.46,827C2264.46,827 2264.46,820.582 2259.49,816.437Z" style="fill:rgb(27,27,27);"/>
            </g>
            <g id="color_02" transform="matrix(1,0,0,1,1702.54,300)">
                <path d="M2246.46,877L2240.46,884L2240.46,888L2254.46,888L2254.46,884L2248.46,877L2246.46,877Z" style="fill:rgb(145,100,77);"/>
            </g>
            <g id="color_01" transform="matrix(1,0,0,1,1500,300)">
                <path d="M2433,827C2433,827 2433,816 2448,816C2464,816 2464,830 2464,830C2464,830 2477,830 2477,848C2477,860 2467,860 2467,860C2467,860 2467,871 2450,871C2428,871 2428,857 2428,857C2428,857 2434,860 2440,860C2454,860 2454,848 2454,848C2454,848 2454,836 2443,836C2433,836 2433,843 2433,843C2433,843 2433,849 2439,849C2439,849 2437,848 2437,845C2437,845 2437,841 2443,841C2449,841 2449,847 2449,847C2449,847 2449,855 2438,855C2422,855 2422,841 2422,841C2422,827 2433,827 2433,827Z" style="fill:rgb(183,98,110);"/>
            </g>
            <g>
                <clipPath id="_clip1">
                    <path d="M4000,1100L4000,1200L3900,1200L3900,1100L4000,1100ZM3933,1127C3933,1127 3922,1127 3922,1141C3922,1141 3922,1155 3938,1155C3949,1155 3949,1147 3949,1147C3949,1147 3949,1141 3943,1141C3937,1141 3937,1145 3937,1145C3937,1148 3939,1149 3939,1149C3933,1149 3933,1143 3933,1143C3933,1143 3936,1133 3946,1133C3957,1133 3954,1148 3954,1148C3954,1148 3951,1163 3937,1163C3931,1163 3925,1160 3925,1160C3925,1160 3925,1174 3947,1174C3964,1174 3967,1160 3967,1160C3967,1160 3980,1157 3980,1145C3980,1127 3967,1127 3967,1127C3967,1127 3967,1113 3951,1113C3936,1113 3933,1127 3933,1127Z"/>
                </clipPath>
                <g clip-path="url(#_clip1)">
                    <g id="color_021" serif:id="color_02" transform="matrix(0.923077,0,0,0.923077,1686.31,367.385)">
                        <circle cx="2428.5" cy="869.5" r="6.5" style="fill:rgb(133,75,85);"/>
                    </g>
                    <g id="color_011" serif:id="color_01" transform="matrix(1,0,0,1,1500,300)">
                        <circle cx="2469.5" cy="820.5" r="8.5" style="fill:rgb(183,98,110);"/>
                    </g>
                </g>
            </g>
        </g>
    </g>
</svg>
