<?xml version="1.0" encoding="UTF-8" standalone="no"?>
<!DOCTYPE svg PUBLIC "-//W3C//DTD SVG 1.1//EN" "http://www.w3.org/Graphics/SVG/1.1/DTD/svg11.dtd">
<svg width="100%" height="100%" viewBox="0 0 100 100" version="1.1" xmlns="http://www.w3.org/2000/svg" xmlns:xlink="http://www.w3.org/1999/xlink" xml:space="preserve" xmlns:serif="http://www.serif.com/" style="fill-rule:evenodd;clip-rule:evenodd;stroke-linecap:square;stroke-linejoin:round;stroke-miterlimit:1.5;">
    <g transform="matrix(1,0,0,1,-2500,-800)">
        <g id="Frenzy_Cured" transform="matrix(1,0,0,1,-1400,-300)">
            <g id="glow" transform="matrix(1,0,0,1,1702.54,300)">
                <path d="M2246.46,877L2248.46,877L2254.46,884L2254.46,888L2240.46,888L2240.46,884L2246.46,877ZM2230.46,827C2230.46,827 2230.46,816 2245.46,816C2261.46,816 2261.46,830 2261.46,830C2261.46,830 2274.46,830 2274.46,848C2274.46,860 2264.46,860 2264.46,860C2264.46,860 2264.46,871 2247.46,871C2225.46,871 2225.46,857 2225.46,857C2225.46,857 2231.46,860 2237.46,860C2251.46,860 2251.46,848 2251.46,848C2251.46,848 2251.46,836 2240.46,836C2230.46,836 2230.46,843 2230.46,843C2230.46,843 2230.46,849 2236.46,849C2236.46,849 2234.46,848 2234.46,845C2234.46,845 2234.46,841 2240.46,841C2246.46,841 2246.46,847 2246.46,847C2246.46,847 2246.46,855 2235.46,855C2219.46,855 2219.46,841 2219.46,841C2219.46,827 2230.46,827 2230.46,827Z" style="fill:none;stroke:rgb(174,247,134);stroke-width:12px;"/>
                <path d="M2246.46,877L2248.46,877L2254.46,884L2254.46,888L2240.46,888L2240.46,884L2246.46,877ZM2230.46,827C2230.46,827 2230.46,816 2245.46,816C2261.46,816 2261.46,830 2261.46,830C2261.46,830 2274.46,830 2274.46,848C2274.46,860 2264.46,860 2264.46,860C2264.46,860 2264.46,871 2247.46,871C2225.46,871 2225.46,857 2225.46,857C2225.46,857 2231.46,860 2237.46,860C2251.46,860 2251.46,848 2251.46,848C2251.46,848 2251.46,836 2240.46,836C2230.46,836 2230.46,843 2230.46,843C2230.46,843 2230.46,849 2236.46,849C2236.46,849 2234.46,848 2234.46,845C2234.46,845 2234.46,841 2240.46,841C2246.46,841 2246.46,847 2246.46,847C2246.46,847 2246.46,855 2235.46,855C2219.46,855 2219.46,841 2219.46,841C2219.46,827 2230.46,827 2230.46,827Z" style="fill:rgb(174,247,134);"/>
            </g>
            <g id="shadow" transform="matrix(1,0,0,1,1702.54,300)">
                <path d="M2246.46,877L2248.46,877L2254.46,884L2254.46,888L2240.46,888L2240.46,884L2246.46,877ZM2230.46,827C2230.46,827 2230.46,816 2245.46,816C2261.46,816 2261.46,830 2261.46,830C2261.46,830 2274.46,830 2274.46,848C2274.46,860 2264.46,860 2264.46,860C2264.46,860 2264.46,871 2247.46,871C2225.46,871 2225.46,857 2225.46,857C2225.46,857 2231.46,860 2237.46,860C2251.46,860 2251.46,848 2251.46,848C2251.46,848 2251.46,836 2240.46,836C2230.46,836 2230.46,843 2230.46,843C2230.46,843 2230.46,849 2236.46,849C2236.46,849 2234.46,848 2234.46,845C2234.46,845 2234.46,841 2240.46,841C2246.46,841 2246.46,847 2246.46,847C2246.46,847 2246.46,855 2235.46,855C2219.46,855 2219.46,841 2219.46,841C2219.46,827 2230.46,827 2230.46,827Z" style="fill:none;stroke:rgb(27,27,27);stroke-width:4px;"/>
                <path d="M2246.46,877L2248.46,877L2254.46,884L2254.46,888L2240.46,888L2240.46,884L2246.46,877ZM2230.46,827C2230.46,827 2230.46,816 2245.46,816C2261.46,816 2261.46,830 2261.46,830C2261.46,830 2274.46,830 2274.46,848C2274.46,860 2264.46,860 2264.46,860C2264.46,860 2264.46,871 2247.46,871C2225.46,871 2225.46,857 2225.46,857C2225.46,857 2231.46,860 2237.46,860C2251.46,860 2251.46,848 2251.46,848C2251.46,848 2251.46,836 2240.46,836C2230.46,836 2230.46,843 2230.46,843C2230.46,843 2230.46,849 2236.46,849C2236.46,849 2234.46,848 2234.46,845C2234.46,845 2234.46,841 2240.46,841C2246.46,841 2246.46,847 2246.46,847C2246.46,847 2246.46,855 2235.46,855C2219.46,855 2219.46,841 2219.46,841C2219.46,827 2230.46,827 2230.46,827Z" style="fill:rgb(27,27,27);"/>
            </g>
            <g id="color_02" transform="matrix(1,0,0,1,1702.54,300)">
                <path d="M2246.46,877L2240.46,884L2240.46,888L2254.46,888L2254.46,884L2248.46,877L2246.46,877Z" style="fill:rgb(145,100,77);"/>
            </g>
            <g id="color_01" transform="matrix(1,0,0,1,1500,300)">
                <path d="M2433,827C2433,827 2433,816 2448,816C2464,816 2464,830 2464,830C2464,830 2477,830 2477,848C2477,860 2467,860 2467,860C2467,860 2467,871 2450,871C2428,871 2428,857 2428,857C2428,857 2434,860 2440,860C2454,860 2454,848 2454,848C2454,848 2454,836 2443,836C2433,836 2433,843 2433,843C2433,843 2433,849 2439,849C2439,849 2437,848 2437,845C2437,845 2437,841 2443,841C2449,841 2449,847 2449,847C2449,847 2449,855 2438,855C2422,855 2422,841 2422,841C2422,827 2433,827 2433,827Z" style="fill:rgb(120,177,186);"/>
            </g>
        </g>
    </g>
</svg>
