<?xml version="1.0" encoding="UTF-8" standalone="no"?>
<!DOCTYPE svg PUBLIC "-//W3C//DTD SVG 1.1//EN" "http://www.w3.org/Graphics/SVG/1.1/DTD/svg11.dtd">
<svg width="100%" height="100%" viewBox="0 0 100 100" version="1.1" xmlns="http://www.w3.org/2000/svg" xmlns:xlink="http://www.w3.org/1999/xlink" xml:space="preserve" xmlns:serif="http://www.serif.com/" style="fill-rule:evenodd;clip-rule:evenodd;stroke-linecap:square;stroke-linejoin:round;stroke-miterlimit:1.5;">
    <g transform="matrix(1,0,0,1,-2300,-800)">
        <g id="Frenzy_Buildup" transform="matrix(1,0,0,1,-1600,-300)">
            <g id="shadow" transform="matrix(1,0,0,1,1600,300)">
                <path d="M2327,829C2327,813 2346,813 2346,813C2346,813 2365,813 2365,829C2365,834.984 2358,844 2354,848C2350,852 2352,860 2346,860C2340,860 2342,852 2338,848C2334,844 2327,834.984 2327,829ZM2359,855C2359,843 2372,843 2372,843C2372,843 2385,843 2385,855C2385,859 2382,860 2382,863C2382,866 2386,868 2387,868C2388,868 2388,869 2388,869L2388,871L2356,871L2356,869C2356,869 2356,868 2357,868C2358,868 2362,866 2362,863C2362,860 2359,859 2359,855ZM2312,871L2312,869C2312,869 2312,868 2313,868C2314,868 2324,866 2324,862C2324,862 2324,857 2328,857C2333,857 2333,862 2333,862C2333,866 2338,868 2339,868C2340,868 2340,869 2340,869L2340,871L2312,871Z" style="fill:none;stroke:rgb(27,27,27);stroke-width:4px;"/>
                <path d="M2327,829C2327,813 2346,813 2346,813C2346,813 2365,813 2365,829C2365,834.984 2358,844 2354,848C2350,852 2352,860 2346,860C2340,860 2342,852 2338,848C2334,844 2327,834.984 2327,829ZM2359,855C2359,843 2372,843 2372,843C2372,843 2385,843 2385,855C2385,859 2382,860 2382,863C2382,866 2386,868 2387,868C2388,868 2388,869 2388,869L2388,871L2356,871L2356,869C2356,869 2356,868 2357,868C2358,868 2362,866 2362,863C2362,860 2359,859 2359,855ZM2312,871L2312,869C2312,869 2312,868 2313,868C2314,868 2324,866 2324,862C2324,862 2324,857 2328,857C2333,857 2333,862 2333,862C2333,866 2338,868 2339,868C2340,868 2340,869 2340,869L2340,871L2312,871Z" style="fill:rgb(27,27,27);"/>
            </g>
            <g id="color_01" transform="matrix(1,0,0,1,1600,300)">
                <path d="M2327,829C2327,813 2346,813 2346,813C2346,813 2365,813 2365,829C2365,834.984 2358,844 2354,848C2350,852 2352,860 2346,860C2340,860 2342,852 2338,848C2334,844 2327,834.984 2327,829ZM2359,855C2359,843 2372,843 2372,843C2372,843 2385,843 2385,855C2385,859 2382,860 2382,863C2382,866 2386,868 2387,868C2388,868 2388,869 2388,869L2388,871L2356,871L2356,869C2356,869 2356,868 2357,868C2358,868 2362,866 2362,863C2362,860 2359,859 2359,855ZM2312,871L2312,869C2312,869 2312,868 2313,868C2314,868 2324,866 2324,862C2324,862 2324,857 2328,857C2333,857 2333,862 2333,862C2333,866 2338,868 2339,868C2340,868 2340,869 2340,869L2340,871L2312,871Z" style="fill:rgb(152,125,181);"/>
            </g>
        </g>
    </g>
</svg>
