<?xml version="1.0" encoding="UTF-8" standalone="no"?>
<!DOCTYPE svg PUBLIC "-//W3C//DTD SVG 1.1//EN" "http://www.w3.org/Graphics/SVG/1.1/DTD/svg11.dtd">
<svg width="100%" height="100%" viewBox="0 0 100 100" version="1.1" xmlns="http://www.w3.org/2000/svg" xmlns:xlink="http://www.w3.org/1999/xlink" xml:space="preserve" xmlns:serif="http://www.serif.com/" style="fill-rule:evenodd;clip-rule:evenodd;stroke-linecap:square;stroke-linejoin:round;stroke-miterlimit:1.5;">
    <g transform="matrix(1,0,0,1,-3700,-700)">
        <g id="Health_Regen" transform="matrix(1,0,0,1,-200,-400)">
            <g id="glow" transform="matrix(1,0,0,1,300,400)">
                <path d="M3632.31,777.485L3631,787L3629.46,775.83C3626.85,775.243 3624.8,773.201 3624.18,770.604L3615,769L3624.18,767.396C3624.48,766.132 3625.12,765 3626,764.103L3626,746C3626,746 3626,743 3629,741C3632,739 3636,739 3638,738C3640,737 3642,734.944 3642,733C3642,727 3635,725 3635,725L3635,719L3642,719L3642,713L3658,713L3658,719L3665,719L3665,725C3665,725 3658,727 3658,733C3658,734.944 3660,737 3662,738C3662.23,738.114 3662.48,738.216 3662.76,738.308C3663.53,737.704 3664.41,737.23 3665.36,736.919L3668,724L3670.64,736.919C3673.19,737.754 3675.22,739.764 3676.06,742.309L3688,745L3676.06,747.691C3675.64,748.959 3674.93,750.095 3674,751.018L3674,766C3674,772 3660,787 3657,787L3643,787C3641.36,787 3636.44,782.525 3632.31,777.485Z" style="fill:none;stroke:rgb(174,247,134);stroke-width:12px;"/>
                <path d="M3632.31,777.485L3631,787L3629.46,775.83C3626.85,775.243 3624.8,773.201 3624.18,770.604L3615,769L3624.18,767.396C3624.48,766.132 3625.12,765 3626,764.103L3626,746C3626,746 3626,743 3629,741C3632,739 3636,739 3638,738C3640,737 3642,734.944 3642,733C3642,727 3635,725 3635,725L3635,719L3642,719L3642,713L3658,713L3658,719L3665,719L3665,725C3665,725 3658,727 3658,733C3658,734.944 3660,737 3662,738C3662.23,738.114 3662.48,738.216 3662.76,738.308C3663.53,737.704 3664.41,737.23 3665.36,736.919L3668,724L3670.64,736.919C3673.19,737.754 3675.22,739.764 3676.06,742.309L3688,745L3676.06,747.691C3675.64,748.959 3674.93,750.095 3674,751.018L3674,766C3674,772 3660,787 3657,787L3643,787C3641.36,787 3636.44,782.525 3632.31,777.485Z" style="fill:rgb(174,247,134);"/>
            </g>
            <g id="shadow" transform="matrix(1,0,0,1,300,400)">
                <path d="M3658,719L3665,719L3665,725C3665,725 3658,727 3658,733C3658,734.944 3660,737 3662,738C3664,739 3668,739 3671,741C3674,743 3674,746 3674,746L3674,766C3674,772 3660,787 3657,787L3643,787C3640,787 3626,772 3626,766L3626,746C3626,746 3626,743 3629,741C3632,739 3636,739 3638,738C3640,737 3642,734.944 3642,733C3642,727 3635,725 3635,725L3635,719L3642,719L3642,713L3658,713L3658,719Z" style="fill:none;stroke:rgb(27,27,27);stroke-width:4px;"/>
                <path d="M3658,719L3665,719L3665,725C3665,725 3658,727 3658,733C3658,734.944 3660,737 3662,738C3664,739 3668,739 3671,741C3674,743 3674,746 3674,746L3674,766C3674,772 3660,787 3657,787L3643,787C3640,787 3626,772 3626,766L3626,746C3626,746 3626,743 3629,741C3632,739 3636,739 3638,738C3640,737 3642,734.944 3642,733C3642,727 3635,725 3635,725L3635,719L3642,719L3642,713L3658,713L3658,719Z" style="fill:rgb(27,27,27);"/>
            </g>
            <g>
                <g id="color_02" transform="matrix(1,0,0,1,300,400)">
                    <path d="M3657,787L3643,787C3640,787 3626,772 3626,766L3626,746C3626,746 3626,743 3629,741C3632,739 3636,739 3638,738C3640,737 3642,734.944 3642,733C3642,727 3635,725 3635,725L3635,719L3665,719L3665,725C3665,725 3658,727 3658,733C3658,734.944 3660,737 3662,738C3664,739 3668,739 3671,741C3674,743 3674,746 3674,746L3674,766C3674,772 3660,787 3657,787Z" style="fill:rgb(130,177,107);"/>
                </g>
                <g id="color_01" transform="matrix(1,0,0,1,300,400)">
                    <rect x="3642" y="713" width="16" height="10" style="fill:rgb(119,97,78);"/>
                </g>
            </g>
            <g>
                <g id="shadow1" serif:id="shadow">
                    <path d="M3958.94,1148.69L3948,1145L3958.94,1141.31C3959.79,1138.76 3961.81,1136.75 3964.36,1135.92L3968,1124L3970.64,1136.92C3973.19,1137.75 3975.22,1139.76 3976.06,1142.31L3988,1145L3976.06,1147.69C3975.22,1150.24 3973.19,1152.25 3970.64,1153.08L3968,1166L3964.36,1154.08C3961.81,1153.25 3959.79,1151.24 3958.94,1148.69ZM3924.18,1170.6L3915,1169L3924.18,1167.4C3924.8,1164.8 3926.85,1162.76 3929.46,1162.17L3931,1151L3933.54,1161.17C3936.15,1161.76 3938.2,1163.8 3938.82,1166.4L3947,1169L3938.82,1171.6C3938.2,1174.2 3936.15,1176.24 3933.54,1176.83L3931,1187L3929.46,1175.83C3926.85,1175.24 3924.8,1173.2 3924.18,1170.6Z" style="fill:none;stroke:rgb(27,27,27);stroke-width:4px;"/>
                    <path d="M3958.94,1148.69L3948,1145L3958.94,1141.31C3959.79,1138.76 3961.81,1136.75 3964.36,1135.92L3968,1124L3970.64,1136.92C3973.19,1137.75 3975.22,1139.76 3976.06,1142.31L3988,1145L3976.06,1147.69C3975.22,1150.24 3973.19,1152.25 3970.64,1153.08L3968,1166L3964.36,1154.08C3961.81,1153.25 3959.79,1151.24 3958.94,1148.69ZM3924.18,1170.6L3915,1169L3924.18,1167.4C3924.8,1164.8 3926.85,1162.76 3929.46,1162.17L3931,1151L3933.54,1161.17C3936.15,1161.76 3938.2,1163.8 3938.82,1166.4L3947,1169L3938.82,1171.6C3938.2,1174.2 3936.15,1176.24 3933.54,1176.83L3931,1187L3929.46,1175.83C3926.85,1175.24 3924.8,1173.2 3924.18,1170.6Z" style="fill:rgb(27,27,27);"/>
                </g>
                <g id="color_021" serif:id="color_02" transform="matrix(1,0,0,1,200,400)">
                    <path d="M3724.18,770.604L3715,769L3724.18,767.396C3724.8,764.799 3726.85,762.757 3729.46,762.17L3731,751L3732.54,762.17C3735.15,762.757 3737.2,764.799 3737.82,767.396L3747,769L3737.82,770.604C3737.2,773.201 3735.15,775.243 3732.54,775.83L3731,787L3729.46,775.83C3726.85,775.243 3724.8,773.201 3724.18,770.604ZM3759.94,747.691L3748,745L3759.94,742.309C3760.78,739.764 3762.81,737.754 3765.36,736.919L3768,724L3770.64,736.919C3773.19,737.754 3775.22,739.764 3776.06,742.309L3788,745L3776.06,747.691C3775.22,750.236 3773.19,752.246 3770.64,753.081L3768,766L3765.36,753.081C3762.81,752.246 3760.78,750.236 3759.94,747.691Z" style="fill:rgb(184,212,148);"/>
                </g>
                <g id="color_011" serif:id="color_01" transform="matrix(0.571429,0,0,0.571429,1836,705.571)">
                    <circle cx="3731" cy="769" r="7" style="fill:rgb(241,240,225);"/>
                </g>
            </g>
        </g>
    </g>
</svg>
