<?xml version="1.0" encoding="UTF-8" standalone="no"?>
<!DOCTYPE svg PUBLIC "-//W3C//DTD SVG 1.1//EN" "http://www.w3.org/Graphics/SVG/1.1/DTD/svg11.dtd">
<svg width="100%" height="100%" viewBox="0 0 100 100" version="1.1" xmlns="http://www.w3.org/2000/svg" xmlns:xlink="http://www.w3.org/1999/xlink" xml:space="preserve" xmlns:serif="http://www.serif.com/" style="fill-rule:evenodd;clip-rule:evenodd;stroke-linecap:square;stroke-linejoin:round;stroke-miterlimit:1.5;">
    <g transform="matrix(1,0,0,1,-3500,-800)">
        <g id="Major_Wind_Pressure" transform="matrix(1,0,0,1,-400,-300)">
            <g id="shadow" transform="matrix(0.763158,0,0,0.714286,1317.11,523.714)">
                <path d="M3412,825L3429,825C3434.28,825 3441.15,833.916 3443.45,837.6C3446.07,841.8 3450,847.4 3451.31,851.6C3452.62,855.8 3455.02,860.467 3457.86,862.8C3457.86,862.8 3460.48,865.6 3468.35,865.6C3478.83,865.6 3478.83,861.4 3478.83,861.4L3478.83,843.2C3478.83,843.2 3478.83,841.8 3477.52,841.8L3465.72,841.8C3465.72,841.8 3464.41,841.8 3464.41,843.2L3464.41,851.6L3469.66,851.6L3469.66,847.4C3469.66,847.4 3469.66,846 3470.97,846L3472.28,846C3472.28,846 3473.59,846 3473.59,847.4L3473.59,855.8C3473.59,855.8 3473.59,858.6 3467.09,858.6C3456.55,858.6 3456.55,854.4 3456.55,851.6L3456.55,839C3456.55,833.4 3464.41,832 3472.23,832C3480.14,832 3488,833.4 3488,840.4L3488,861.4C3488,868.4 3485.38,875.4 3467.03,875.4C3451.31,875.4 3447.38,867 3444.76,862.8C3442.14,858.6 3440.83,853 3438.21,848.8C3436.53,846.118 3430.35,833.4 3425.1,833.4L3412,833.4L3412,825ZM3412,881L3429,881C3434.28,881 3441.15,889.916 3443.45,893.6C3446.07,897.8 3450,903.4 3451.31,907.6C3452.62,911.8 3455.02,916.467 3457.86,918.8C3457.86,918.8 3460.48,921.6 3468.35,921.6C3478.83,921.6 3478.83,917.4 3478.83,917.4L3478.83,899.2C3478.83,899.2 3478.83,897.8 3477.52,897.8L3465.72,897.8C3465.72,897.8 3464.41,897.8 3464.41,899.2L3464.41,907.6L3469.66,907.6L3469.66,903.4C3469.66,903.4 3469.66,902 3470.97,902L3472.28,902C3472.28,902 3473.59,902 3473.59,903.4L3473.59,911.8C3473.59,911.8 3473.59,914.6 3467.09,914.6C3456.55,914.6 3456.55,910.4 3456.55,907.6L3456.55,895C3456.55,889.4 3464.41,888 3472.23,888C3480.14,888 3488,889.4 3488,896.4L3488,917.4C3488,924.4 3485.38,931.4 3467.03,931.4C3451.31,931.4 3447.38,923 3444.76,918.8C3442.14,914.6 3440.83,909 3438.21,904.8C3436.53,902.118 3430.35,889.4 3425.1,889.4L3412,889.4L3412,881Z" style="fill:none;stroke:rgb(27,27,27);stroke-width:5.41px;"/>
                <path d="M3412,825L3429,825C3434.28,825 3441.15,833.916 3443.45,837.6C3446.07,841.8 3450,847.4 3451.31,851.6C3452.62,855.8 3455.02,860.467 3457.86,862.8C3457.86,862.8 3460.48,865.6 3468.35,865.6C3478.83,865.6 3478.83,861.4 3478.83,861.4L3478.83,843.2C3478.83,843.2 3478.83,841.8 3477.52,841.8L3465.72,841.8C3465.72,841.8 3464.41,841.8 3464.41,843.2L3464.41,851.6L3469.66,851.6L3469.66,847.4C3469.66,847.4 3469.66,846 3470.97,846L3472.28,846C3472.28,846 3473.59,846 3473.59,847.4L3473.59,855.8C3473.59,855.8 3473.59,858.6 3467.09,858.6C3456.55,858.6 3456.55,854.4 3456.55,851.6L3456.55,839C3456.55,833.4 3464.41,832 3472.23,832C3480.14,832 3488,833.4 3488,840.4L3488,861.4C3488,868.4 3485.38,875.4 3467.03,875.4C3451.31,875.4 3447.38,867 3444.76,862.8C3442.14,858.6 3440.83,853 3438.21,848.8C3436.53,846.118 3430.35,833.4 3425.1,833.4L3412,833.4L3412,825ZM3412,881L3429,881C3434.28,881 3441.15,889.916 3443.45,893.6C3446.07,897.8 3450,903.4 3451.31,907.6C3452.62,911.8 3455.02,916.467 3457.86,918.8C3457.86,918.8 3460.48,921.6 3468.35,921.6C3478.83,921.6 3478.83,917.4 3478.83,917.4L3478.83,899.2C3478.83,899.2 3478.83,897.8 3477.52,897.8L3465.72,897.8C3465.72,897.8 3464.41,897.8 3464.41,899.2L3464.41,907.6L3469.66,907.6L3469.66,903.4C3469.66,903.4 3469.66,902 3470.97,902L3472.28,902C3472.28,902 3473.59,902 3473.59,903.4L3473.59,911.8C3473.59,911.8 3473.59,914.6 3467.09,914.6C3456.55,914.6 3456.55,910.4 3456.55,907.6L3456.55,895C3456.55,889.4 3464.41,888 3472.23,888C3480.14,888 3488,889.4 3488,896.4L3488,917.4C3488,924.4 3485.38,931.4 3467.03,931.4C3451.31,931.4 3447.38,923 3444.76,918.8C3442.14,914.6 3440.83,909 3438.21,904.8C3436.53,902.118 3430.35,889.4 3425.1,889.4L3412,889.4L3412,881Z" style="fill:rgb(27,27,27);"/>
            </g>
            <g id="color_01" transform="matrix(0.763158,0,0,0.714286,1317.11,523.714)">
                <path d="M3412,825L3429,825C3434.28,825 3441.15,833.916 3443.45,837.6C3446.07,841.8 3450,847.4 3451.31,851.6C3452.62,855.8 3455.02,860.467 3457.86,862.8C3457.86,862.8 3460.48,865.6 3468.35,865.6C3478.83,865.6 3478.83,861.4 3478.83,861.4L3478.83,843.2C3478.83,843.2 3478.83,841.8 3477.52,841.8L3465.72,841.8C3465.72,841.8 3464.41,841.8 3464.41,843.2L3464.41,851.6L3469.66,851.6L3469.66,847.4C3469.66,847.4 3469.66,846 3470.97,846L3472.28,846C3472.28,846 3473.59,846 3473.59,847.4L3473.59,855.8C3473.59,855.8 3473.59,858.6 3467.09,858.6C3456.55,858.6 3456.55,854.4 3456.55,851.6L3456.55,839C3456.55,833.4 3464.41,832 3472.23,832C3480.14,832 3488,833.4 3488,840.4L3488,861.4C3488,868.4 3485.38,875.4 3467.03,875.4C3451.31,875.4 3447.38,867 3444.76,862.8C3442.14,858.6 3440.83,853 3438.21,848.8C3436.53,846.118 3430.35,833.4 3425.1,833.4L3412,833.4L3412,825ZM3412,881L3429,881C3434.28,881 3441.15,889.916 3443.45,893.6C3446.07,897.8 3450,903.4 3451.31,907.6C3452.62,911.8 3455.02,916.467 3457.86,918.8C3457.86,918.8 3460.48,921.6 3468.35,921.6C3478.83,921.6 3478.83,917.4 3478.83,917.4L3478.83,899.2C3478.83,899.2 3478.83,897.8 3477.52,897.8L3465.72,897.8C3465.72,897.8 3464.41,897.8 3464.41,899.2L3464.41,907.6L3469.66,907.6L3469.66,903.4C3469.66,903.4 3469.66,902 3470.97,902L3472.28,902C3472.28,902 3473.59,902 3473.59,903.4L3473.59,911.8C3473.59,911.8 3473.59,914.6 3467.09,914.6C3456.55,914.6 3456.55,910.4 3456.55,907.6L3456.55,895C3456.55,889.4 3464.41,888 3472.23,888C3480.14,888 3488,889.4 3488,896.4L3488,917.4C3488,924.4 3485.38,931.4 3467.03,931.4C3451.31,931.4 3447.38,923 3444.76,918.8C3442.14,914.6 3440.83,909 3438.21,904.8C3436.53,902.118 3430.35,889.4 3425.1,889.4L3412,889.4L3412,881Z" style="fill:rgb(157,163,199);"/>
            </g>
        </g>
    </g>
</svg>
