<?xml version="1.0" encoding="UTF-8" standalone="no"?>
<!DOCTYPE svg PUBLIC "-//W3C//DTD SVG 1.1//EN" "http://www.w3.org/Graphics/SVG/1.1/DTD/svg11.dtd">
<svg width="100%" height="100%" viewBox="0 0 100 100" version="1.1" xmlns="http://www.w3.org/2000/svg" xmlns:xlink="http://www.w3.org/1999/xlink" xml:space="preserve" xmlns:serif="http://www.serif.com/" style="fill-rule:evenodd;clip-rule:evenodd;stroke-linecap:square;stroke-linejoin:round;stroke-miterlimit:1.5;">
    <g transform="matrix(1,0,0,1,-3300,-800)">
        <g id="Major_Tremor" transform="matrix(1,0,0,1,-600,-300)">
            <g id="shadow" transform="matrix(1,0,0,1,800,300)">
                <path d="M3115,888L3113,888L3113,866L3129,866L3123,872L3128,877L3115,888ZM3171,866L3187,866L3187,888L3178,888L3168,882L3175,877L3166,871L3171,866ZM3127,888L3118,888L3132,877L3127,872L3133,866L3142,866L3136,872L3141,877L3127,888ZM3158,866L3167,866L3162,871L3171,877L3164,882L3174,888L3165,888L3155,882L3162,877L3153,871L3158,866ZM3134,862L3145,842L3148,829L3139,828L3135,837L3130,835L3136,822L3152,824L3161,828L3172,835L3170,848L3164,847L3166,837L3160,833L3157,843L3165,849L3167,863L3161,863L3159,851L3152,846L3149,846L3141,862L3134,862ZM3153,821L3157,812L3164,815L3160,824L3153,821Z" style="fill:none;stroke:rgb(27,27,27);stroke-width:4px;"/>
                <path d="M3115,888L3113,888L3113,866L3129,866L3123,872L3128,877L3115,888ZM3171,866L3187,866L3187,888L3178,888L3168,882L3175,877L3166,871L3171,866ZM3127,888L3118,888L3132,877L3127,872L3133,866L3142,866L3136,872L3141,877L3127,888ZM3158,866L3167,866L3162,871L3171,877L3164,882L3174,888L3165,888L3155,882L3162,877L3153,871L3158,866ZM3134,862L3145,842L3148,829L3139,828L3135,837L3130,835L3136,822L3152,824L3161,828L3172,835L3170,848L3164,847L3166,837L3160,833L3157,843L3165,849L3167,863L3161,863L3159,851L3152,846L3149,846L3141,862L3134,862ZM3153,821L3157,812L3164,815L3160,824L3153,821Z" style="fill:rgb(27,27,27);"/>
            </g>
            <g id="color_03" transform="matrix(1,0,0,1,600,300)">
                <path d="M3327,888L3318,888L3332,877L3327,872L3333,866L3342,866L3336,872L3341,877L3327,888ZM3358,866L3367,866L3362,871L3371,877L3364,882L3374,888L3365,888L3355,882L3362,877L3353,871L3358,866Z" style="fill:rgb(179,114,80);"/>
            </g>
            <g id="color_02" transform="matrix(1,0,0,1,800,300)">
                <path d="M3115,888L3113,888L3113,866L3129,866L3123,872L3128,877L3115,888ZM3171,866L3187,866L3187,888L3178,888L3168,882L3175,877L3166,871L3171,866Z" style="fill:rgb(115,93,79);"/>
            </g>
            <g id="color_01" transform="matrix(1,0,0,1,800,300)">
                <path d="M3134,862L3145,842L3148,829L3139,828L3135,837L3130,835L3136,822L3152,824L3161,828L3172,835L3170,848L3164,847L3166,837L3160,833L3157,843L3165,849L3167,863L3161,863L3159,851L3152,846L3149,846L3141,862L3134,862ZM3153,821L3157,812L3164,815L3160,824L3153,821Z" style="fill:rgb(199,183,121);"/>
            </g>
        </g>
    </g>
</svg>
