<?xml version="1.0" encoding="UTF-8" standalone="no"?>
<!DOCTYPE svg PUBLIC "-//W3C//DTD SVG 1.1//EN" "http://www.w3.org/Graphics/SVG/1.1/DTD/svg11.dtd">
<svg width="100%" height="100%" viewBox="0 0 100 100" version="1.1" xmlns="http://www.w3.org/2000/svg" xmlns:xlink="http://www.w3.org/1999/xlink" xml:space="preserve" xmlns:serif="http://www.serif.com/" style="fill-rule:evenodd;clip-rule:evenodd;stroke-linecap:square;stroke-linejoin:round;stroke-miterlimit:1.5;">
    <g transform="matrix(1,0,0,1,-3900,-700)">
        <g id="Meal_Effect" transform="matrix(1,0,0,1,0,-400)">
            <g id="glow" transform="matrix(1,0,0,1,2500,1000)">
                <path d="M1461.5,185L1427,185L1420,178L1418,180L1413,175L1421,168L1431,178L1460.33,178L1460,176L1450,176L1452,174L1429.09,174C1427.94,174 1427,173.045 1427,171.87L1427,127.13C1427,125.955 1427.94,125 1429.09,125L1470.91,125C1472.06,125 1473,125.955 1473,127.13L1473,161L1488,176L1486,176L1482,180L1480,178L1477.2,180.8L1476,188L1462,188L1461.5,185ZM1479,139L1487,139L1487,159L1479,159L1479,154L1475,154L1475,144L1479,144L1479,139ZM1421,139L1421,144L1425,144L1425,154L1421,154L1421,159L1413,159L1413,139L1421,139ZM1446,123L1449,114L1454,116L1446,123ZM1431,123L1434,114L1439,116L1431,123ZM1461,123L1464,114L1469,116L1461,123Z" style="fill:none;stroke:rgb(174,247,134);stroke-width:12px;"/>
                <path d="M1461.5,185L1427,185L1420,178L1418,180L1413,175L1421,168L1431,178L1460.33,178L1460,176L1450,176L1452,174L1429.09,174C1427.94,174 1427,173.045 1427,171.87L1427,127.13C1427,125.955 1427.94,125 1429.09,125L1470.91,125C1472.06,125 1473,125.955 1473,127.13L1473,161L1488,176L1486,176L1482,180L1480,178L1477.2,180.8L1476,188L1462,188L1461.5,185ZM1479,139L1487,139L1487,159L1479,159L1479,154L1475,154L1475,144L1479,144L1479,139ZM1421,139L1421,144L1425,144L1425,154L1421,154L1421,159L1413,159L1413,139L1421,139ZM1446,123L1449,114L1454,116L1446,123ZM1431,123L1434,114L1439,116L1431,123ZM1461,123L1464,114L1469,116L1461,123Z" style="fill:rgb(174,247,134);"/>
            </g>
            <g id="shadow" transform="matrix(1,0,0,1,2500,1000)">
                <path d="M1469,178L1479,168L1487,175L1482,180L1480,178L1473,185L1427,185L1420,178L1418,180L1413,175L1421,168L1431,178L1469,178ZM1479,139L1487,139L1487,159L1479,159L1479,154L1475,154L1475,144L1479,144L1479,139ZM1421,139L1421,144L1425,144L1425,154L1421,154L1421,159L1413,159L1413,139L1421,139ZM1446,123L1449,114L1454,116L1446,123ZM1431,123L1434,114L1439,116L1431,123ZM1461,123L1464,114L1469,116L1461,123ZM1473,127.13L1473,171.87C1473,173.045 1472.06,174 1470.91,174L1429.09,174C1427.94,174 1427,173.045 1427,171.87L1427,127.13C1427,125.955 1427.94,125 1429.09,125L1470.91,125C1472.06,125 1473,125.955 1473,127.13Z" style="fill:none;stroke:rgb(27,27,27);stroke-width:4px;"/>
                <path d="M1469,178L1479,168L1487,175L1482,180L1480,178L1473,185L1427,185L1420,178L1418,180L1413,175L1421,168L1431,178L1469,178ZM1479,139L1487,139L1487,159L1479,159L1479,154L1475,154L1475,144L1479,144L1479,139ZM1421,139L1421,144L1425,144L1425,154L1421,154L1421,159L1413,159L1413,139L1421,139ZM1446,123L1449,114L1454,116L1446,123ZM1431,123L1434,114L1439,116L1431,123ZM1461,123L1464,114L1469,116L1461,123ZM1473,127.13L1473,171.87C1473,173.045 1472.06,174 1470.91,174L1429.09,174C1427.94,174 1427,173.045 1427,171.87L1427,127.13C1427,125.955 1427.94,125 1429.09,125L1470.91,125C1472.06,125 1473,125.955 1473,127.13Z" style="fill:rgb(27,27,27);"/>
            </g>
            <g transform="matrix(1,0,0,1,2500,1000)">
                <path id="color_04" d="M1469,178L1479,168L1487,175L1482,180L1480,178L1473,185L1427,185L1420,178L1418,180L1413,175L1421,168L1431,178L1469,178Z" style="fill:rgb(137,87,59);"/>
                <path id="color_03" d="M1479,139L1487,139L1487,159L1479,159L1479,154L1475,154L1475,144L1479,144L1479,139ZM1421,139L1421,144L1425,144L1425,154L1421,154L1421,159L1413,159L1413,139L1421,139ZM1446,123L1449,114L1454,116L1446,123ZM1431,123L1434,114L1439,116L1431,123ZM1461,123L1464,114L1469,116L1461,123Z" style="fill:rgb(204,180,167);"/>
                <g id="color_02" transform="matrix(1.04545,0,0,1.06522,-65.9091,-9.21739)">
                    <path d="M1472,128L1472,170C1472,171.104 1471.1,172 1470,172L1430,172C1428.9,172 1428,171.104 1428,170L1428,128C1428,126.896 1428.9,126 1430,126L1470,126C1471.1,126 1472,126.896 1472,128Z" style="fill:rgb(197,134,99);"/>
                </g>
                <g id="color_01" transform="matrix(1,0,0,1.05,0,-7.45)">
                    <g transform="matrix(1,0,0,1.06667,600,-860.867)">
                        <path d="M831,928.893L869,928.893L850,942.286L831,928.893Z" style="fill:rgb(137,87,59);"/>
                    </g>
                    <g transform="matrix(1,0,0,-1.06667,600,1157.87)">
                        <path d="M850,937.777L830,927.063L870,927.062L850,937.777Z" style="fill:rgb(137,87,59);"/>
                    </g>
                    <g transform="matrix(1.2,0,0,1.2,-530,-1111.2)">
                        <path d="M1645,1051.79L1650,1046.79L1655,1051.79L1650,1056.79L1645,1051.79Z" style="fill:rgb(137,87,59);"/>
                    </g>
                </g>
            </g>
            <g transform="matrix(0.818182,0,0,0.837209,737.182,212.977)">
                <g id="shadow1" serif:id="shadow" transform="matrix(1,0,0,1,700,403.389)">
                    <path d="M3239,746.889L3241.44,761.222L3258.56,761.222L3261,746.889L3273.22,746.889L3250,724.194L3226.78,746.889L3239,746.889Z" style="fill:none;stroke:rgb(27,27,27);stroke-width:4.83px;"/>
                    <path d="M3239,746.889L3241.44,761.222L3258.56,761.222L3261,746.889L3273.22,746.889L3250,724.194L3226.78,746.889L3239,746.889Z" style="fill:rgb(27,27,27);"/>
                </g>
                <g id="shadow2" serif:id="shadow" transform="matrix(1,0,0,1,700,403.389)">
                    <clipPath id="_clip1">
                        <rect x="3197.44" y="715.833" width="58.667" height="31.056"/>
                    </clipPath>
                    <g clip-path="url(#_clip1)">
                        <path d="M3234.11,751.667L3236.56,766L3263.44,766L3265.89,751.667L3285.44,751.667L3250,717.028L3214.56,751.667L3234.11,751.667Z" style="fill:rgb(27,27,27);"/>
                    </g>
                </g>
                <g id="color_011" serif:id="color_01" transform="matrix(1,0,0,1,700,403.389)">
                    <path d="M3239,746.889L3241.44,761.222L3258.56,761.222L3261,746.889L3273.22,746.889L3250,724.194L3226.78,746.889L3239,746.889Z" style="fill:rgb(122,200,84);"/>
                </g>
            </g>
        </g>
    </g>
</svg>
