<?xml version="1.0" encoding="UTF-8" standalone="no"?>
<!DOCTYPE svg PUBLIC "-//W3C//DTD SVG 1.1//EN" "http://www.w3.org/Graphics/SVG/1.1/DTD/svg11.dtd">
<svg width="100%" height="100%" viewBox="0 0 100 100" version="1.1" xmlns="http://www.w3.org/2000/svg" xmlns:xlink="http://www.w3.org/1999/xlink" xml:space="preserve" xmlns:serif="http://www.serif.com/" style="fill-rule:evenodd;clip-rule:evenodd;stroke-linecap:square;stroke-linejoin:round;stroke-miterlimit:1.5;">
    <g transform="matrix(1,0,0,1,-3400,-800)">
        <g id="Minor_Wind_Pressure" transform="matrix(1,0,0,1,-500,-300)">
            <g id="shadow" transform="matrix(1,0,0,1,500,300)">
                <path d="M3412,825L3412,834L3424,834C3430,836 3436,845 3438,849C3440,853 3443,866 3447,870C3451,874 3457,874 3457,874L3475,874C3484,874 3488,864 3488,856L3488,834C3488,834 3488,828 3470.79,828C3455,828 3455,834 3455,834L3455,849C3455,849 3455,857 3464,857L3469,857C3469,857 3472,857 3472,854L3472.05,845C3472.05,845 3472,844 3471,844L3469,844C3469,844 3468,844 3468,845L3468,847C3468,848 3467,848 3467,848L3464,848C3463,848 3463,847 3463,847L3463,838C3463,837 3464.05,836.955 3464.05,836.955L3478,836.955C3479,837.026 3479.06,838.011 3479.06,838.011L3479.06,858C3479,862 3473.14,863.913 3473.14,863.913L3459,863.913C3455,864 3453,858 3452,855C3451.29,852.879 3447,843 3444,838C3440.97,832.943 3433,825 3429,825L3412,825Z" style="fill:none;stroke:rgb(27,27,27);stroke-width:4px;"/>
                <path d="M3412,825L3412,834L3424,834C3430,836 3436,845 3438,849C3440,853 3443,866 3447,870C3451,874 3457,874 3457,874L3475,874C3484,874 3488,864 3488,856L3488,834C3488,834 3488,828 3470.79,828C3455,828 3455,834 3455,834L3455,849C3455,849 3455,857 3464,857L3469,857C3469,857 3472,857 3472,854L3472.05,845C3472.05,845 3472,844 3471,844L3469,844C3469,844 3468,844 3468,845L3468,847C3468,848 3467,848 3467,848L3464,848C3463,848 3463,847 3463,847L3463,838C3463,837 3464.05,836.955 3464.05,836.955L3478,836.955C3479,837.026 3479.06,838.011 3479.06,838.011L3479.06,858C3479,862 3473.14,863.913 3473.14,863.913L3459,863.913C3455,864 3453,858 3452,855C3451.29,852.879 3447,843 3444,838C3440.97,832.943 3433,825 3429,825L3412,825Z" style="fill:rgb(27,27,27);"/>
            </g>
            <g id="color_01" transform="matrix(1,0,0,1,500,300)">
                <path d="M3412,825L3412,834L3424,834C3430,836 3436,845 3438,849C3440,853 3443,866 3447,870C3451,874 3457,874 3457,874L3475,874C3484,874 3488,864 3488,856L3488,834C3488,834 3488,828 3470.79,828C3455,828 3455,834 3455,834L3455,849C3455,849 3455,857 3464,857L3469,857C3469,857 3472,857 3472,854L3472.05,845C3472.05,845 3472,844 3471,844L3469,844C3469,844 3468,844 3468,845L3468,847C3468,848 3467,848 3467,848L3464,848C3463,848 3463,847 3463,847L3463,838C3463,837 3464.05,836.955 3464.05,836.955L3478,836.955C3479,837.026 3479.06,838.011 3479.06,838.011L3479.06,858C3479,862 3473.14,863.913 3473.14,863.913L3459,863.913C3455,864 3453,858 3452,855C3451.29,852.879 3447,843 3444,838C3440.97,832.943 3433,825 3429,825L3412,825Z" style="fill:rgb(157,163,199);"/>
            </g>
        </g>
    </g>
</svg>
