<?xml version="1.0" encoding="UTF-8" standalone="no"?>
<!DOCTYPE svg PUBLIC "-//W3C//DTD SVG 1.1//EN" "http://www.w3.org/Graphics/SVG/1.1/DTD/svg11.dtd">
<svg width="100%" height="100%" viewBox="0 0 100 100" version="1.1" xmlns="http://www.w3.org/2000/svg" xmlns:xlink="http://www.w3.org/1999/xlink" xml:space="preserve" xmlns:serif="http://www.serif.com/" style="fill-rule:evenodd;clip-rule:evenodd;stroke-linecap:square;stroke-linejoin:round;stroke-miterlimit:1.5;">
    <g transform="matrix(1,0,0,1,-3200,-1100)">
        <g id="Minor_Bubbleblight" transform="matrix(1,0,0,1,-700,0)">
            <g>
                <g id="shadow" transform="matrix(0.894737,0,0,0.894737,1069.74,152.474)">
                    <circle cx="3237" cy="1135" r="19" style="fill:none;stroke:rgb(27,27,27);stroke-width:4.47px;"/>
                    <circle cx="3237" cy="1135" r="19" style="fill:rgb(27,27,27);"/>
                </g>
                <g id="color_02" transform="matrix(0.894737,0,0,0.894737,1069.74,152.474)">
                    <circle cx="3237" cy="1135" r="19" style="fill:rgb(110,110,108);"/>
                </g>
                <g id="color_01" transform="matrix(0.684211,0,0,0.684211,1751.21,391.421)">
                    <circle cx="3237" cy="1135" r="19" style="fill:rgb(240,240,239);"/>
                </g>
            </g>
            <g>
                <g id="shadow1" serif:id="shadow" transform="matrix(1.05263,0,0,1.05263,529.632,-59.7368)">
                    <circle cx="3237" cy="1135" r="19" style="fill:none;stroke:rgb(27,27,27);stroke-width:3.8px;"/>
                    <circle cx="3237" cy="1135" r="19" style="fill:rgb(27,27,27);"/>
                </g>
                <g id="color_021" serif:id="color_02" transform="matrix(1.05263,0,0,1.05263,529.632,-59.7368)">
                    <circle cx="3237" cy="1135" r="19" style="fill:rgb(110,110,108);"/>
                </g>
                <g id="color_011" serif:id="color_01" transform="matrix(0.842105,0,0,0.842105,1211.11,179.211)">
                    <circle cx="3237" cy="1135" r="19" style="fill:rgb(240,240,239);"/>
                </g>
            </g>
        </g>
    </g>
</svg>
