<?xml version="1.0" encoding="UTF-8" standalone="no"?>
<!DOCTYPE svg PUBLIC "-//W3C//DTD SVG 1.1//EN" "http://www.w3.org/Graphics/SVG/1.1/DTD/svg11.dtd">
<svg width="100%" height="100%" viewBox="0 0 100 100" version="1.1" xmlns="http://www.w3.org/2000/svg" xmlns:xlink="http://www.w3.org/1999/xlink" xml:space="preserve" xmlns:serif="http://www.serif.com/" style="fill-rule:evenodd;clip-rule:evenodd;stroke-linecap:square;stroke-linejoin:round;stroke-miterlimit:1.5;">
    <g transform="matrix(1,0,0,1,-2100,-1100)">
        <g id="Movement_Speed_Up" transform="matrix(1,0,0,1,-1800,0)">
            <g id="color_04" transform="matrix(1,0,0,1,719,427)">
                <path d="M3251,723L3221,753L3193,753L3193,743C3193,734 3199,730 3211,730L3216,725L3202.02,711.024L3220.98,692.976L3233,705L3266,705L3266,711L3239,711L3245,717L3270,717L3270,723L3251,723ZM3240,749L3230,749L3250,730L3269,749L3260,749L3257,761L3243,761L3240,749ZM3218.98,690.976L3200.02,709.024L3195,704L3214,686L3218.98,690.976ZM3262,699L3236,699L3230,693L3262,693L3262,699Z" style="fill:none;stroke:rgb(174,247,134);stroke-width:12px;"/>
                <path d="M3251,723L3221,753L3193,753L3193,743C3193,734 3199,730 3211,730L3216,725L3202.02,711.024L3220.98,692.976L3233,705L3266,705L3266,711L3239,711L3245,717L3270,717L3270,723L3251,723ZM3240,749L3230,749L3250,730L3269,749L3260,749L3257,761L3243,761L3240,749ZM3218.98,690.976L3200.02,709.024L3195,704L3214,686L3218.98,690.976ZM3262,699L3236,699L3230,693L3262,693L3262,699Z" style="fill:rgb(174,247,134);"/>
            </g>
            <g id="color_041" serif:id="color_04" transform="matrix(1,0,0,1,719,427)">
                <path d="M3251,723L3221,753L3193,753L3193,743C3193,734 3199,730 3211,730L3216,725L3202.02,711.024L3220.98,692.976L3233,705L3266,705L3266,711L3239,711L3245,717L3270,717L3270,723L3251,723ZM3240,749L3230,749L3250,730L3269,749L3260,749L3257,761L3243,761L3240,749ZM3218.98,690.976L3200.02,709.024L3195,704L3214,686L3218.98,690.976ZM3262,699L3236,699L3230,693L3262,693L3262,699Z" style="fill:none;stroke:rgb(27,27,27);stroke-width:4px;"/>
                <path d="M3251,723L3221,753L3193,753L3193,743C3193,734 3199,730 3211,730L3216,725L3202.02,711.024L3220.98,692.976L3233,705L3266,705L3266,711L3239,711L3245,717L3270,717L3270,723L3251,723ZM3240,749L3230,749L3250,730L3269,749L3260,749L3257,761L3243,761L3240,749ZM3218.98,690.976L3200.02,709.024L3195,704L3214,686L3218.98,690.976ZM3262,699L3236,699L3230,693L3262,693L3262,699Z" style="fill:rgb(27,27,27);"/>
            </g>
            <g id="color_042" serif:id="color_04" transform="matrix(1,0,0,1,719,427)">
                <path d="M3240,749L3243,761L3257,761L3260,749L3269,749L3250,730L3230,749L3240,749Z" style="fill:rgb(122,200,84);"/>
            </g>
            <g>
                <clipPath id="_clip1">
                    <path d="M3921.02,1138.02L3939.98,1119.98L3970,1150L3940,1180L3912,1180L3912,1170C3912,1161 3918,1157 3930,1157L3935,1152L3921.02,1138.02ZM3937.98,1117.98L3919.02,1136.02L3914,1131L3933,1113L3937.98,1117.98Z"/>
                </clipPath>
                <g clip-path="url(#_clip1)">
                    <g id="color_03" transform="matrix(1,0,0,1,1800,0)">
                        <rect x="2100" y="1100" width="100" height="100" style="fill:rgb(135,111,83);"/>
                    </g>
                    <g id="color_02">
                        <g transform="matrix(0.808122,-0.808122,0.707107,0.707107,1402.19,2047.29)">
                            <rect x="2120" y="1144" width="7" height="4" style="fill:rgb(93,71,45);"/>
                        </g>
                        <g transform="matrix(0.808122,-0.808122,0.707107,0.707107,1408.19,2053.29)">
                            <rect x="2120" y="1144" width="7" height="4" style="fill:rgb(93,71,45);"/>
                        </g>
                        <g transform="matrix(1,0,0,1,1800,0)">
                            <path d="M2100,1175L2136,1175L2200,1111L2200,1200L2100,1200L2100,1175Z" style="fill:rgb(93,71,45);"/>
                        </g>
                    </g>
                </g>
            </g>
            <g id="color_01" transform="matrix(1,0,0,1,1800,0)">
                <path d="M2181,1126L2155,1126L2149,1120L2181,1120L2181,1126ZM2185,1138L2148,1138L2142,1132L2185,1132L2185,1138ZM2189,1150L2141,1150L2135,1144L2189,1144L2189,1150Z" style="fill:rgb(145,211,213);"/>
            </g>
        </g>
    </g>
</svg>
