<?xml version="1.0" encoding="UTF-8" standalone="no"?>
<!DOCTYPE svg PUBLIC "-//W3C//DTD SVG 1.1//EN" "http://www.w3.org/Graphics/SVG/1.1/DTD/svg11.dtd">
<svg width="100%" height="100%" viewBox="0 0 100 100" version="1.1" xmlns="http://www.w3.org/2000/svg" xmlns:xlink="http://www.w3.org/1999/xlink" xml:space="preserve" xmlns:serif="http://www.serif.com/" style="fill-rule:evenodd;clip-rule:evenodd;stroke-linecap:square;stroke-linejoin:round;stroke-miterlimit:1.5;">
    <g transform="matrix(1,0,0,1,-2600,-700)">
        <g id="Noxious_Poison" transform="matrix(1,0,0,1,-1300,-400)">
            <g id="shadow" transform="matrix(1,0,0,1,1300,401)">
                <path d="M2626,770.497C2621.75,767.303 2619,762.22 2619,756.5C2619,753.436 2619.79,750.555 2621.18,748.049L2620,741L2626.32,742.265C2629.19,740.21 2632.71,739 2636.5,739C2636.61,739 2636.72,739.001 2636.83,739.003C2636.29,737.095 2636,735.081 2636,733C2636,728.497 2637.36,724.307 2639.68,720.819L2639,714L2644.75,715.438C2648.44,712.653 2653.03,711 2658,711C2663.01,711 2667.63,712.678 2671.33,715.501L2678,713L2676.28,720.756C2678.63,724.257 2680,728.47 2680,733C2680,739.732 2676.97,745.762 2672.2,749.799L2673,757L2667.31,752.936C2664.48,754.26 2661.33,755 2658,755C2656.6,755 2655.23,754.869 2653.9,754.618C2653.97,755.236 2654,755.864 2654,756.5C2654,758.822 2653.55,761.039 2652.72,763.067C2653.14,763.023 2653.57,763 2654,763C2659.59,763 2664.3,766.835 2665.62,772.016L2672,776L2665.72,777.569C2664.55,782.959 2659.74,787 2654,787C2650.87,787 2648.02,785.798 2645.88,783.832L2641,786L2642.92,779.607C2642.33,778.189 2642,776.632 2642,775C2642,774.341 2642.05,773.695 2642.16,773.064C2640.38,773.671 2638.48,774 2636.5,774C2634.34,774 2632.27,773.607 2630.36,772.889L2626,776L2626,770.497Z" style="fill:none;stroke:rgb(27,27,27);stroke-width:4px;"/>
                <path d="M2626,770.497C2621.75,767.303 2619,762.22 2619,756.5C2619,753.436 2619.79,750.555 2621.18,748.049L2620,741L2626.32,742.265C2629.19,740.21 2632.71,739 2636.5,739C2636.61,739 2636.72,739.001 2636.83,739.003C2636.29,737.095 2636,735.081 2636,733C2636,728.497 2637.36,724.307 2639.68,720.819L2639,714L2644.75,715.438C2648.44,712.653 2653.03,711 2658,711C2663.01,711 2667.63,712.678 2671.33,715.501L2678,713L2676.28,720.756C2678.63,724.257 2680,728.47 2680,733C2680,739.732 2676.97,745.762 2672.2,749.799L2673,757L2667.31,752.936C2664.48,754.26 2661.33,755 2658,755C2656.6,755 2655.23,754.869 2653.9,754.618C2653.97,755.236 2654,755.864 2654,756.5C2654,758.822 2653.55,761.039 2652.72,763.067C2653.14,763.023 2653.57,763 2654,763C2659.59,763 2664.3,766.835 2665.62,772.016L2672,776L2665.72,777.569C2664.55,782.959 2659.74,787 2654,787C2650.87,787 2648.02,785.798 2645.88,783.832L2641,786L2642.92,779.607C2642.33,778.189 2642,776.632 2642,775C2642,774.341 2642.05,773.695 2642.16,773.064C2640.38,773.671 2638.48,774 2636.5,774C2634.34,774 2632.27,773.607 2630.36,772.889L2626,776L2626,770.497Z" style="fill:rgb(27,27,27);"/>
            </g>
            <g>
                <clipPath id="_clip1">
                    <path d="M3926,1171.5C3921.75,1168.3 3919,1163.22 3919,1157.5C3919,1154.44 3919.79,1151.56 3921.18,1149.05L3920,1142L3926.32,1143.27C3929.19,1141.21 3932.71,1140 3936.5,1140C3936.61,1140 3936.72,1140 3936.83,1140C3936.29,1138.1 3936,1136.08 3936,1134C3936,1129.5 3937.36,1125.31 3939.68,1121.82L3939,1115L3944.75,1116.44C3948.44,1113.65 3953.03,1112 3958,1112C3963.01,1112 3967.63,1113.68 3971.33,1116.5L3978,1114L3976.28,1121.76C3978.63,1125.26 3980,1129.47 3980,1134C3980,1140.73 3976.97,1146.76 3972.2,1150.8L3973,1158L3967.31,1153.94C3964.48,1155.26 3961.33,1156 3958,1156C3956.6,1156 3955.23,1155.87 3953.9,1155.62C3953.97,1156.24 3954,1156.86 3954,1157.5C3954,1159.82 3953.55,1162.04 3952.72,1164.07C3953.14,1164.02 3953.57,1164 3954,1164C3959.59,1164 3964.3,1167.84 3965.62,1173.02L3972,1177L3965.72,1178.57C3964.55,1183.96 3959.74,1188 3954,1188C3950.87,1188 3948.02,1186.8 3945.88,1184.83L3941,1187L3942.92,1180.61C3942.33,1179.19 3942,1177.63 3942,1176C3942,1175.34 3942.05,1174.69 3942.16,1174.06C3940.38,1174.67 3938.48,1175 3936.5,1175C3934.34,1175 3932.27,1174.61 3930.36,1173.89L3926,1177L3926,1171.5Z"/>
                </clipPath>
                <g clip-path="url(#_clip1)">
                    <g id="color_02" transform="matrix(1,0,0,1,1300,400)">
                        <rect x="2600" y="700" width="100" height="100" style="fill:rgb(144,103,182);"/>
                    </g>
                    <g id="color_01" transform="matrix(1.14286,0,0,1.14286,922.143,293)">
                        <path d="M2648.5,742C2650.43,742 2652,743.568 2652,745.5C2652,747.432 2650.43,749 2648.5,749C2646.57,749 2645,747.432 2645,745.5C2645,743.568 2646.57,742 2648.5,742ZM2650.69,725.375C2653.83,725.375 2656.38,727.923 2656.38,731.062C2656.38,734.202 2653.83,736.75 2650.69,736.75C2647.55,736.75 2645,734.202 2645,731.062C2645,727.923 2647.55,725.375 2650.69,725.375ZM2664.69,721C2666.38,721 2667.75,722.372 2667.75,724.062C2667.75,725.753 2666.38,727.125 2664.69,727.125C2663,727.125 2661.62,725.753 2661.62,724.062C2661.62,722.372 2663,721 2664.69,721ZM2639.31,728.875C2640.52,728.875 2641.5,729.855 2641.5,731.062C2641.5,732.27 2640.52,733.25 2639.31,733.25C2638.11,733.25 2637.12,732.27 2637.12,731.062C2637.12,729.855 2638.11,728.875 2639.31,728.875ZM2673,729.75C2676.86,729.75 2680,732.887 2680,736.75C2680,740.613 2676.86,743.75 2673,743.75C2669.14,743.75 2666,740.613 2666,736.75C2666,732.887 2669.14,729.75 2673,729.75ZM2640.19,756C2641.39,756 2642.38,756.98 2642.38,758.188C2642.38,759.395 2641.39,760.375 2640.19,760.375C2638.98,760.375 2638,759.395 2638,758.188C2638,756.98 2638.98,756 2640.19,756ZM2628.81,752.5C2630.99,752.5 2632.75,754.264 2632.75,756.438C2632.75,758.611 2630.99,760.375 2628.81,760.375C2626.64,760.375 2624.88,758.611 2624.88,756.438C2624.88,754.264 2626.64,752.5 2628.81,752.5ZM2627.06,764.75C2628.27,764.75 2629.25,765.73 2629.25,766.938C2629.25,768.145 2628.27,769.125 2627.06,769.125C2625.86,769.125 2624.88,768.145 2624.88,766.938C2624.88,765.73 2625.86,764.75 2627.06,764.75ZM2637.56,765.625C2639.74,765.625 2641.5,767.389 2641.5,769.563C2641.5,771.736 2639.74,773.5 2637.56,773.5C2635.39,773.5 2633.62,771.736 2633.62,769.563C2633.62,767.389 2635.39,765.625 2637.56,765.625ZM2647.62,777.875C2649.07,777.875 2650.25,779.051 2650.25,780.5C2650.25,781.949 2649.07,783.125 2647.62,783.125C2646.18,783.125 2645,781.949 2645,780.5C2645,779.051 2646.18,777.875 2647.62,777.875ZM2659,768.25C2661.41,768.25 2663.38,770.21 2663.38,772.625C2663.38,775.04 2661.41,777 2659,777C2656.59,777 2654.62,775.04 2654.62,772.625C2654.62,770.21 2656.59,768.25 2659,768.25ZM2661.62,744.625C2664.52,744.625 2666.88,746.977 2666.88,749.875C2666.88,752.773 2664.52,755.125 2661.62,755.125C2658.73,755.125 2656.38,752.773 2656.38,749.875C2656.38,746.977 2658.73,744.625 2661.62,744.625Z" style="fill:rgb(88,48,115);"/>
                    </g>
                </g>
            </g>
        </g>
    </g>
</svg>
