<?xml version="1.0" encoding="UTF-8" standalone="no"?>
<!DOCTYPE svg PUBLIC "-//W3C//DTD SVG 1.1//EN" "http://www.w3.org/Graphics/SVG/1.1/DTD/svg11.dtd">
<svg width="100%" height="100%" viewBox="0 0 100 100" version="1.1" xmlns="http://www.w3.org/2000/svg" xmlns:xlink="http://www.w3.org/1999/xlink" xml:space="preserve" xmlns:serif="http://www.serif.com/" style="fill-rule:evenodd;clip-rule:evenodd;stroke-linecap:square;stroke-linejoin:round;stroke-miterlimit:1.5;">
    <g transform="matrix(1,0,0,1,-2500,-700)">
        <g id="Poison" transform="matrix(1,0,0,1,-1400,-400)">
            <g>
                <g id="shadow" transform="matrix(1.02439,0,0,1.02439,1369.68,416.634)">
                    <circle cx="2534.5" cy="732.5" r="20.5" style="fill:none;stroke:rgb(27,27,27);stroke-width:6.83px;"/>
                    <circle cx="2534.5" cy="732.5" r="20.5" style="fill:rgb(27,27,27);"/>
                </g>
                <g id="color_02" transform="matrix(1.02439,0,0,1.02439,1369.68,416.634)">
                    <circle cx="2534.5" cy="732.5" r="20.5" style="fill:rgb(142,103,158);"/>
                </g>
                <g id="color_01" transform="matrix(0.439024,0,0,0.439024,2853.29,845.415)">
                    <circle cx="2534.5" cy="732.5" r="20.5" style="fill:rgb(91,44,108);"/>
                </g>
            </g>
            <g>
                <g id="shadow1" serif:id="shadow" transform="matrix(1.02439,0,0,1.02439,1337.68,382.634)">
                    <circle cx="2534.5" cy="732.5" r="20.5" style="fill:none;stroke:rgb(27,27,27);stroke-width:6.83px;"/>
                    <circle cx="2534.5" cy="732.5" r="20.5" style="fill:rgb(27,27,27);"/>
                </g>
                <g id="color_021" serif:id="color_02" transform="matrix(1.02439,0,0,1.02439,1337.68,382.634)">
                    <circle cx="2534.5" cy="732.5" r="20.5" style="fill:rgb(160,114,155);"/>
                </g>
                <g id="color_011" serif:id="color_01" transform="matrix(0.439024,0,0,0.439024,2821.29,811.415)">
                    <circle cx="2534.5" cy="732.5" r="20.5" style="fill:rgb(91,44,108);"/>
                </g>
            </g>
        </g>
    </g>
</svg>
