<?xml version="1.0" encoding="UTF-8" standalone="no"?><!DOCTYPE svg PUBLIC "-//W3C//DTD SVG 1.1//EN" "http://www.w3.org/Graphics/SVG/1.1/DTD/svg11.dtd"><svg width="100%" height="100%" viewBox="0 0 417 417" version="1.1" xmlns="http://www.w3.org/2000/svg" xmlns:xlink="http://www.w3.org/1999/xlink" xml:space="preserve" xmlns:serif="http://www.serif.com/" style="fill-rule:evenodd;clip-rule:evenodd;stroke-linecap:square;stroke-linejoin:round;stroke-miterlimit:1.5;"><g id="Power_Stone"><path id="glow" d="M261.184,262.5l-140.351,0c0,0 8.334,-66.493 8.334,-116.667c-0,-62.5 -33.334,-95.833 -33.334,-95.833c0,0 150,-8.333 183.334,66.667c14.159,31.859 14.369,94.012 13.406,125.906l74.094,74.094l-37.5,-0l-12.5,50l-58.334,-0l-12.5,-50l-16.666,-0l-0,50l-41.667,-0l0,-50l16.667,-0l17.544,-16.667l-121.711,0l-0,-20.833l143.64,-0l17.544,-16.667Z" style="fill:none;stroke:#aef786;stroke-width:50px;"/><path d="M261.184,262.5l-140.351,0c0,0 8.334,-66.493 8.334,-116.667c-0,-62.5 -33.334,-95.833 -33.334,-95.833c0,0 150,-8.333 183.334,66.667c14.159,31.859 14.369,94.012 13.406,125.906l74.094,74.094l-37.5,-0l-12.5,50l-58.334,-0l-12.5,-50l-16.666,-0l-0,50l-41.667,-0l0,-50l16.667,-0l17.544,-16.667l-121.711,0l-0,-20.833l143.64,-0l17.544,-16.667Z" style="fill:#aef786;"/><path id="shadow" d="M261.184,262.5l-140.351,0c0,0 8.334,-66.493 8.334,-116.667c-0,-62.5 -33.334,-95.833 -33.334,-95.833c0,0 150,-8.333 183.334,66.667c14.159,31.859 14.369,94.012 13.406,125.906l74.094,74.094l-37.5,-0l-12.5,50l-58.334,-0l-12.5,-50l-16.666,-0l-0,50l-41.667,-0l0,-50l16.667,-0l17.544,-16.667l-121.711,0l-0,-20.833l143.64,-0l17.544,-16.667Z" style="fill:none;stroke:#1b1b1b;stroke-width:16.67px;"/><path d="M261.184,262.5l-140.351,0c0,0 8.334,-66.493 8.334,-116.667c-0,-62.5 -33.334,-95.833 -33.334,-95.833c0,0 150,-8.333 183.334,66.667c14.159,31.859 14.369,94.012 13.406,125.906l74.094,74.094l-37.5,-0l-12.5,50l-58.334,-0l-12.5,-50l-16.666,-0l-0,50l-41.667,-0l0,-50l16.667,-0l17.544,-16.667l-121.711,0l-0,-20.833l143.64,-0l17.544,-16.667Z" style="fill:#1b1b1b;"/><g><path id="color_02" d="M316.667,279.167l-0,20.833l-216.667,-0l-0,-20.833l216.667,-0Zm-87.5,37.5l-0,50l-41.667,-0l-0,-50l41.667,-0Z" style="fill:#987c60;"/><path id="color_01" d="M291.667,262.5l-170.834,0c0,0 8.334,-66.493 8.334,-116.667c-0,-62.5 -33.334,-95.833 -33.334,-95.833c0,0 150,-8.333 183.334,66.667c19.56,44.011 12.5,145.833 12.5,145.833" style="fill:#cdcdcd;"/></g><g><path id="color_021" serif:id="color_02" d="M200,137.5l-4.167,0l0,-25l25,0l0,25l-4.166,0l-0,37.5l-16.667,0l0,-37.5Zm16.667,58.333l4.166,0l0,8.334l-25,-0l0,-8.334l4.167,0l0,-12.5l16.667,0l-0,12.5Zm-4.167,-95.833l0,8.333l-8.333,0l-0,-8.333l8.333,0Zm8.333,108.333l0,8.334l-25,-0l0,-8.334l25,0Zm0,12.5l0,8.334l-25,-0l0,-8.334l25,0Zm0,12.5l0,8.334l-25,-0l0,-8.334l25,0Zm8.334,-95.833l-0,-25l8.333,0c0,0 12.5,4.167 20.833,12.5c8.334,8.333 12.5,20.833 12.5,20.833l0,12.5c0,0 -12.5,-12.5 -20.833,-16.666c-8.333,-4.167 -12.5,-4.167 -12.5,-4.167l-8.333,0Zm-41.667,0l-8.333,0c-0,0 -4.167,0 -12.5,4.167c-8.334,4.166 -20.834,16.666 -20.834,16.666l0,-12.5c0,0 4.167,-12.5 12.5,-20.833c8.334,-8.333 20.834,-12.5 20.834,-12.5l8.333,0l-0,25Z" style="fill:none;stroke:#663b3d;stroke-width:25px;stroke-linecap:round;"/><path d="M200,137.5l-4.167,0l0,-25l25,0l0,25l-4.166,0l-0,37.5l-16.667,0l0,-37.5Zm16.667,58.333l4.166,0l0,8.334l-25,-0l0,-8.334l4.167,0l0,-12.5l16.667,0l-0,12.5Zm-4.167,-95.833l0,8.333l-8.333,0l-0,-8.333l8.333,0Zm8.333,108.333l0,8.334l-25,-0l0,-8.334l25,0Zm0,12.5l0,8.334l-25,-0l0,-8.334l25,0Zm0,12.5l0,8.334l-25,-0l0,-8.334l25,0Zm8.334,-95.833l-0,-25l8.333,0c0,0 12.5,4.167 20.833,12.5c8.334,8.333 12.5,20.833 12.5,20.833l0,12.5c0,0 -12.5,-12.5 -20.833,-16.666c-8.333,-4.167 -12.5,-4.167 -12.5,-4.167l-8.333,0Zm-41.667,0l-8.333,0c-0,0 -4.167,0 -12.5,4.167c-8.334,4.166 -20.834,16.666 -20.834,16.666l0,-12.5c0,0 4.167,-12.5 12.5,-20.833c8.334,-8.333 20.834,-12.5 20.834,-12.5l8.333,0l-0,25Z" style="fill:#663b3d;"/><path id="color_011" serif:id="color_01" d="M200,137.5l-4.167,0l0,-25l25,0l0,25l-4.166,0l-0,37.5l-16.667,0l0,-37.5Zm16.667,58.333l4.166,0l0,8.334l-25,-0l0,-8.334l4.167,0l0,-12.5l16.667,0l-0,12.5Zm-4.167,-95.833l0,8.333l-8.333,0l-0,-8.333l8.333,0Zm8.333,108.333l0,8.334l-25,-0l0,-8.334l25,0Zm0,12.5l0,8.334l-25,-0l0,-8.334l25,0Zm0,12.5l0,8.334l-25,-0l0,-8.334l25,0Zm8.334,-95.833l-0,-25l8.333,0c0,0 12.5,4.167 20.833,12.5c8.334,8.333 12.5,20.833 12.5,20.833l0,12.5c0,0 -12.5,-12.5 -20.833,-16.666c-8.333,-4.167 -12.5,-4.167 -12.5,-4.167l-8.333,0Zm-41.667,0l-8.333,0c-0,0 -4.167,0 -12.5,4.167c-8.334,4.166 -20.834,16.666 -20.834,16.666l0,-12.5c0,0 4.167,-12.5 12.5,-20.833c8.334,-8.333 20.834,-12.5 20.834,-12.5l8.333,0l-0,25Z" style="fill:#eeb5b5;"/></g><g><path id="color_022" serif:id="color_02" d="M297.073,226.239l-1.24,73.761l-62.5,-0l0,33.333l-50,0l0,-12.5l104.167,-104.166l9.573,9.572Z" style="fill:#1b1b1b;"/><path id="color_012" serif:id="color_01" d="M245.833,316.667l12.5,50l58.334,-0l12.5,-50l37.5,-0l-79.167,-79.167l-83.333,79.167l41.666,-0Z" style="fill:#7ac854;"/></g></g></svg>