<?xml version="1.0" encoding="UTF-8" standalone="no"?>
<!DOCTYPE svg PUBLIC "-//W3C//DTD SVG 1.1//EN" "http://www.w3.org/Graphics/SVG/1.1/DTD/svg11.dtd">
<svg width="100%" height="100%" viewBox="0 0 100 100" version="1.1" xmlns="http://www.w3.org/2000/svg" xmlns:xlink="http://www.w3.org/1999/xlink" xml:space="preserve" xmlns:serif="http://www.serif.com/" style="fill-rule:evenodd;clip-rule:evenodd;stroke-linecap:square;stroke-linejoin:round;stroke-miterlimit:1.5;">
    <g transform="matrix(1,0,0,1,-3600,-700)">
        <g id="Recovery_Speed" transform="matrix(1,0,0,1,-300,-400)">
            <g id="glow" transform="matrix(1,0,0,1,300,400)">
                <path d="M3658,719L3665,719L3665,725C3665,725 3658,727 3658,733C3658,734.944 3660,737 3662,738C3664,739 3668,739 3671,741C3674,743 3674,746 3674,746L3674,766C3674,772 3660,787 3657,787L3643,787C3640,787 3626,772 3626,766L3626,746C3626,746 3626,743 3629,741C3632,739 3636,739 3638,738C3640,737 3642,734.944 3642,733C3642,727 3635,725 3635,725L3635,719L3642,719L3642,713L3658,713L3658,719Z" style="fill:none;stroke:rgb(174,247,134);stroke-width:12px;"/>
                <path d="M3658,719L3665,719L3665,725C3665,725 3658,727 3658,733C3658,734.944 3660,737 3662,738C3664,739 3668,739 3671,741C3674,743 3674,746 3674,746L3674,766C3674,772 3660,787 3657,787L3643,787C3640,787 3626,772 3626,766L3626,746C3626,746 3626,743 3629,741C3632,739 3636,739 3638,738C3640,737 3642,734.944 3642,733C3642,727 3635,725 3635,725L3635,719L3642,719L3642,713L3658,713L3658,719Z" style="fill:rgb(174,247,134);"/>
            </g>
            <g id="shadow" transform="matrix(1,0,0,1,300,400)">
                <path d="M3658,719L3665,719L3665,725C3665,725 3658,727 3658,733C3658,734.944 3660,737 3662,738C3664,739 3668,739 3671,741C3674,743 3674,746 3674,746L3674,766C3674,772 3660,787 3657,787L3643,787C3640,787 3626,772 3626,766L3626,746C3626,746 3626,743 3629,741C3632,739 3636,739 3638,738C3640,737 3642,734.944 3642,733C3642,727 3635,725 3635,725L3635,719L3642,719L3642,713L3658,713L3658,719Z" style="fill:none;stroke:rgb(27,27,27);stroke-width:4px;"/>
                <path d="M3658,719L3665,719L3665,725C3665,725 3658,727 3658,733C3658,734.944 3660,737 3662,738C3664,739 3668,739 3671,741C3674,743 3674,746 3674,746L3674,766C3674,772 3660,787 3657,787L3643,787C3640,787 3626,772 3626,766L3626,746C3626,746 3626,743 3629,741C3632,739 3636,739 3638,738C3640,737 3642,734.944 3642,733C3642,727 3635,725 3635,725L3635,719L3642,719L3642,713L3658,713L3658,719Z" style="fill:rgb(27,27,27);"/>
            </g>
            <g id="color_03" transform="matrix(1,0,0,1,300,400)">
                <path d="M3657,787L3643,787C3640,787 3626,772 3626,766L3626,746C3626,746 3626,743 3629,741C3632,739 3636,739 3638,738C3640,737 3642,734.944 3642,733C3642,727 3635,725 3635,725L3635,719L3665,719L3665,725C3665,725 3658,727 3658,733C3658,734.944 3660,737 3662,738C3664,739 3668,739 3671,741C3674,743 3674,746 3674,746L3674,766C3674,772 3660,787 3657,787Z" style="fill:rgb(196,172,110);"/>
            </g>
            <g id="color_02" transform="matrix(1,0,0,1,700,413)">
                <path d="M3243,748L3245,761L3255,761L3257,748L3267,748L3250,730L3233,748L3243,748Z" style="fill:rgb(68,117,61);"/>
            </g>
            <g id="color_01" transform="matrix(1,0,0,1,300,400)">
                <rect x="3642" y="713" width="16" height="10" style="fill:rgb(119,97,78);"/>
            </g>
        </g>
    </g>
</svg>
