<?xml version="1.0" encoding="UTF-8" standalone="no"?>
<!DOCTYPE svg PUBLIC "-//W3C//DTD SVG 1.1//EN" "http://www.w3.org/Graphics/SVG/1.1/DTD/svg11.dtd">
<svg width="100%" height="100%" viewBox="0 0 100 100" version="1.1" xmlns="http://www.w3.org/2000/svg" xmlns:xlink="http://www.w3.org/1999/xlink" xml:space="preserve" xmlns:serif="http://www.serif.com/" style="fill-rule:evenodd;clip-rule:evenodd;stroke-linecap:square;stroke-linejoin:round;stroke-miterlimit:1.5;">
    <g transform="matrix(1,0,0,1,-3800,-1000)">
        <g id="Restore_Sharpness" transform="matrix(1,0,0,1,-100,-100)">
            <g id="glow" transform="matrix(0.78125,0,0,0.894737,3272.16,1109.26)">
                <path d="M840.76,69L819,69L819,12L821.56,12L840.76,28.765L840.76,69ZM852.28,74.588L853.56,74.588L857.4,77.941L883,77.941L883,88L852.28,88L852.28,74.588ZM872.76,35.471L876.6,35.471L883,41.059L883,74.588L874.04,74.588L874,71L877.88,67.882L877.88,44.412L872.76,39.941L872.76,35.471ZM870.2,74.588L857.4,74.588L852.28,70L852.28,42.176L859.96,35.471L868.92,35.471L868.92,42.176L874.04,46.647L874.005,66L870.2,69L870.2,74.588ZM829.24,72.353L829.24,88L819,88L819,72.353L829.24,72.353ZM851.64,3.059C851.64,3.059 852.28,7.529 854.84,9.765C857.4,12 862.52,13.118 862.52,13.118C862.52,13.118 857.4,14.235 854.84,16.471C852.28,18.706 851.64,23.176 851.64,23.176C851.64,23.176 851,18.706 848.44,16.471C845.88,14.235 840.76,13.118 840.76,13.118C840.76,13.118 845.88,12 848.44,9.765C851,7.529 851.64,3.059 851.64,3.059ZM879.441,32.059L863.8,28.765L879.441,25.47C880.555,22.356 883.204,19.895 886.547,18.873L890.01,3.059L893.472,18.873C896.815,19.895 899.464,22.356 900.578,25.47L916.219,28.765L900.578,32.059C899.464,35.174 896.815,37.634 893.472,38.656L890.01,54.471L886.547,38.656C883.204,37.634 880.555,35.174 879.441,32.059Z" style="fill:none;stroke:rgb(174,247,134);stroke-width:14.29px;"/>
                <path d="M840.76,69L819,69L819,12L821.56,12L840.76,28.765L840.76,69ZM852.28,74.588L853.56,74.588L857.4,77.941L883,77.941L883,88L852.28,88L852.28,74.588ZM872.76,35.471L876.6,35.471L883,41.059L883,74.588L874.04,74.588L874,71L877.88,67.882L877.88,44.412L872.76,39.941L872.76,35.471ZM870.2,74.588L857.4,74.588L852.28,70L852.28,42.176L859.96,35.471L868.92,35.471L868.92,42.176L874.04,46.647L874.005,66L870.2,69L870.2,74.588ZM829.24,72.353L829.24,88L819,88L819,72.353L829.24,72.353ZM851.64,3.059C851.64,3.059 852.28,7.529 854.84,9.765C857.4,12 862.52,13.118 862.52,13.118C862.52,13.118 857.4,14.235 854.84,16.471C852.28,18.706 851.64,23.176 851.64,23.176C851.64,23.176 851,18.706 848.44,16.471C845.88,14.235 840.76,13.118 840.76,13.118C840.76,13.118 845.88,12 848.44,9.765C851,7.529 851.64,3.059 851.64,3.059ZM879.441,32.059L863.8,28.765L879.441,25.47C880.555,22.356 883.204,19.895 886.547,18.873L890.01,3.059L893.472,18.873C896.815,19.895 899.464,22.356 900.578,25.47L916.219,28.765L900.578,32.059C899.464,35.174 896.815,37.634 893.472,38.656L890.01,54.471L886.547,38.656C883.204,37.634 880.555,35.174 879.441,32.059Z" style="fill:rgb(174,247,134);"/>
            </g>
            <g id="shadow" transform="matrix(0.78125,0,0,0.894737,3272.16,1109.26)">
                <path d="M840.76,69L819,69L819,12L821.56,12L840.76,28.765L840.76,69ZM852.28,74.588L853.56,74.588L857.4,77.941L883,77.941L883,88L852.28,88L852.28,74.588ZM872.76,35.471L876.6,35.471L883,41.059L883,74.588L874.04,74.588L874,71L877.88,67.882L877.88,44.412L872.76,39.941L872.76,35.471ZM870.2,74.588L857.4,74.588L852.28,70L852.28,42.176L859.96,35.471L868.92,35.471L868.92,42.176L874.04,46.647L874.005,66L870.2,69L870.2,74.588ZM829.24,72.353L829.24,88L819,88L819,72.353L829.24,72.353ZM851.64,3.059C851.64,3.059 852.28,7.529 854.84,9.765C857.4,12 862.52,13.118 862.52,13.118C862.52,13.118 857.4,14.235 854.84,16.471C852.28,18.706 851.64,23.176 851.64,23.176C851.64,23.176 851,18.706 848.44,16.471C845.88,14.235 840.76,13.118 840.76,13.118C840.76,13.118 845.88,12 848.44,9.765C851,7.529 851.64,3.059 851.64,3.059ZM879.441,32.059L863.8,28.765L879.441,25.47C880.555,22.356 883.204,19.895 886.547,18.873L890.01,3.059L893.472,18.873C896.815,19.895 899.464,22.356 900.578,25.47L916.219,28.765L900.578,32.059C899.464,35.174 896.815,37.634 893.472,38.656L890.01,54.471L886.547,38.656C883.204,37.634 880.555,35.174 879.441,32.059Z" style="fill:none;stroke:rgb(27,27,27);stroke-width:4.76px;"/>
                <path d="M840.76,69L819,69L819,12L821.56,12L840.76,28.765L840.76,69ZM852.28,74.588L853.56,74.588L857.4,77.941L883,77.941L883,88L852.28,88L852.28,74.588ZM872.76,35.471L876.6,35.471L883,41.059L883,74.588L874.04,74.588L874,71L877.88,67.882L877.88,44.412L872.76,39.941L872.76,35.471ZM870.2,74.588L857.4,74.588L852.28,70L852.28,42.176L859.96,35.471L868.92,35.471L868.92,42.176L874.04,46.647L874.005,66L870.2,69L870.2,74.588ZM829.24,72.353L829.24,88L819,88L819,72.353L829.24,72.353ZM851.64,3.059C851.64,3.059 852.28,7.529 854.84,9.765C857.4,12 862.52,13.118 862.52,13.118C862.52,13.118 857.4,14.235 854.84,16.471C852.28,18.706 851.64,23.176 851.64,23.176C851.64,23.176 851,18.706 848.44,16.471C845.88,14.235 840.76,13.118 840.76,13.118C840.76,13.118 845.88,12 848.44,9.765C851,7.529 851.64,3.059 851.64,3.059ZM879.441,32.059L863.8,28.765L879.441,25.47C880.555,22.356 883.204,19.895 886.547,18.873L890.01,3.059L893.472,18.873C896.815,19.895 899.464,22.356 900.578,25.47L916.219,28.765L900.578,32.059C899.464,35.174 896.815,37.634 893.472,38.656L890.01,54.471L886.547,38.656C883.204,37.634 880.555,35.174 879.441,32.059Z" style="fill:rgb(27,27,27);"/>
            </g>
            <g transform="matrix(0.78125,0,0,0.894737,3272.16,1109.26)">
                <g id="color_03" transform="matrix(1,0,0,1,-300,0)">
                    <path d="M1152.28,74.588L1153.56,74.588L1157.4,77.941L1183,77.941L1183,88L1152.28,88L1152.28,74.588ZM1133.08,69L1119,69L1119,12L1121.56,12L1135,23.735L1125.4,31L1134.36,38.824L1125.4,46.647L1134.36,54.471L1125.4,62.294L1133.08,69Z" style="fill:rgb(195,181,101);"/>
                </g>
                <g id="color_02" transform="matrix(1,0,0,1,-300,0)">
                    <path d="M1172.76,35.471L1176.6,35.471L1183,41.059L1183,74.588L1174.04,74.588L1174,71L1177.88,67.882L1177.88,44.412L1172.76,39.941L1172.76,35.471ZM1170.2,74.588L1157.4,74.588L1152.28,70L1152.28,42.176L1159.96,35.471L1168.92,35.471L1168.92,42.176L1174.04,46.647L1174.01,66L1170.2,69L1170.2,74.588ZM1129.24,72.353L1129.24,88L1119,88L1119,72.353L1129.24,72.353ZM1151.64,3.059C1151.64,3.059 1152.28,7.529 1154.84,9.765C1157.4,12 1162.52,13.118 1162.52,13.118C1162.52,13.118 1157.4,14.235 1154.84,16.471C1152.28,18.706 1151.64,23.176 1151.64,23.176C1151.64,23.176 1151,18.706 1148.44,16.471C1145.88,14.235 1140.76,13.118 1140.76,13.118C1140.76,13.118 1145.88,12 1148.44,9.765C1151,7.529 1151.64,3.059 1151.64,3.059ZM1135,23.735L1140.76,28.765L1140.76,69L1135.64,69L1127.96,62.294L1136.86,54.526L1127.96,46.647L1136.92,38.824L1127.96,31L1135,23.735Z" style="fill:rgb(238,223,143);"/>
                </g>
                <g id="color_01" transform="matrix(1.28,0,0,1.11765,-4060.36,-1128)">
                    <path d="M3822,1071L3816,1065L3823,1058L3816,1051L3823,1044L3816,1037L3823.5,1029.5L3825.5,1031.5L3820,1037L3827,1044L3820,1051L3826.95,1058.05L3820,1065L3826,1071L3822,1071Z" style="fill:rgb(155,139,59);"/>
                </g>
            </g>
            <g transform="matrix(1.02381,0,0,1.09524,-95,-108.095)">
                <g id="color_021" serif:id="color_02" transform="matrix(1,0,0,1,200,390)">
                    <path d="M3759.94,747.691L3748,745L3759.94,742.309C3760.78,739.764 3762.81,737.754 3765.36,736.919L3768,724L3770.64,736.919C3773.19,737.754 3775.22,739.764 3776.06,742.309L3788,745L3776.06,747.691C3775.22,750.236 3773.19,752.246 3770.64,753.081L3768,766L3765.36,753.081C3762.81,752.246 3760.78,750.236 3759.94,747.691Z" style="fill:rgb(184,212,148);"/>
                </g>
                <g id="color_011" serif:id="color_01" transform="matrix(0.571429,0,0,0.571429,1836,695.571)">
                    <circle cx="3731" cy="769" r="7" style="fill:rgb(241,240,225);"/>
                </g>
            </g>
        </g>
    </g>
</svg>
