<?xml version="1.0" encoding="UTF-8" standalone="no"?>
<!DOCTYPE svg PUBLIC "-//W3C//DTD SVG 1.1//EN" "http://www.w3.org/Graphics/SVG/1.1/DTD/svg11.dtd">
<svg width="100%" height="100%" viewBox="0 0 100 100" version="1.1" xmlns="http://www.w3.org/2000/svg" xmlns:xlink="http://www.w3.org/1999/xlink" xml:space="preserve" xmlns:serif="http://www.serif.com/" style="fill-rule:evenodd;clip-rule:evenodd;stroke-linecap:square;stroke-linejoin:round;stroke-miterlimit:1.5;">
    <g transform="matrix(1,0,0,1,-3700,-800)">
        <g id="Self_Improvement_S" transform="matrix(1,0,0,1,-200,-300)">
            <g id="glow" transform="matrix(1,0,0,1,313,100)">
                <path d="M3634,1012L3642,1012L3645,1014L3645,1018L3639,1018L3639,1040L3623,1040C3617,1040 3617,1034 3617,1034L3617,1028L3634,1028L3634,1012ZM3644,1022L3655,1022C3655,1022 3655,1023 3658,1025C3661,1027 3664,1027 3664,1027L3673,1027C3673,1027 3669,1039 3662.5,1039C3655,1039 3650,1032 3650,1032L3650,1080C3650,1080 3650,1088 3642,1088L3619,1088C3611,1088 3611,1080 3611,1080L3611,1061C3611,1061 3611,1060 3612,1060L3638.05,1060C3639,1060 3639,1061 3639,1061L3639,1077L3625,1077C3624,1077 3624,1074.5 3624,1074.5C3624,1074.5 3624,1072 3625,1072L3632,1072L3632,1068C3632,1068 3632,1067 3631,1067L3619,1067C3618,1067 3618,1068 3618,1068L3618,1080C3618,1080 3618,1082 3620,1082L3643,1082C3644,1082 3644,1081 3644,1081L3644,1022Z" style="fill:none;stroke:rgb(174,247,134);stroke-width:12px;"/>
                <path d="M3634,1012L3642,1012L3645,1014L3645,1018L3639,1018L3639,1040L3623,1040C3617,1040 3617,1034 3617,1034L3617,1028L3634,1028L3634,1012ZM3644,1022L3655,1022C3655,1022 3655,1023 3658,1025C3661,1027 3664,1027 3664,1027L3673,1027C3673,1027 3669,1039 3662.5,1039C3655,1039 3650,1032 3650,1032L3650,1080C3650,1080 3650,1088 3642,1088L3619,1088C3611,1088 3611,1080 3611,1080L3611,1061C3611,1061 3611,1060 3612,1060L3638.05,1060C3639,1060 3639,1061 3639,1061L3639,1077L3625,1077C3624,1077 3624,1074.5 3624,1074.5C3624,1074.5 3624,1072 3625,1072L3632,1072L3632,1068C3632,1068 3632,1067 3631,1067L3619,1067C3618,1067 3618,1068 3618,1068L3618,1080C3618,1080 3618,1082 3620,1082L3643,1082C3644,1082 3644,1081 3644,1081L3644,1022Z" style="fill:rgb(174,247,134);"/>
            </g>
            <g id="shadow" transform="matrix(1,0,0,1,313,100)">
                <path d="M3634,1012L3642,1012L3645,1014L3645,1018L3639,1018L3639,1040L3623,1040C3617,1040 3617,1034 3617,1034L3617,1028L3634,1028L3634,1012ZM3644,1022L3655,1022C3655,1022 3655,1023 3658,1025C3661,1027 3664,1027 3664,1027L3673,1027C3673,1027 3669,1039 3662.5,1039C3655,1039 3650,1032 3650,1032L3650,1080C3650,1080 3650,1088 3642,1088L3619,1088C3611,1088 3611,1080 3611,1080L3611,1061C3611,1061 3611,1060 3612,1060L3638.05,1060C3639,1060 3639,1061 3639,1061L3639,1077L3625,1077C3624,1077 3624,1074.5 3624,1074.5C3624,1074.5 3624,1072 3625,1072L3632,1072L3632,1068C3632,1068 3632,1067 3631,1067L3619,1067C3618,1067 3618,1068 3618,1068L3618,1080C3618,1080 3618,1082 3620,1082L3643,1082C3644,1082 3644,1081 3644,1081L3644,1022Z" style="fill:none;stroke:rgb(27,27,27);stroke-width:4px;"/>
                <path d="M3634,1012L3642,1012L3645,1014L3645,1018L3639,1018L3639,1040L3623,1040C3617,1040 3617,1034 3617,1034L3617,1028L3634,1028L3634,1012ZM3644,1022L3655,1022C3655,1022 3655,1023 3658,1025C3661,1027 3664,1027 3664,1027L3673,1027C3673,1027 3669,1039 3662.5,1039C3655,1039 3650,1032 3650,1032L3650,1080C3650,1080 3650,1088 3642,1088L3619,1088C3611,1088 3611,1080 3611,1080L3611,1061C3611,1061 3611,1060 3612,1060L3638.05,1060C3639,1060 3639,1061 3639,1061L3639,1077L3625,1077C3624,1077 3624,1074.5 3624,1074.5C3624,1074.5 3624,1072 3625,1072L3632,1072L3632,1068C3632,1068 3632,1067 3631,1067L3619,1067C3618,1067 3618,1068 3618,1068L3618,1080C3618,1080 3618,1082 3620,1082L3643,1082C3644,1082 3644,1081 3644,1081L3644,1022Z" style="fill:rgb(27,27,27);"/>
            </g>
            <g id="color_02" transform="matrix(1,0,0,1,313,100)">
                <path d="M3634,1012L3634,1028L3617,1028L3617,1034C3617,1034 3617,1040 3623,1040L3639,1040L3639,1018L3645,1018L3645,1014L3642,1012L3634,1012Z" style="fill:rgb(117,153,191);"/>
            </g>
            <g id="color_01" transform="matrix(1,0,0,1,499,100)">
                <path d="M3458,1022L3458,1081C3458,1081 3458,1082 3457,1082L3434,1082C3432,1082 3432,1080 3432,1080L3432,1068C3432,1068 3432,1067 3433,1067L3445,1067C3446,1067 3446,1068 3446,1068L3446,1072L3439,1072C3438,1072 3438,1074.5 3438,1074.5C3438,1074.5 3438,1077 3439,1077L3453,1077L3453,1061C3453,1061 3453,1060 3452.05,1060L3426,1060C3425,1060 3425,1061 3425,1061L3425,1080C3425,1080 3425,1088 3433,1088L3456,1088C3464,1088 3464,1080 3464,1080L3464,1032C3464,1032 3469,1039 3476.5,1039C3483,1039 3487,1027 3487,1027L3478,1027C3478,1027 3475,1027 3472,1025C3469,1023 3469,1022 3469,1022L3458,1022Z" style="fill:rgb(82,123,160);"/>
            </g>
        </g>
    </g>
</svg>
