<?xml version="1.0" encoding="UTF-8" standalone="no"?>
<!DOCTYPE svg PUBLIC "-//W3C//DTD SVG 1.1//EN" "http://www.w3.org/Graphics/SVG/1.1/DTD/svg11.dtd">
<svg width="100%" height="100%" viewBox="0 0 100 100" version="1.1" xmlns="http://www.w3.org/2000/svg" xmlns:xlink="http://www.w3.org/1999/xlink" xml:space="preserve" xmlns:serif="http://www.serif.com/" style="fill-rule:evenodd;clip-rule:evenodd;stroke-linecap:square;stroke-linejoin:round;stroke-miterlimit:1.5;">
    <g transform="matrix(1,0,0,1,-3800,-800)">
        <g id="Self_Improvement_L" transform="matrix(1,0,0,1,-100,-300)">
            <g id="glow" transform="matrix(1,0,0,1,100,300)">
                <path d="M3853,840L3853,881C3853,881 3852,888 3847,888L3831,888C3825,888 3824,881 3824,881L3824,865C3824,865 3824,864 3825,864L3842,864C3843,864 3843,865 3843,865L3843,878C3843,879 3842,879 3842,879L3835,879C3834,879 3834,876.5 3834,876.5C3834,876.5 3834,874 3835,874L3838,874L3838,871C3838,871 3838,870 3837,870L3831,870C3830,870 3830,871 3830,871L3830,881C3830,881 3830,883 3832,883L3846,883L3847,882L3847,832L3884,832L3884,881C3884,881 3883,888 3878,888L3862,888C3856,888 3855,881 3855,881L3855,865C3855,865 3855,864 3856,864L3873,864C3874,864 3874,865 3874,865L3874,878C3874,879 3873,879 3873,879L3866,879C3865,879 3865,876.5 3865,876.5C3865,876.5 3865,874 3866,874L3869,874L3869,871C3869,871 3869,870 3868,870L3862,870C3861,870 3861,871 3861,871L3861,881C3861,881 3861,883 3863,883L3877,883L3878,882L3878,840L3853,840ZM3827.94,818L3828,839C3828,839 3828,840 3827,840L3818,840C3813,840 3813,835 3813,835L3813,829C3813,828 3814,828 3814,828L3822,828L3822,812L3843,812L3843,818L3842.94,818L3843,839C3843,839 3843,840 3842,840L3833,840C3828,840 3828,835 3828,835L3828,829C3828,828 3829,828 3829,828L3837,828L3837,818L3827.94,818Z" style="fill:none;stroke:rgb(174,247,134);stroke-width:12px;"/>
                <path d="M3853,840L3853,881C3853,881 3852,888 3847,888L3831,888C3825,888 3824,881 3824,881L3824,865C3824,865 3824,864 3825,864L3842,864C3843,864 3843,865 3843,865L3843,878C3843,879 3842,879 3842,879L3835,879C3834,879 3834,876.5 3834,876.5C3834,876.5 3834,874 3835,874L3838,874L3838,871C3838,871 3838,870 3837,870L3831,870C3830,870 3830,871 3830,871L3830,881C3830,881 3830,883 3832,883L3846,883L3847,882L3847,832L3884,832L3884,881C3884,881 3883,888 3878,888L3862,888C3856,888 3855,881 3855,881L3855,865C3855,865 3855,864 3856,864L3873,864C3874,864 3874,865 3874,865L3874,878C3874,879 3873,879 3873,879L3866,879C3865,879 3865,876.5 3865,876.5C3865,876.5 3865,874 3866,874L3869,874L3869,871C3869,871 3869,870 3868,870L3862,870C3861,870 3861,871 3861,871L3861,881C3861,881 3861,883 3863,883L3877,883L3878,882L3878,840L3853,840ZM3827.94,818L3828,839C3828,839 3828,840 3827,840L3818,840C3813,840 3813,835 3813,835L3813,829C3813,828 3814,828 3814,828L3822,828L3822,812L3843,812L3843,818L3842.94,818L3843,839C3843,839 3843,840 3842,840L3833,840C3828,840 3828,835 3828,835L3828,829C3828,828 3829,828 3829,828L3837,828L3837,818L3827.94,818Z" style="fill:rgb(174,247,134);"/>
            </g>
            <g id="shadow" transform="matrix(1,0,0,1,100,300)">
                <path d="M3853,840L3853,881C3853,881 3852,888 3847,888L3831,888C3825,888 3824,881 3824,881L3824,865C3824,865 3824,864 3825,864L3842,864C3843,864 3843,865 3843,865L3843,878C3843,879 3842,879 3842,879L3835,879C3834,879 3834,876.5 3834,876.5C3834,876.5 3834,874 3835,874L3838,874L3838,871C3838,871 3838,870 3837,870L3831,870C3830,870 3830,871 3830,871L3830,881C3830,881 3830,883 3832,883L3846,883L3847,882L3847,832L3884,832L3884,881C3884,881 3883,888 3878,888L3862,888C3856,888 3855,881 3855,881L3855,865C3855,865 3855,864 3856,864L3873,864C3874,864 3874,865 3874,865L3874,878C3874,879 3873,879 3873,879L3866,879C3865,879 3865,876.5 3865,876.5C3865,876.5 3865,874 3866,874L3869,874L3869,871C3869,871 3869,870 3868,870L3862,870C3861,870 3861,871 3861,871L3861,881C3861,881 3861,883 3863,883L3877,883L3878,882L3878,840L3853,840ZM3827.94,818L3828,839C3828,839 3828,840 3827,840L3818,840C3813,840 3813,835 3813,835L3813,829C3813,828 3814,828 3814,828L3822,828L3822,812L3843,812L3843,818L3842.94,818L3843,839C3843,839 3843,840 3842,840L3833,840C3828,840 3828,835 3828,835L3828,829C3828,828 3829,828 3829,828L3837,828L3837,818L3827.94,818Z" style="fill:none;stroke:rgb(27,27,27);stroke-width:4px;"/>
                <path d="M3853,840L3853,881C3853,881 3852,888 3847,888L3831,888C3825,888 3824,881 3824,881L3824,865C3824,865 3824,864 3825,864L3842,864C3843,864 3843,865 3843,865L3843,878C3843,879 3842,879 3842,879L3835,879C3834,879 3834,876.5 3834,876.5C3834,876.5 3834,874 3835,874L3838,874L3838,871C3838,871 3838,870 3837,870L3831,870C3830,870 3830,871 3830,871L3830,881C3830,881 3830,883 3832,883L3846,883L3847,882L3847,832L3884,832L3884,881C3884,881 3883,888 3878,888L3862,888C3856,888 3855,881 3855,881L3855,865C3855,865 3855,864 3856,864L3873,864C3874,864 3874,865 3874,865L3874,878C3874,879 3873,879 3873,879L3866,879C3865,879 3865,876.5 3865,876.5C3865,876.5 3865,874 3866,874L3869,874L3869,871C3869,871 3869,870 3868,870L3862,870C3861,870 3861,871 3861,871L3861,881C3861,881 3861,883 3863,883L3877,883L3878,882L3878,840L3853,840ZM3827.94,818L3828,839C3828,839 3828,840 3827,840L3818,840C3813,840 3813,835 3813,835L3813,829C3813,828 3814,828 3814,828L3822,828L3822,812L3843,812L3843,818L3842.94,818L3843,839C3843,839 3843,840 3842,840L3833,840C3828,840 3828,835 3828,835L3828,829C3828,828 3829,828 3829,828L3837,828L3837,818L3827.94,818Z" style="fill:rgb(27,27,27);"/>
            </g>
            <g id="color_02" transform="matrix(1,0,0,1,100,300)">
                <path d="M3853,840L3853,881C3853,881 3852,888 3847,888L3831,888C3825,888 3824,881 3824,881L3824,865C3824,865 3824,864 3825,864L3842,864C3843,864 3843,865 3843,865L3843,878C3843,879 3842,879 3842,879L3835,879C3834,879 3834,876.5 3834,876.5C3834,876.5 3834,874 3835,874L3838,874L3838,871C3838,871 3838,870 3837,870L3831,870C3830,870 3830,871 3830,871L3830,881C3830,881 3830,883 3832,883L3846,883L3847,882L3847,832L3884,832L3884,881C3884,881 3883,888 3878,888L3862,888C3856,888 3855,881 3855,881L3855,865C3855,865 3855,864 3856,864L3873,864C3874,864 3874,865 3874,865L3874,878C3874,879 3873,879 3873,879L3866,879C3865,879 3865,876.5 3865,876.5C3865,876.5 3865,874 3866,874L3869,874L3869,871C3869,871 3869,870 3868,870L3862,870C3861,870 3861,871 3861,871L3861,881C3861,881 3861,883 3863,883L3877,883L3878,882L3878,840L3853,840Z" style="fill:rgb(125,157,189);"/>
            </g>
            <g id="color_01" transform="matrix(1,0,0,1,100,300)">
                <path d="M3827.94,818L3828,839C3828,839 3828,840 3827,840L3818,840C3813,840 3813,835 3813,835L3813,829C3813,828 3814,828 3814,828L3822,828L3822,812L3843,812L3843,818L3842.94,818L3843,839C3843,839 3843,840 3842,840L3833,840C3828,840 3828,835 3828,835L3828,829C3828,828 3829,828 3829,828L3837,828L3837,818L3827.94,818Z" style="fill:rgb(82,123,160);"/>
            </g>
        </g>
    </g>
</svg>
