<?xml version="1.0" encoding="UTF-8" standalone="no"?>
<!DOCTYPE svg PUBLIC "-//W3C//DTD SVG 1.1//EN" "http://www.w3.org/Graphics/SVG/1.1/DTD/svg11.dtd">
<svg width="100%" height="100%" viewBox="0 0 100 100" version="1.1" xmlns="http://www.w3.org/2000/svg" xmlns:xlink="http://www.w3.org/1999/xlink" xml:space="preserve" xmlns:serif="http://www.serif.com/" style="fill-rule:evenodd;clip-rule:evenodd;stroke-linecap:square;stroke-linejoin:round;stroke-miterlimit:1.5;">
    <g transform="matrix(1,0,0,1,-3900,-1000)">
        <g id="Sonic_Barrier" transform="matrix(1,0,0,1,0,-100)">
            <g id="glow" transform="matrix(1,0,0,1,600,400)">
                <path d="M3319,766L3319,713L3381,713L3381,766L3363,787L3337,787L3319,766Z" style="fill:none;stroke:rgb(174,247,134);stroke-width:12px;"/>
                <path d="M3319,766L3319,713L3381,713L3381,766L3363,787L3337,787L3319,766Z" style="fill:rgb(174,247,134);"/>
            </g>
            <g id="shadow" transform="matrix(1,0,0,1,600,400)">
                <path d="M3319,766L3319,713L3381,713L3381,766L3363,787L3337,787L3319,766Z" style="fill:none;stroke:rgb(27,27,27);stroke-width:4px;"/>
                <path d="M3319,766L3319,713L3381,713L3381,766L3363,787L3337,787L3319,766Z" style="fill:rgb(27,27,27);"/>
            </g>
            <g>
                <g id="color_03" transform="matrix(1,0,0,1,600,400)">
                    <path d="M3319,766L3319,713L3381,713L3381,766L3363,787L3337,787L3319,766Z" style="fill:rgb(110,129,160);"/>
                </g>
                <g id="color_02" transform="matrix(1,0,0,1,600,396)">
                    <path d="M3322,769L3322,720L3378,720L3378,769L3362,788L3338,788L3322,769Z" style="fill:rgb(61,69,96);"/>
                </g>
                <g id="color_01" transform="matrix(1,0,0,1,600,396)">
                    <path d="M3325,768L3325,723L3375,723L3375,768L3361,785L3339,785L3325,768Z" style="fill:rgb(110,129,160);"/>
                </g>
            </g>
            <g id="color_021" serif:id="color_02" transform="matrix(1,0,0,1,507,85)">
                <path d="M3450,1039L3450,1081C3450,1081 3450,1083 3448,1083L3434,1083C3432,1083 3432,1081 3432,1081L3432,1071C3432,1071 3432,1070 3433,1070L3441,1070C3442,1070 3442,1071 3442,1071L3442,1074L3437,1074C3436.41,1074 3436,1075 3436,1075L3436,1078C3436,1078 3436,1079 3437,1079L3447,1079L3447,1066C3447,1066 3447,1065 3446.05,1065L3428,1065C3427,1065 3427,1066 3427,1066L3427,1080C3427,1080 3427,1087 3432,1087L3452,1087L3455,1084L3455,1046C3455,1046 3458,1051 3462,1051C3467,1051 3468,1043 3468,1043L3464,1043C3464,1043 3462,1043 3460,1042C3458,1041 3458,1039 3458,1039L3450,1039Z" style="fill:none;stroke:rgb(58,90,104);stroke-width:4px;"/>
                <path d="M3450,1039L3450,1081C3450,1081 3450,1083 3448,1083L3434,1083C3432,1083 3432,1081 3432,1081L3432,1071C3432,1071 3432,1070 3433,1070L3441,1070C3442,1070 3442,1071 3442,1071L3442,1074L3437,1074C3436.41,1074 3436,1075 3436,1075L3436,1078C3436,1078 3436,1079 3437,1079L3447,1079L3447,1066C3447,1066 3447,1065 3446.05,1065L3428,1065C3427,1065 3427,1066 3427,1066L3427,1080C3427,1080 3427,1087 3432,1087L3452,1087L3455,1084L3455,1046C3455,1046 3458,1051 3462,1051C3467,1051 3468,1043 3468,1043L3464,1043C3464,1043 3462,1043 3460,1042C3458,1041 3458,1039 3458,1039L3450,1039Z" style="fill:rgb(58,90,104);"/>
            </g>
            <g id="color_011" serif:id="color_01" transform="matrix(1,0,0,1,507,85)">
                <path d="M3450,1039L3450,1081C3450,1081 3450,1083 3448,1083L3434,1083C3432,1083 3432,1081 3432,1081L3432,1071C3432,1071 3432,1070 3433,1070L3441,1070C3442,1070 3442,1071 3442,1071L3442,1074L3437,1074C3436.41,1074 3436,1075 3436,1075L3436,1078C3436,1078 3436,1079 3437,1079L3447,1079L3447,1066C3447,1066 3447,1065 3446.05,1065L3428,1065C3427,1065 3427,1066 3427,1066L3427,1080C3427,1080 3427,1087 3432,1087L3452,1087L3455,1084L3455,1046C3455,1046 3458,1051 3462,1051C3467,1051 3468,1043 3468,1043L3464,1043C3464,1043 3462,1043 3460,1042C3458,1041 3458,1039 3458,1039L3450,1039Z" style="fill:rgb(171,239,237);"/>
            </g>
        </g>
    </g>
</svg>
