<?xml version="1.0" encoding="UTF-8" standalone="no"?>
<!DOCTYPE svg PUBLIC "-//W3C//DTD SVG 1.1//EN" "http://www.w3.org/Graphics/SVG/1.1/DTD/svg11.dtd">
<svg width="100%" height="100%" viewBox="0 0 100 100" version="1.1" xmlns="http://www.w3.org/2000/svg" xmlns:xlink="http://www.w3.org/1999/xlink" xml:space="preserve" xmlns:serif="http://www.serif.com/" style="fill-rule:evenodd;clip-rule:evenodd;stroke-linecap:square;stroke-linejoin:round;stroke-miterlimit:1.5;">
    <g transform="matrix(1,0,0,1,-3400,-1000)">
        <g id="Special_Performance" transform="matrix(1,0,0,1,-500,-100)">
            <g id="glow" transform="matrix(1,0,0,1,500,100)">
                <path d="M3459,1035.5L3440.98,1040.98L3435.5,1059L3430.02,1040.98L3412,1035.5L3430.02,1030.02L3435.5,1012L3440.98,1030.02L3459,1035.5ZM3459,1022L3470,1022C3470,1022 3470,1023 3473,1025C3476,1027 3479,1027 3479,1027L3488,1027C3488,1027 3484,1039 3477.5,1039C3470,1039 3466,1032 3466,1032L3466,1073.86L3471.08,1071.08L3475.5,1063L3479.92,1071.08L3488,1075.5L3479.92,1079.92L3475.5,1088L3471.08,1079.92L3466,1077.14L3466,1080C3466,1080 3466,1088 3458,1088L3435,1088C3427,1088 3427,1080 3427,1080L3427,1061C3427,1061 3427,1060 3428,1060L3453.05,1060C3454,1060 3454,1061 3454,1061L3454,1077L3440,1077C3439,1077 3439,1074.5 3439,1074.5C3439,1074.5 3439,1072 3440,1072L3448,1072L3448,1067C3448,1067 3448,1066 3447,1066L3434,1066C3433,1066 3433,1067 3433,1067L3433,1080C3433,1080 3433,1082 3435,1082L3458,1082C3459,1082 3459,1081 3459,1081L3459,1022Z" style="fill:none;stroke:rgb(174,247,134);stroke-width:12px;"/>
                <path d="M3459,1035.5L3440.98,1040.98L3435.5,1059L3430.02,1040.98L3412,1035.5L3430.02,1030.02L3435.5,1012L3440.98,1030.02L3459,1035.5ZM3459,1022L3470,1022C3470,1022 3470,1023 3473,1025C3476,1027 3479,1027 3479,1027L3488,1027C3488,1027 3484,1039 3477.5,1039C3470,1039 3466,1032 3466,1032L3466,1073.86L3471.08,1071.08L3475.5,1063L3479.92,1071.08L3488,1075.5L3479.92,1079.92L3475.5,1088L3471.08,1079.92L3466,1077.14L3466,1080C3466,1080 3466,1088 3458,1088L3435,1088C3427,1088 3427,1080 3427,1080L3427,1061C3427,1061 3427,1060 3428,1060L3453.05,1060C3454,1060 3454,1061 3454,1061L3454,1077L3440,1077C3439,1077 3439,1074.5 3439,1074.5C3439,1074.5 3439,1072 3440,1072L3448,1072L3448,1067C3448,1067 3448,1066 3447,1066L3434,1066C3433,1066 3433,1067 3433,1067L3433,1080C3433,1080 3433,1082 3435,1082L3458,1082C3459,1082 3459,1081 3459,1081L3459,1022Z" style="fill:rgb(174,247,134);"/>
            </g>
            <g id="shadow" transform="matrix(1,0,0,1,500,100)">
                <path d="M3459,1035.5L3440.98,1040.98L3435.5,1059L3430.02,1040.98L3412,1035.5L3430.02,1030.02L3435.5,1012L3440.98,1030.02L3459,1035.5ZM3459,1022L3470,1022C3470,1022 3470,1023 3473,1025C3476,1027 3479,1027 3479,1027L3488,1027C3488,1027 3484,1039 3477.5,1039C3470,1039 3466,1032 3466,1032L3466,1073.86L3471.08,1071.08L3475.5,1063L3479.92,1071.08L3488,1075.5L3479.92,1079.92L3475.5,1088L3471.08,1079.92L3466,1077.14L3466,1080C3466,1080 3466,1088 3458,1088L3435,1088C3427,1088 3427,1080 3427,1080L3427,1061C3427,1061 3427,1060 3428,1060L3453.05,1060C3454,1060 3454,1061 3454,1061L3454,1077L3440,1077C3439,1077 3439,1074.5 3439,1074.5C3439,1074.5 3439,1072 3440,1072L3448,1072L3448,1067C3448,1067 3448,1066 3447,1066L3434,1066C3433,1066 3433,1067 3433,1067L3433,1080C3433,1080 3433,1082 3435,1082L3458,1082C3459,1082 3459,1081 3459,1081L3459,1022Z" style="fill:none;stroke:rgb(27,27,27);stroke-width:4px;"/>
                <path d="M3459,1035.5L3440.98,1040.98L3435.5,1059L3430.02,1040.98L3412,1035.5L3430.02,1030.02L3435.5,1012L3440.98,1030.02L3459,1035.5ZM3459,1022L3470,1022C3470,1022 3470,1023 3473,1025C3476,1027 3479,1027 3479,1027L3488,1027C3488,1027 3484,1039 3477.5,1039C3470,1039 3466,1032 3466,1032L3466,1073.86L3471.08,1071.08L3475.5,1063L3479.92,1071.08L3488,1075.5L3479.92,1079.92L3475.5,1088L3471.08,1079.92L3466,1077.14L3466,1080C3466,1080 3466,1088 3458,1088L3435,1088C3427,1088 3427,1080 3427,1080L3427,1061C3427,1061 3427,1060 3428,1060L3453.05,1060C3454,1060 3454,1061 3454,1061L3454,1077L3440,1077C3439,1077 3439,1074.5 3439,1074.5C3439,1074.5 3439,1072 3440,1072L3448,1072L3448,1067C3448,1067 3448,1066 3447,1066L3434,1066C3433,1066 3433,1067 3433,1067L3433,1080C3433,1080 3433,1082 3435,1082L3458,1082C3459,1082 3459,1081 3459,1081L3459,1022Z" style="fill:rgb(27,27,27);"/>
            </g>
            <g id="color_03" transform="matrix(1,0,0,1,500,100)">
                <path d="M3459,1022L3459,1081C3459,1081 3459,1082 3458,1082L3435,1082C3433,1082 3433,1080 3433,1080L3433,1067C3433,1067 3433,1066 3434,1066L3447,1066C3448,1066 3448,1067 3448,1067L3448,1072L3440,1072C3439,1072 3439,1074.5 3439,1074.5C3439,1074.5 3439,1077 3440,1077L3454,1077L3454,1061C3454,1061 3454,1060 3453.05,1060L3428,1060C3427,1060 3427,1061 3427,1061L3427,1080C3427,1080 3427,1088 3435,1088L3458,1088C3466,1088 3466,1080 3466,1080L3466,1032C3466,1032 3470,1039 3477.5,1039C3484,1039 3488,1027 3488,1027L3479,1027C3479,1027 3476,1027 3473,1025C3470,1023 3470,1022 3470,1022L3459,1022Z" style="fill:rgb(206,200,95);"/>
            </g>
            <g transform="matrix(0.531915,0,0,0.531915,1882.15,571.511)">
                <g id="color_02" transform="matrix(1.02174,0,0,0.959184,425.826,142.265)">
                    <path d="M3435,1011L3443.13,1026.84L3458,1035.5L3443.13,1044.16L3435,1060L3426.87,1044.16L3412,1035.5L3426.87,1026.84L3435,1011Z" style="fill:rgb(227,140,82);"/>
                </g>
                <g id="color_01" transform="matrix(1.02174,0,0,0.959184,425.826,142.265)">
                    <path d="M3435,1011L3439.07,1031.17L3458,1035.5L3439.07,1039.83L3435,1060L3430.93,1039.83L3412,1035.5L3430.93,1031.17L3435,1011Z" style="fill:rgb(229,210,158);"/>
                </g>
            </g>
            <g>
                <g id="color_021" serif:id="color_02" transform="matrix(1.02174,0,0,0.959184,425.826,142.265)">
                    <path d="M3435,1011L3440.37,1029.78L3458,1035.5L3440.37,1041.22L3435,1060L3429.63,1041.22L3412,1035.5L3429.63,1029.78L3435,1011Z" style="fill:rgb(227,140,82);"/>
                </g>
                <g id="color_011" serif:id="color_01" transform="matrix(1.02174,0,0,0.959184,425.826,142.265)">
                    <path d="M3435,1011L3437.44,1032.9L3458,1035.5L3437.44,1038.1L3435,1060L3432.56,1038.1L3412,1035.5L3432.56,1032.9L3435,1011Z" style="fill:rgb(229,210,158);"/>
                </g>
            </g>
        </g>
    </g>
</svg>
