<?xml version="1.0" encoding="UTF-8" standalone="no"?>
<!DOCTYPE svg PUBLIC "-//W3C//DTD SVG 1.1//EN" "http://www.w3.org/Graphics/SVG/1.1/DTD/svg11.dtd">
<svg width="100%" height="100%" viewBox="0 0 100 100" version="1.1" xmlns="http://www.w3.org/2000/svg" xmlns:xlink="http://www.w3.org/1999/xlink" xml:space="preserve" xmlns:serif="http://www.serif.com/" style="fill-rule:evenodd;clip-rule:evenodd;stroke-linecap:square;stroke-linejoin:round;stroke-miterlimit:1.5;">
    <g transform="matrix(1,0,0,1,-2000,-1000)">
        <g id="Status_Attack_Up" transform="matrix(1,0,0,1,-1900,-100)">
            <g>
                <g id="glow" transform="matrix(1,0,0,1,700,400)">
                    <path d="M3276,767L3276,772L3224,772L3224,767L3276,767ZM3255,776L3255,787L3245,787L3245,776L3255,776ZM3270,763L3229,763C3229,763 3231,747.042 3231,735C3231,720 3223,712 3223,712C3223,712 3259,710 3267,728C3271.7,738.563 3270,763 3270,763Z" style="fill:none;stroke:rgb(174,247,134);stroke-width:12px;"/>
                    <path d="M3276,767L3276,772L3224,772L3224,767L3276,767ZM3255,776L3255,787L3245,787L3245,776L3255,776ZM3270,763L3229,763C3229,763 3231,747.042 3231,735C3231,720 3223,712 3223,712C3223,712 3259,710 3267,728C3271.7,738.563 3270,763 3270,763Z" style="fill:rgb(174,247,134);"/>
                </g>
                <g id="shadow" transform="matrix(1,0,0,1,700,400)">
                    <path d="M3276,767L3276,772L3224,772L3224,767L3276,767ZM3255,776L3255,787L3245,787L3245,776L3255,776ZM3270,763L3229,763C3229,763 3231,747.042 3231,735C3231,720 3223,712 3223,712C3223,712 3259,710 3267,728C3271.7,738.563 3270,763 3270,763Z" style="fill:none;stroke:rgb(27,27,27);stroke-width:4px;"/>
                    <path d="M3276,767L3276,772L3224,772L3224,767L3276,767ZM3255,776L3255,787L3245,787L3245,776L3255,776ZM3270,763L3229,763C3229,763 3231,747.042 3231,735C3231,720 3223,712 3223,712C3223,712 3259,710 3267,728C3271.7,738.563 3270,763 3270,763Z" style="fill:rgb(27,27,27);"/>
                </g>
                <g id="color_02" transform="matrix(1,0,0,1,700,400)">
                    <path d="M3276,767L3276,772L3224,772L3224,767L3276,767ZM3255,776L3255,787L3245,787L3245,776L3255,776Z" style="fill:rgb(152,124,96);"/>
                </g>
                <g id="color_01" transform="matrix(1,0,0,1,700,400)">
                    <path d="M3270,763L3229,763C3229,763 3231,747.042 3231,735C3231,720 3223,712 3223,712C3223,712 3259,710 3267,728C3271.7,738.563 3270,763 3270,763" style="fill:rgb(205,205,205);"/>
                </g>
            </g>
            <g transform="matrix(0.818182,0,0,0.837209,718.182,181.977)">
                <g id="color_021" serif:id="color_02" transform="matrix(1.61852,0,0,1.59259,-1310.19,-33.8148)">
                    <path d="M3243.2,745.837L3245.06,754L3254.94,754L3256.8,745.837L3263.59,745.837L3263.59,742.07L3250,727L3236.41,742.07L3236.41,745.837L3243.2,745.837Z" style="fill:rgb(111,85,87);"/>
                </g>
                <g id="color_011" serif:id="color_01" transform="matrix(1,0,0,1,700,402)">
                    <path d="M3242,748L3245,761L3255,761L3258,748L3268,748L3250,728L3232,748L3242,748Z" style="fill:rgb(194,105,105);"/>
                </g>
            </g>
        </g>
    </g>
</svg>
