<?xml version="1.0" encoding="UTF-8" standalone="no"?>
<!DOCTYPE svg PUBLIC "-//W3C//DTD SVG 1.1//EN" "http://www.w3.org/Graphics/SVG/1.1/DTD/svg11.dtd">
<svg width="100%" height="100%" viewBox="0 0 100 100" version="1.1" xmlns="http://www.w3.org/2000/svg" xmlns:xlink="http://www.w3.org/1999/xlink" xml:space="preserve" xmlns:serif="http://www.serif.com/" style="fill-rule:evenodd;clip-rule:evenodd;stroke-linecap:square;stroke-linejoin:round;stroke-miterlimit:1.5;">
    <g transform="matrix(1,0,0,1,-2200,-800)">
        <g id="Stench" transform="matrix(1,0,0,1,-1700,-300)">
            <g transform="matrix(0.972222,0,0,1,1761.97,300)">
                <path d="M2231,824C2231,824 2231,812 2243.34,812L2254.66,812C2267,812 2267,824 2267,824L2271.11,824C2271.11,824 2279.34,824 2279.34,832L2279.34,855C2279.34,855 2279.34,865 2269.06,865L2255.72,865L2252.6,871L2248.49,871L2245.37,865L2228.94,865C2218.66,865 2218.66,855 2218.66,855L2218.66,840C2218.66,833 2225.86,833 2225.86,833L2225.86,849C2225.86,852 2228.94,855 2232.03,855L2259.8,855C2262.89,855 2265.97,852 2265.97,849L2265.97,836C2265.97,833 2262.89,830 2259.8,830L2249.51,830C2246.43,830 2243.34,833 2243.34,836L2243.34,841L2248.49,841L2248.49,836C2248.49,836 2248.49,835 2249.54,835L2259.8,835C2260.83,835 2260.83,836 2260.83,836L2260.83,846C2260.83,846 2260.83,850 2256.71,850L2235.11,850C2231,850 2231,846 2231,846L2231,824ZM2248.49,873L2252.6,873L2261.86,882L2261.86,888L2239.23,888L2239.23,882L2248.49,873Z" style="fill:none;stroke:rgb(27,27,27);stroke-width:4.06px;"/>
                <path d="M2231,824C2231,824 2231,812 2243.34,812L2254.66,812C2267,812 2267,824 2267,824L2271.11,824C2271.11,824 2279.34,824 2279.34,832L2279.34,855C2279.34,855 2279.34,865 2269.06,865L2255.72,865L2252.6,871L2248.49,871L2245.37,865L2228.94,865C2218.66,865 2218.66,855 2218.66,855L2218.66,840C2218.66,833 2225.86,833 2225.86,833L2225.86,849C2225.86,852 2228.94,855 2232.03,855L2259.8,855C2262.89,855 2265.97,852 2265.97,849L2265.97,836C2265.97,833 2262.89,830 2259.8,830L2249.51,830C2246.43,830 2243.34,833 2243.34,836L2243.34,841L2248.49,841L2248.49,836C2248.49,836 2248.49,835 2249.54,835L2259.8,835C2260.83,835 2260.83,836 2260.83,836L2260.83,846C2260.83,846 2260.83,850 2256.71,850L2235.11,850C2231,850 2231,846 2231,846L2231,824ZM2248.49,873L2252.6,873L2261.86,882L2261.86,888L2239.23,888L2239.23,882L2248.49,873Z" style="fill:rgb(27,27,27);"/>
            </g>
            <g transform="matrix(0.972222,0,0,1,1761.97,300)">
                <path d="M2231,824C2231,824 2231,812 2243.34,812L2254.66,812C2267,812 2267,824 2267,824L2271.11,824C2271.11,824 2279.34,824 2279.34,832L2279.34,855C2279.34,855 2279.34,865 2269.06,865L2255.72,865L2252.6,871L2248.49,871L2245.37,865L2228.94,865C2218.66,865 2218.66,855 2218.66,855L2218.66,840C2218.66,833 2225.86,833 2225.86,833L2225.86,849C2225.86,852 2228.94,855 2232.03,855L2259.8,855C2262.89,855 2265.97,852 2265.97,849L2265.97,836C2265.97,833 2262.89,830 2259.8,830L2249.51,830C2246.43,830 2243.34,833 2243.34,836L2243.34,841L2248.49,841L2248.49,837C2248.49,837 2248.49,835 2250.57,835L2258.77,835C2260.83,835 2260.83,837 2260.83,837L2260.83,846C2260.83,846 2260.83,850 2256.71,850L2235.11,850C2231,850 2231,846 2231,846L2231,824Z" style="fill:rgb(169,135,79);"/>
            </g>
            <g transform="matrix(1,0,0,1,1700,300)">
                <path d="M2248,873L2239,882L2239,888L2261,888L2261,882L2252,873L2248,873Z" style="fill:rgb(125,87,67);"/>
            </g>
        </g>
    </g>
</svg>
