<?xml version="1.0" encoding="UTF-8" standalone="no"?>
<!DOCTYPE svg PUBLIC "-//W3C//DTD SVG 1.1//EN" "http://www.w3.org/Graphics/SVG/1.1/DTD/svg11.dtd">
<svg width="100%" height="100%" viewBox="0 0 100 100" version="1.1" xmlns="http://www.w3.org/2000/svg" xmlns:xlink="http://www.w3.org/1999/xlink" xml:space="preserve" xmlns:serif="http://www.serif.com/" style="fill-rule:evenodd;clip-rule:evenodd;stroke-linecap:square;stroke-linejoin:round;stroke-miterlimit:1.5;">
    <g transform="matrix(1,0,0,1,-3000,-800)">
        <g id="Strong-Roar" serif:id="Strong Roar" transform="matrix(1,0,0,1,-900,-300)">
            <g id="shadow" transform="matrix(1,0,0,1,1000,300)">
                <path d="M2967,818L2967,876L2933,876L2933,818L2967,818ZM2980,862L2983,859L2972,849L2972,843L2982,853L2985,850L2972,837L2972,831L2988,847L2988,887L2979,887L2979,884L2972,877L2972,855L2980,862ZM2920,862L2928,855L2928,877L2921,884L2921,887L2912,887L2912,847L2928,831L2928,837L2915,850L2918,853L2928,843L2928,849L2917,859L2920,862Z" style="fill:none;stroke:rgb(27,27,27);stroke-width:4px;"/>
                <path d="M2967,818L2967,876L2933,876L2933,818L2967,818ZM2980,862L2983,859L2972,849L2972,843L2982,853L2985,850L2972,837L2972,831L2988,847L2988,887L2979,887L2979,884L2972,877L2972,855L2980,862ZM2920,862L2928,855L2928,877L2921,884L2921,887L2912,887L2912,847L2928,831L2928,837L2915,850L2918,853L2928,843L2928,849L2917,859L2920,862Z" style="fill:rgb(27,27,27);"/>
            </g>
            <g id="color_02" transform="matrix(1,0,0,1,1000,300)">
                <path d="M2967,818L2967,876L2933,876L2933,818L2967,818ZM2980,862L2983,859L2972,849L2972,843L2982,853L2985,850L2972,837L2972,831L2988,847L2988,887L2979,887L2979,884L2972,877L2972,855L2980,862ZM2920,862L2928,855L2928,877L2921,884L2921,887L2912,887L2912,847L2928,831L2928,837L2915,850L2918,853L2928,843L2928,849L2917,859L2920,862Z" style="fill:rgb(200,100,85);"/>
            </g>
            <g id="color_01" transform="matrix(1,0,0,1,1000,300)">
                <path d="M2947,853L2954,853L2954,856L2944,856L2944,841L2937,836L2937,832L2947,839L2947,853ZM2951,830L2954,833L2954,839L2963,832L2963,836L2954,843L2951,843L2951,830Z" style="fill:rgb(49,31,29);"/>
            </g>
        </g>
    </g>
</svg>
