<?xml version="1.0" encoding="UTF-8" standalone="no"?>
<!DOCTYPE svg PUBLIC "-//W3C//DTD SVG 1.1//EN" "http://www.w3.org/Graphics/SVG/1.1/DTD/svg11.dtd">
<svg width="100%" height="100%" viewBox="0 0 100 100" version="1.1" xmlns="http://www.w3.org/2000/svg" xmlns:xlink="http://www.w3.org/1999/xlink" xml:space="preserve" xmlns:serif="http://www.serif.com/" style="fill-rule:evenodd;clip-rule:evenodd;stroke-linecap:square;stroke-linejoin:round;stroke-miterlimit:1.5;">
    <g transform="matrix(1,0,0,1,-2800,-700)">
        <g id="Stun" transform="matrix(1,0,0,1,-1100,-400)">
            <g id="shadow" transform="matrix(1,0,0,1,1100,400)">
                <path d="M2864,741L2870,757L2888,757L2874,771L2879,788L2864,780L2849,788L2854,771L2840,757L2858,757L2864,741ZM2837,752L2822,760L2827,743L2813,729L2831,729L2837,713L2843,729L2861,729L2847,743L2849.65,752L2837,752Z" style="fill:none;stroke:rgb(27,27,27);stroke-width:4px;"/>
                <path d="M2864,741L2870,757L2888,757L2874,771L2879,788L2864,780L2849,788L2854,771L2840,757L2858,757L2864,741ZM2837,752L2822,760L2827,743L2813,729L2831,729L2837,713L2843,729L2861,729L2847,743L2849.65,752L2837,752Z" style="fill:rgb(27,27,27);"/>
            </g>
            <g id="color_01" transform="matrix(1,0,0,1,1100,400)">
                <path d="M2864,741L2870,757L2888,757L2874,771L2879,788L2864,780L2849,788L2854,771L2840,757L2858,757L2864,741ZM2837,752L2822,760L2827,743L2813,729L2831,729L2837,713L2843,729L2861,729L2847,743L2849.65,752L2837,752Z" style="fill:rgb(209,191,119);"/>
            </g>
        </g>
    </g>
</svg>
