<?xml version="1.0" encoding="UTF-8" standalone="no"?>
<!DOCTYPE svg PUBLIC "-//W3C//DTD SVG 1.1//EN" "http://www.w3.org/Graphics/SVG/1.1/DTD/svg11.dtd">
<svg width="100%" height="100%" viewBox="0 0 100 100" version="1.1" xmlns="http://www.w3.org/2000/svg" xmlns:xlink="http://www.w3.org/1999/xlink" xml:space="preserve" xmlns:serif="http://www.serif.com/" style="fill-rule:evenodd;clip-rule:evenodd;stroke-linecap:square;stroke-linejoin:round;stroke-miterlimit:1.5;">
    <g transform="matrix(1,0,0,1,-3200,-900)">
        <g id="Thunder_Resistance_Up_S" transform="matrix(1,0,0,1,-700,-200)">
            <g id="glow" transform="matrix(1.03226,0,0,1.02703,491.935,379.73)">
                <path d="M3376.16,787L3337.41,787L3319,765.579L3319,713L3381,713L3381,765.579L3379.65,767.146L3387.78,775.316L3378.09,775.316L3376.16,787Z" style="fill:none;stroke:rgb(174,247,134);stroke-width:11.65px;"/>
                <path d="M3376.16,787L3337.41,787L3319,765.579L3319,713L3381,713L3381,765.579L3379.65,767.146L3387.78,775.316L3378.09,775.316L3376.16,787Z" style="fill:rgb(174,247,134);"/>
            </g>
            <g id="shadow" transform="matrix(1.03226,0,0,1.02703,491.935,379.73)">
                <path d="M3376.16,787L3337.41,787L3319,765.579L3319,713L3381,713L3381,765.579L3379.65,767.146L3387.78,775.316L3378.09,775.316L3376.16,787Z" style="fill:none;stroke:rgb(27,27,27);stroke-width:3.88px;"/>
                <path d="M3376.16,787L3337.41,787L3319,765.579L3319,713L3381,713L3381,765.579L3379.65,767.146L3387.78,775.316L3378.09,775.316L3376.16,787Z" style="fill:rgb(27,27,27);"/>
            </g>
            <g transform="matrix(1.03226,0,0,1.02703,-127.419,-31.0811)">
                <g id="color_03" transform="matrix(1,0,0,1,600,400)">
                    <path d="M3319,765.579L3319,713L3381,713L3381,765.579L3362.59,787L3337.41,787L3319,765.579Z" style="fill:rgb(205,191,117);"/>
                </g>
                <g id="color_02" transform="matrix(1,0,0,1,600,396)">
                    <path d="M3320.94,769.579L3320.94,718.947L3379.06,718.947L3379.06,769.579L3361.62,789.053L3338.38,789.053L3320.94,769.579Z" style="fill:rgb(125,119,81);"/>
                </g>
                <g id="color_01" transform="matrix(1,0,0,1,600,396)">
                    <path d="M3325.78,766.658L3325.78,723.816L3374.22,723.816L3374.22,766.658L3357.75,784.184L3342.25,784.184L3325.78,766.658Z" style="fill:rgb(205,191,117);"/>
                </g>
            </g>
            <g id="Thunderblight">
                <g id="color_021" serif:id="color_02" transform="matrix(0.561644,0,0,0.561644,2688.27,723.986)">
                    <path d="M2218,714L2250.05,746.049L2221.56,746.049L2258.95,781.659L2239.37,781.659L2234.02,787L2280.32,787L2280.32,753.171L2275,756.22L2274.98,776.317L2266.07,776.317L2241.15,751.39L2273.2,751.39L2241.22,714L2218,714Z" style="fill:rgb(98,94,70);stroke:rgb(98,94,70);stroke-width:17.8px;stroke-linecap:round;stroke-miterlimit:2;"/>
                </g>
                <g id="color_011" serif:id="color_01" transform="matrix(0.561644,0,0,0.561644,2688.27,723.986)">
                    <path d="M2218,714L2250.05,746.049L2221.56,746.049L2258.95,781.659L2239.37,781.659L2234.02,787L2280.32,787L2280.32,753.171L2275,756.22L2274.98,776.317L2266.07,776.317L2241.15,751.39L2273.2,751.39L2241.22,714L2218,714Z" style="fill:rgb(186,174,108);"/>
                </g>
            </g>
            <g transform="matrix(0.818182,0,0,0.837209,738.182,212.977)">
                <g id="color_012" serif:id="color_01" transform="matrix(1,0,0,1,700,403.389)">
                    <clipPath id="_clip1">
                        <path d="M3185.22,736.139L3185.22,669.25L3265.89,669.25L3265.89,736.139L3242.67,762.417L3208.44,762.417L3185.22,736.139Z"/>
                    </clipPath>
                    <g clip-path="url(#_clip1)">
                        <path d="M3234.11,751.667L3236.56,766L3263.44,766L3265.89,751.667L3285.44,751.667L3250,717.028L3214.56,751.667L3234.11,751.667Z" style="fill:rgb(27,27,27);"/>
                    </g>
                </g>
                <g id="color_013" serif:id="color_01" transform="matrix(1,0,0,1,700,403.389)">
                    <path d="M3239,746.889L3241.44,761.222L3258.56,761.222L3261,746.889L3273.22,746.889L3250,724.194L3226.78,746.889L3239,746.889Z" style="fill:rgb(122,200,84);"/>
                </g>
            </g>
        </g>
    </g>
</svg>
