<?xml version="1.0" encoding="UTF-8" standalone="no"?>
<!DOCTYPE svg PUBLIC "-//W3C//DTD SVG 1.1//EN" "http://www.w3.org/Graphics/SVG/1.1/DTD/svg11.dtd">
<svg width="100%" height="100%" viewBox="0 0 100 100" version="1.1" xmlns="http://www.w3.org/2000/svg" xmlns:xlink="http://www.w3.org/1999/xlink" xml:space="preserve" xmlns:serif="http://www.serif.com/" style="fill-rule:evenodd;clip-rule:evenodd;stroke-linecap:square;stroke-linejoin:round;stroke-miterlimit:1.5;">
    <g transform="matrix(1,0,0,1,-2200,-700)">
        <g id="Thunderblight" transform="matrix(1,0,0,1,-1700,-400)">
            <g id="shadow" transform="matrix(1,0,0,1,1700,400)">
                <path d="M2218,714L2251,747L2223,747L2261,781L2241,781L2234,787L2281,787L2281,753L2275,758L2275,775L2264,775L2245,753L2275,753L2243,714L2218,714Z" style="fill:none;stroke:rgb(27,27,27);stroke-width:4px;"/>
                <path d="M2218,714L2251,747L2223,747L2261,781L2241,781L2234,787L2281,787L2281,753L2275,758L2275,775L2264,775L2245,753L2275,753L2243,714L2218,714Z" style="fill:rgb(27,27,27);"/>
            </g>
            <g id="color_01" transform="matrix(1,0,0,1,1700,400)">
                <path d="M2218,714L2251,747L2223,747L2261,781L2241,781L2234,787L2281,787L2281,753L2275,758L2275,775L2264,775L2245,753L2275,753L2243,714L2218,714Z" style="fill:rgb(183,171,105);"/>
            </g>
        </g>
    </g>
</svg>
