<?xml version="1.0" encoding="UTF-8" standalone="no"?>
<!DOCTYPE svg PUBLIC "-//W3C//DTD SVG 1.1//EN" "http://www.w3.org/Graphics/SVG/1.1/DTD/svg11.dtd">
<svg width="100%" height="100%" viewBox="0 0 100 100" version="1.1" xmlns="http://www.w3.org/2000/svg" xmlns:xlink="http://www.w3.org/1999/xlink" xml:space="preserve" xmlns:serif="http://www.serif.com/" style="fill-rule:evenodd;clip-rule:evenodd;stroke-linecap:square;stroke-linejoin:round;stroke-miterlimit:1.5;">
    <g transform="matrix(1,0,0,1,-2300,-900)">
        <g id="Tremors_Negated" transform="matrix(1,0,0,1,-1600,-200)">
            <g id="glow" transform="matrix(1,0,0,1,800,300)">
                <path d="M3127.33,888L3113,888L3113,866L3142.71,866L3135,872L3142,877L3127.33,888ZM3156,866L3187,866L3187,888L3163.43,888L3154,882L3160,877L3151,871L3156,866ZM3150,843L3140,862L3134,862L3143,845L3143,831L3132,831C3129,831 3132.33,824.167 3133,821C3133.55,818.37 3134,813 3135,813C3136,813 3142,814.463 3142,816C3142,817 3142,820 3141,820L3138,820L3138,825L3161,825L3161,820L3158,820C3157,820 3157,817 3157,816C3157,814.463 3163,813 3164,813C3165,813 3165.45,818.37 3166,821C3166.67,824.167 3170,831 3167,831L3156,831L3156,845L3165,862L3159,862L3150,843ZM3153,812L3153,822L3146,822L3146,812L3153,812Z" style="fill:none;stroke:rgb(174,247,134);stroke-width:12px;"/>
                <path d="M3127.33,888L3113,888L3113,866L3142.71,866L3135,872L3142,877L3127.33,888ZM3156,866L3187,866L3187,888L3163.43,888L3154,882L3160,877L3151,871L3156,866ZM3150,843L3140,862L3134,862L3143,845L3143,831L3132,831C3129,831 3132.33,824.167 3133,821C3133.55,818.37 3134,813 3135,813C3136,813 3142,814.463 3142,816C3142,817 3142,820 3141,820L3138,820L3138,825L3161,825L3161,820L3158,820C3157,820 3157,817 3157,816C3157,814.463 3163,813 3164,813C3165,813 3165.45,818.37 3166,821C3166.67,824.167 3170,831 3167,831L3156,831L3156,845L3165,862L3159,862L3150,843ZM3153,812L3153,822L3146,822L3146,812L3153,812Z" style="fill:rgb(174,247,134);"/>
            </g>
            <g id="shadow" transform="matrix(1,0,0,1,800,300)">
                <path d="M3127.33,888L3113,888L3113,866L3142.71,866L3135,872L3142,877L3127.33,888ZM3156,866L3187,866L3187,888L3163.43,888L3154,882L3160,877L3151,871L3156,866ZM3150,843L3140,862L3134,862L3143,845L3143,831L3132,831C3129,831 3132.33,824.167 3133,821C3133.55,818.37 3134,813 3135,813C3136,813 3142,814.463 3142,816C3142,817 3142,820 3141,820L3138,820L3138,825L3161,825L3161,820L3158,820C3157,820 3157,817 3157,816C3157,814.463 3163,813 3164,813C3165,813 3165.45,818.37 3166,821C3166.67,824.167 3170,831 3167,831L3156,831L3156,845L3165,862L3159,862L3150,843ZM3153,812L3153,822L3146,822L3146,812L3153,812Z" style="fill:none;stroke:rgb(27,27,27);stroke-width:4px;"/>
                <path d="M3127.33,888L3113,888L3113,866L3142.71,866L3135,872L3142,877L3127.33,888ZM3156,866L3187,866L3187,888L3163.43,888L3154,882L3160,877L3151,871L3156,866ZM3150,843L3140,862L3134,862L3143,845L3143,831L3132,831C3129,831 3132.33,824.167 3133,821C3133.55,818.37 3134,813 3135,813C3136,813 3142,814.463 3142,816C3142,817 3142,820 3141,820L3138,820L3138,825L3161,825L3161,820L3158,820C3157,820 3157,817 3157,816C3157,814.463 3163,813 3164,813C3165,813 3165.45,818.37 3166,821C3166.67,824.167 3170,831 3167,831L3156,831L3156,845L3165,862L3159,862L3150,843ZM3153,812L3153,822L3146,822L3146,812L3153,812Z" style="fill:rgb(27,27,27);"/>
            </g>
            <g id="color_02" transform="matrix(1,0,0,1,800,300)">
                <path d="M3127.33,888L3113,888L3113,866L3142.71,866L3135,872L3142,877L3127.33,888ZM3156,866L3187,866L3187,888L3163.43,888L3154,882L3160,877L3151,871L3156,866Z" style="fill:rgb(115,93,79);"/>
            </g>
            <g id="color_01" transform="matrix(1,0,0,1,799.233,300)">
                <path d="M3150.77,843L3140.77,862L3134.77,862L3143.77,845L3143.77,831L3132.77,831C3129.77,831 3133.1,824.167 3133.77,821C3134.32,818.37 3134.77,813 3135.77,813C3136.77,813 3142.77,814.463 3142.77,816C3142.77,817 3142.77,820 3141.77,820L3138.77,820L3138.77,825L3161.77,825L3161.77,820L3158.77,820C3157.77,820 3157.77,817 3157.77,816C3157.77,814.463 3163.77,813 3164.77,813C3165.77,813 3166.21,818.37 3166.77,821C3167.43,824.167 3170.77,831 3167.77,831L3156.77,831L3156.77,845L3165.77,862L3159.77,862L3150.77,843ZM3153.77,812L3153.77,822L3146.77,822L3146.77,812L3153.77,812Z" style="fill:rgb(199,183,121);"/>
            </g>
        </g>
    </g>
</svg>
