<?xml version="1.0" encoding="UTF-8" standalone="no"?>
<!DOCTYPE svg PUBLIC "-//W3C//DTD SVG 1.1//EN" "http://www.w3.org/Graphics/SVG/1.1/DTD/svg11.dtd">
<svg width="100%" height="100%" viewBox="0 0 100 100" version="1.1" xmlns="http://www.w3.org/2000/svg" xmlns:xlink="http://www.w3.org/1999/xlink" xml:space="preserve" xmlns:serif="http://www.serif.com/" style="fill-rule:evenodd;clip-rule:evenodd;stroke-linecap:square;stroke-linejoin:round;stroke-miterlimit:1.5;">
    <g transform="matrix(1,0,0,1,-3100,-800)">
        <g id="Very_Minor_Tremor" transform="matrix(1,0,0,1,-800,-300)">
            <g id="shadow" transform="matrix(1,0,0,1,800,300)">
                <path d="M3154,866L3187,866L3187,888L3113,888L3113,866L3147.66,866L3142,871L3148,877L3142,882L3152,886L3148,882L3155,877L3149,871L3154,866ZM3134,862L3145,842L3148,829L3139,828L3135,837L3130,835L3136,822L3152,824L3161,828L3172,835L3170,848L3164,847L3166,837L3160,833L3157,843L3165,849L3167,863L3161,863L3159,851L3152,846L3149,846L3141,862L3134,862ZM3153,821L3157,812L3164,815L3160,824L3153,821Z" style="fill:none;stroke:rgb(27,27,27);stroke-width:4px;"/>
                <path d="M3154,866L3187,866L3187,888L3113,888L3113,866L3147.66,866L3142,871L3148,877L3142,882L3152,886L3148,882L3155,877L3149,871L3154,866ZM3134,862L3145,842L3148,829L3139,828L3135,837L3130,835L3136,822L3152,824L3161,828L3172,835L3170,848L3164,847L3166,837L3160,833L3157,843L3165,849L3167,863L3161,863L3159,851L3152,846L3149,846L3141,862L3134,862ZM3153,821L3157,812L3164,815L3160,824L3153,821Z" style="fill:rgb(27,27,27);"/>
            </g>
            <g id="color_02" transform="matrix(1,0,0,1,800,300)">
                <path d="M3154,866L3187,866L3187,888L3113,888L3113,866L3147.66,866L3142,871L3148,877L3142,882L3152,886L3148,882L3155,877L3149,871L3154,866Z" style="fill:rgb(115,93,79);"/>
            </g>
            <g id="color_01" transform="matrix(1,0,0,1,800,300)">
                <path d="M3134,862L3145,842L3148,829L3139,828L3135,837L3130,835L3136,822L3152,824L3161,828L3172,835L3170,848L3164,847L3166,837L3160,833L3157,843L3165,849L3167,863L3161,863L3159,851L3152,846L3149,846L3141,862L3134,862ZM3153,821L3157,812L3164,815L3160,824L3153,821Z" style="fill:rgb(199,183,121);"/>
            </g>
        </g>
    </g>
</svg>
