<?xml version="1.0" encoding="UTF-8" standalone="no"?>
<!DOCTYPE svg PUBLIC "-//W3C//DTD SVG 1.1//EN" "http://www.w3.org/Graphics/SVG/1.1/DTD/svg11.dtd">
<svg width="100%" height="100%" viewBox="0 0 100 100" version="1.1" xmlns="http://www.w3.org/2000/svg" xmlns:xlink="http://www.w3.org/1999/xlink" xml:space="preserve" xmlns:serif="http://www.serif.com/" style="fill-rule:evenodd;clip-rule:evenodd;stroke-linecap:square;stroke-linejoin:round;stroke-miterlimit:1.5;">
    <g transform="matrix(1,0,0,1,-3100,-900)">
        <g id="Water_Resistance_Up_L" transform="matrix(1,0,0,1,-800,-200)">
            <g id="glow" transform="matrix(1.03226,0,0,1.02703,491.935,379.73)">
                <path d="M3381,753.895L3381,765.579L3376.96,770.281L3387.78,781.158L3378.09,781.158L3377.12,787L3337.41,787L3319,765.579L3319,713L3381,713L3381,747.079L3387.78,753.895L3381,753.895Z" style="fill:none;stroke:rgb(174,247,134);stroke-width:11.65px;"/>
                <path d="M3381,753.895L3381,765.579L3376.96,770.281L3387.78,781.158L3378.09,781.158L3377.12,787L3337.41,787L3319,765.579L3319,713L3381,713L3381,747.079L3387.78,753.895L3381,753.895Z" style="fill:rgb(174,247,134);"/>
            </g>
            <g id="shadow" transform="matrix(1.03226,0,0,1.02703,491.935,379.73)">
                <path d="M3377.12,787L3337.41,787L3319,765.579L3319,713L3381,713L3381,747.079L3387.78,753.895L3381,753.895L3381,765.579L3376.96,770.281L3387.78,781.158L3378.09,781.158L3377.12,787Z" style="fill:none;stroke:rgb(27,27,27);stroke-width:3.88px;"/>
                <path d="M3377.12,787L3337.41,787L3319,765.579L3319,713L3381,713L3381,747.079L3387.78,753.895L3381,753.895L3381,765.579L3376.96,770.281L3387.78,781.158L3378.09,781.158L3377.12,787Z" style="fill:rgb(27,27,27);"/>
            </g>
            <g transform="matrix(1.03226,0,0,1.02703,-127.419,-31.0811)">
                <g id="color_03" transform="matrix(1,0,0,1,600,400)">
                    <path d="M3319,765.579L3319,713L3381,713L3381,765.579L3362.59,787L3337.41,787L3319,765.579Z" style="fill:rgb(88,167,232);"/>
                </g>
                <g id="color_02" transform="matrix(1,0,0,1,600,396)">
                    <path d="M3320.94,768.605L3320.94,718.947L3379.06,718.947L3379.06,768.605L3361.62,789.053L3338.38,789.053L3320.94,768.605Z" style="fill:rgb(63,109,142);"/>
                </g>
                <g id="color_01" transform="matrix(1,0,0,1,600,396)">
                    <path d="M3325.78,766.658L3325.78,723.816L3374.22,723.816L3374.22,766.658L3358.72,784.184L3341.28,784.184L3325.78,766.658Z" style="fill:rgb(88,167,232);"/>
                </g>
            </g>
            <g id="Waterblight">
                <g id="color_031" serif:id="color_03" transform="matrix(0.574074,0,0,0.64,2715.74,667.68)">
                    <path d="M2150,713C2150,713 2155,739 2163,747C2172,756 2177,756.834 2177,769C2177,782 2174,788 2150,788C2126,788 2123,781.166 2123,769C2123,756.834 2128,756 2137,747C2145,739 2150,713 2150,713Z" style="fill:rgb(46,87,134);stroke:rgb(46,87,134);stroke-width:16.45px;stroke-linecap:round;stroke-miterlimit:2;"/>
                </g>
                <g id="color_021" serif:id="color_02" transform="matrix(0.574074,0,0,0.64,2715.74,667.68)">
                    <path d="M2150,713C2150,713 2155,739 2163,747C2172,756 2177,756.834 2177,769C2177,782 2174,788 2150,788C2126,788 2123,781.166 2123,769C2123,756.834 2128,756 2137,747C2145,739 2150,713 2150,713Z" style="fill:rgb(68,139,197);"/>
                </g>
                <g id="color_011" serif:id="color_01" transform="matrix(0.393246,0,0,0.692308,3104.52,622.462)">
                    <path d="M2175.41,775C2175.41,775 2177,788 2150,788C2123,788 2124.59,775 2124.59,775C2124.59,775 2129.35,783 2150,783C2170.65,783 2175.41,775 2175.41,775Z" style="fill:rgb(70,109,144);"/>
                </g>
            </g>
            <g transform="matrix(0.818182,0,0,0.837209,738.182,220.977)">
                <clipPath id="_clip1">
                    <path d="M3885.22,1129.97L3885.22,1063.08L3965.89,1063.08L3965.89,1129.97L3942.67,1156.25L3908.44,1156.25L3885.22,1129.97Z"/>
                </clipPath>
                <g clip-path="url(#_clip1)">
                    <g id="color_012" serif:id="color_01" transform="matrix(1,0,0,1,700,401)">
                        <path d="M3235.33,751.667L3237.78,758.833L3262.22,758.833L3264.67,751.667L3284.22,751.667L3250,718.222L3215.78,751.667L3235.33,751.667Z" style="fill:rgb(27,27,27);"/>
                    </g>
                    <g id="color_013" serif:id="color_01" transform="matrix(1,0,0,1,700,367.556)">
                        <path d="M3235.33,751.667L3240.22,766L3259.78,766L3264.67,751.667L3285.44,751.667L3250,717.028L3214.56,751.667L3235.33,751.667Z" style="fill:rgb(27,27,27);"/>
                    </g>
                </g>
            </g>
            <g id="color_014" serif:id="color_01" transform="matrix(0.818182,0,0,0.837209,1310.91,556.698)">
                <path d="M3239,746.889L3240.22,754.056L3259.78,754.056L3261,746.889L3273.22,746.889L3250,724.194L3226.78,746.889L3239,746.889Z" style="fill:rgb(122,200,84);"/>
            </g>
            <g id="color_015" serif:id="color_01" transform="matrix(0.818182,0,0,0.837209,1310.91,528.698)">
                <path d="M3239,746.889L3241.44,754.056L3258.56,754.056L3261,746.889L3273.22,746.889L3250,724.194L3226.78,746.889L3239,746.889Z" style="fill:rgb(122,200,84);"/>
            </g>
        </g>
    </g>
</svg>
