<?xml version="1.0" encoding="UTF-8" standalone="no"?>
<!DOCTYPE svg PUBLIC "-//W3C//DTD SVG 1.1//EN" "http://www.w3.org/Graphics/SVG/1.1/DTD/svg11.dtd">
<svg width="100%" height="100%" viewBox="0 0 100 100" version="1.1" xmlns="http://www.w3.org/2000/svg" xmlns:xlink="http://www.w3.org/1999/xlink" xml:space="preserve" xmlns:serif="http://www.serif.com/" style="fill-rule:evenodd;clip-rule:evenodd;stroke-linecap:square;stroke-linejoin:round;stroke-miterlimit:1.5;">
    <g transform="matrix(1,0,0,1,-2100,-700)">
        <g id="Waterblight" transform="matrix(1,0,0,1,-1800,-400)">
            <g id="shadow" transform="matrix(1,0,0,1,1800,400)">
                <path d="M2150,713C2150,713 2155,739 2163,747C2172,756 2177,756.834 2177,769C2177,782 2174,788 2150,788C2126,788 2123,781.166 2123,769C2123,756.834 2128,756 2137,747C2145,739 2150,713 2150,713Z" style="fill:none;stroke:rgb(27,27,27);stroke-width:4px;"/>
                <path d="M2150,713C2150,713 2155,739 2163,747C2172,756 2177,756.834 2177,769C2177,782 2174,788 2150,788C2126,788 2123,781.166 2123,769C2123,756.834 2128,756 2137,747C2145,739 2150,713 2150,713Z" style="fill:rgb(27,27,27);"/>
            </g>
            <g id="color_02" transform="matrix(1,0,0,1,1800,400)">
                <path d="M2150,713C2150,713 2155,739 2163,747C2172,756 2177,756.834 2177,769C2177,782 2174,788 2150,788C2126,788 2123,781.166 2123,769C2123,756.834 2128,756 2137,747C2145,739 2150,713 2150,713Z" style="fill:rgb(111,153,187);"/>
            </g>
            <g id="color_01" transform="matrix(0.62963,0,0,1,2596.3,392)">
                <path d="M2175.41,775C2175.41,775 2177,788 2150,788C2123,788 2124.59,775 2124.59,775C2124.59,775 2129.35,783 2150,783C2170.65,783 2175.41,775 2175.41,775Z" style="fill:rgb(71,106,145);"/>
            </g>
        </g>
    </g>
</svg>
