<?xml version="1.0" encoding="UTF-8" standalone="no"?>
<!DOCTYPE svg PUBLIC "-//W3C//DTD SVG 1.1//EN" "http://www.w3.org/Graphics/SVG/1.1/DTD/svg11.dtd">
<svg width="100%" height="100%" viewBox="0 0 100 100" version="1.1" xmlns="http://www.w3.org/2000/svg" xmlns:xlink="http://www.w3.org/1999/xlink" xml:space="preserve" xmlns:serif="http://www.serif.com/" style="fill-rule:evenodd;clip-rule:evenodd;stroke-linecap:square;stroke-linejoin:round;stroke-miterlimit:1.5;">
    <g id="Webbed">
        <path d="M59,52l3,0c7.727,0 14,6.273 14,14l0,5c0,9.383 -7.617,17 -17,17l-18,0c-9.383,0 -17,-7.617 -17,-17l0,-5c0,-7.727 6.273,-14 14,-14l3,0l0,-2.142c-6.781,-0.972 -12,-6.81 -12,-13.858l0,-6c0,-9.383 7.617,-17 17,-17l8,0c9.383,0 17,7.617 17,17l0,6c0,7.048 -5.219,12.886 -12,13.858l0,2.142Z" style="fill:none;stroke:#1b1b1b;stroke-width:4px;"/>
        <path d="M59,52l3,0c7.727,0 14,6.273 14,14l0,5c0,9.383 -7.617,17 -17,17l-18,0c-9.383,0 -17,-7.617 -17,-17l0,-5c0,-7.727 6.273,-14 14,-14l3,0l0,-2.142c-6.781,-0.972 -12,-6.81 -12,-13.858l0,-6c0,-9.383 7.617,-17 17,-17l8,0c9.383,0 17,7.617 17,17l0,6c0,7.048 -5.219,12.886 -12,13.858l0,2.142Z" style="fill:#1b1b1b;"/>
        <g>
            <clipPath id="_clip1">
                <path d="M59,52l3,0c7.727,0 14,6.273 14,14l0,5c0,9.383 -7.617,17 -17,17l-18,-0c-9.383,-0 -17,-7.617 -17,-17l0,-5c0,-7.727 6.273,-14 14,-14l3,0l0,-2.142c-6.781,-0.972 -12,-6.81 -12,-13.858l0,-6c0,-9.383 7.617,-17 17,-17l8,-0c9.383,-0 17,7.617 17,17l0,6c0,7.048 -5.219,12.886 -12,13.858l0,2.142Z"/>
            </clipPath>
            <g clip-path="url(#_clip1)">
                <rect id="color_02" x="0" y="0" width="100" height="100" style="fill:#e5e1cf;"/>
                <path id="color_01" d="M100,22l0,6l-100,0l0,-6l100,0Zm0,15l0,6l-100,0l0,-6l100,0Zm0,21l0,6l-100,0l0,-6l100,0Zm0,15l0,6l-100,0l0,-6l100,0Z" style="fill:#b1a98d;"/>
            </g>
        </g>
    </g>
</svg>
