<?xml version="1.0" encoding="UTF-8" standalone="no"?>
<!DOCTYPE svg PUBLIC "-//W3C//DTD SVG 1.1//EN" "http://www.w3.org/Graphics/SVG/1.1/DTD/svg11.dtd">
<svg width="100%" height="100%" viewBox="0 0 100 100" version="1.1" xmlns="http://www.w3.org/2000/svg" xmlns:xlink="http://www.w3.org/1999/xlink" xml:space="preserve" xmlns:serif="http://www.serif.com/" style="fill-rule:evenodd;clip-rule:evenodd;stroke-linecap:square;stroke-linejoin:round;stroke-miterlimit:1.5;">
    <g transform="matrix(1,0,0,1,-2000,-800)">
        <g id="Webbed" transform="matrix(1,0,0,1,-1900,-300)">
            <path d="M3959,1152L3962,1152C3969.73,1152 3976,1158.27 3976,1166L3976,1171C3976,1180.38 3968.38,1188 3959,1188L3941,1188C3931.62,1188 3924,1180.38 3924,1171L3924,1166C3924,1158.27 3930.27,1152 3938,1152L3941,1152L3941,1149.86C3934.22,1148.89 3929,1143.05 3929,1136L3929,1130C3929,1120.62 3936.62,1113 3946,1113L3954,1113C3963.38,1113 3971,1120.62 3971,1130L3971,1136C3971,1143.05 3965.78,1148.89 3959,1149.86L3959,1152Z" style="fill:none;stroke:rgb(27,27,27);stroke-width:4px;"/>
            <path d="M3959,1152L3962,1152C3969.73,1152 3976,1158.27 3976,1166L3976,1171C3976,1180.38 3968.38,1188 3959,1188L3941,1188C3931.62,1188 3924,1180.38 3924,1171L3924,1166C3924,1158.27 3930.27,1152 3938,1152L3941,1152L3941,1149.86C3934.22,1148.89 3929,1143.05 3929,1136L3929,1130C3929,1120.62 3936.62,1113 3946,1113L3954,1113C3963.38,1113 3971,1120.62 3971,1130L3971,1136C3971,1143.05 3965.78,1148.89 3959,1149.86L3959,1152Z" style="fill:rgb(27,27,27);"/>
            <g>
                <clipPath id="_clip1">
                    <path d="M3959,1152L3962,1152C3969.73,1152 3976,1158.27 3976,1166L3976,1171C3976,1180.38 3968.38,1188 3959,1188L3941,1188C3931.62,1188 3924,1180.38 3924,1171L3924,1166C3924,1158.27 3930.27,1152 3938,1152L3941,1152L3941,1149.86C3934.22,1148.89 3929,1143.05 3929,1136L3929,1130C3929,1120.62 3936.62,1113 3946,1113L3954,1113C3963.38,1113 3971,1120.62 3971,1130L3971,1136C3971,1143.05 3965.78,1148.89 3959,1149.86L3959,1152Z"/>
                </clipPath>
                <g clip-path="url(#_clip1)">
                    <g id="color_02" transform="matrix(1,0,0,1,1900,300)">
                        <rect x="2000" y="800" width="100" height="100" style="fill:rgb(229,225,207);"/>
                    </g>
                    <g id="color_01" transform="matrix(1,0,0,1,1900,301)">
                        <path d="M2100,821L2100,827L2000,827L2000,821L2100,821ZM2100,836L2100,842L2000,842L2000,836L2100,836ZM2100,857L2100,863L2000,863L2000,857L2100,857ZM2100,872L2100,878L2000,878L2000,872L2100,872Z" style="fill:rgb(177,169,141);"/>
                    </g>
                </g>
            </g>
        </g>
    </g>
</svg>
