<?xml version="1.0" encoding="UTF-8" standalone="no"?>
<!DOCTYPE svg PUBLIC "-//W3C//DTD SVG 1.1//EN" "http://www.w3.org/Graphics/SVG/1.1/DTD/svg11.dtd">
<svg width="100%" height="100%" viewBox="0 0 100 100" version="1.1" xmlns="http://www.w3.org/2000/svg" xmlns:xlink="http://www.w3.org/1999/xlink" xml:space="preserve" xmlns:serif="http://www.serif.com/" style="fill-rule:evenodd;clip-rule:evenodd;stroke-linecap:square;stroke-linejoin:round;stroke-miterlimit:1.5;">
    <g transform="matrix(1,0,0,1,-2400,0)">
        <g id="Ammo_Skill" transform="matrix(1,0,0,1,400,0)">
            <g>
                <g id="color_02" transform="matrix(1.01333,0,0,1.01333,-26.8267,-0.16)">
                    <path d="M2087,34.5L2087,64.5L2064.5,87L2034.5,87L2012,64.5L2012,34.5L2034.5,12L2064.5,12L2087,34.5Z" style="fill:rgb(98,101,112);"/>
                </g>
                <g id="color_01" transform="matrix(0.746667,0,0,0.746667,519.707,13.04)">
                    <path d="M2087,34.5L2087,64.5L2064.5,87L2034.5,87L2012,64.5L2012,34.5L2034.5,12L2064.5,12L2087,34.5Z" style="fill:rgb(115,121,127);"/>
                </g>
            </g>
            <g>
                <g transform="matrix(0.409091,0,0,0.539474,1526.93,-29.4211)">
                    <path d="M1237,180L1237,188L1226,188L1226,180L1237,180ZM1259.55,180L1259.55,188L1247.45,188L1247.45,180L1259.55,180ZM1279.9,180L1279.9,188L1268.9,188L1268.9,180L1279.9,180ZM1276.05,141L1276.05,149L1229.85,149L1229.85,141L1276.05,141ZM1229.85,138L1229.85,133L1251.85,112L1254.05,112L1276.05,133L1276.05,138L1229.85,138ZM1276.05,152L1276.05,177L1229.85,177L1229.85,152L1276.05,152ZM1227.65,170L1227.65,176C1227.65,176 1227.65,177 1225.45,177C1224.35,177 1219.95,173 1219.95,173C1219.95,173 1224.35,169 1225.45,169C1227.65,169 1227.65,170 1227.65,170ZM1227.65,153L1227.65,159C1227.65,159 1227.65,160 1225.45,160C1224.35,160 1219.95,156 1219.95,156C1219.95,156 1224.35,152 1225.45,152C1227.65,152 1227.65,153 1227.65,153ZM1227.65,135L1227.65,141C1227.65,141 1227.65,142 1225.45,142C1224.35,142 1219.95,138 1219.95,138C1219.95,138 1224.35,134 1225.45,134C1227.65,134 1227.65,135 1227.65,135ZM1278.25,170C1278.25,170 1278.25,169 1280.45,169C1281.55,169 1285.95,173 1285.95,173C1285.95,173 1281.55,177 1280.45,177C1278.25,177 1278.25,176 1278.25,176L1278.25,170ZM1278.25,153C1278.25,153 1278.25,152 1280.45,152C1281.55,152 1285.95,156 1285.95,156C1285.95,156 1281.55,160 1280.45,160C1278.25,160 1278.25,159 1278.25,159L1278.25,153ZM1278.25,135C1278.25,135 1278.25,134 1280.45,134C1281.55,134 1285.95,138 1285.95,138C1285.95,138 1281.55,142 1280.45,142C1278.25,142 1278.25,141 1278.25,141L1278.25,135ZM1320.17,102.732L1320.17,111.073L1309.17,111.073L1309.17,102.732L1320.17,102.732ZM1309.17,118.488L1320.17,118.488L1320.17,126.829L1327.51,126.829L1327.51,163.902L1326.28,164.829L1303.06,164.829L1301.84,163.902L1301.84,126.829L1309.17,126.829L1309.17,118.488ZM1333.62,173.171L1294.51,173.171L1288.39,168.332L1288.39,121.268L1294.51,121.268L1294.51,111.073L1288.39,111.073L1288.39,107.366L1301.84,107.366L1301.84,123.122L1295.73,123.122L1295.73,166.683L1298.2,168.555L1329.92,168.555L1332.39,166.683L1332.39,123.122L1326.28,123.122L1326.28,107.366L1339.73,107.366L1339.73,111.073L1333.62,111.073L1333.62,121.268L1339.73,121.268L1339.73,168.332L1333.62,173.171Z" style="fill:rgb(27,27,27);stroke:rgb(27,27,27);stroke-width:14.62px;"/>
                </g>
                <g transform="matrix(0.45,0,0,0.526316,1477,-26.9474)">
                    <path id="color_021" serif:id="color_02" d="M1229,138L1229,133L1249,112L1251,112L1271,133L1271,138L1229,138ZM1271,152L1271,177L1229,177L1229,152L1271,152ZM1227,170L1227,176C1227,176 1227,177 1225,177C1224,177 1220,173 1220,173C1220,173 1224,169 1225,169C1227,169 1227,170 1227,170ZM1227,153L1227,159C1227,159 1227,160 1225,160C1224,160 1220,156 1220,156C1220,156 1224,152 1225,152C1227,152 1227,153 1227,153ZM1227,135L1227,141C1227,141 1227,142 1225,142C1224,142 1220,138 1220,138C1220,138 1224,134 1225,134C1227,134 1227,135 1227,135ZM1273,170C1273,170 1273,169 1275,169C1276,169 1280,173 1280,173C1280,173 1276,177 1275,177C1273,177 1273,176 1273,176L1273,170ZM1273,153C1273,153 1273,152 1275,152C1276,152 1280,156 1280,156C1280,156 1276,160 1275,160C1273,160 1273,159 1273,159L1273,153ZM1273,135C1273,135 1273,134 1275,134C1276,134 1280,138 1280,138C1280,138 1276,142 1275,142C1273,142 1273,141 1273,141L1273,135Z" style="fill:white;"/>
                    <g id="color_011" serif:id="color_01" transform="matrix(0.909091,0,0,1,110.955,0)">
                        <path d="M1237,180L1237,188L1226,188L1226,180L1237,180ZM1259.55,180L1259.55,188L1247.45,188L1247.45,180L1259.55,180ZM1279.9,180L1279.9,188L1268.9,188L1268.9,180L1279.9,180ZM1276.05,141L1276.05,149L1229.85,149L1229.85,141L1276.05,141Z" style="fill:rgb(170,170,170);"/>
                    </g>
                </g>
                <g transform="matrix(0.5,0,0,0.5,1339.5,-30)">
                    <path id="color_022" serif:id="color_02" d="M1455,112L1455,121L1446,121L1446,112L1455,112ZM1446,129L1455,129L1455,138L1461,138L1461,178L1460,179L1441,179L1440,178L1440,138L1446,138L1446,129Z" style="fill:white;"/>
                    <path id="color_012" serif:id="color_01" d="M1466,188L1434,188L1429,182.779L1429,132L1434,132L1434,121L1429,121L1429,117L1440,117L1440,134L1435,134L1435,181L1437.02,183.02L1462.98,183.02L1465,181L1465,134L1460,134L1460,117L1471,117L1471,121L1466,121L1466,132L1471,132L1471,182.779L1466,188ZM1446,174L1450,168L1454,174L1446,174ZM1446,161L1450,155L1454,161L1446,161ZM1446,148L1450,142L1454,148L1446,148Z" style="fill:rgb(170,170,170);"/>
                </g>
            </g>
        </g>
    </g>
</svg>
