<?xml version="1.0" encoding="UTF-8" standalone="no"?><!DOCTYPE svg PUBLIC "-//W3C//DTD SVG 1.1//EN" "http://www.w3.org/Graphics/SVG/1.1/DTD/svg11.dtd"><svg width="100%" height="100%" viewBox="0 0 417 417" version="1.1" xmlns="http://www.w3.org/2000/svg" xmlns:xlink="http://www.w3.org/1999/xlink" xml:space="preserve" xmlns:serif="http://www.serif.com/" style="fill-rule:evenodd;clip-rule:evenodd;stroke-linecap:square;stroke-linejoin:round;stroke-miterlimit:1.5;"><g id="Empower_Skill"><g><path id="color_02" d="M366.667,145l-0,126.667l-95,95l-126.667,-0l-95,-95l-0,-126.667l95,-95l126.667,-0l95,95Z" style="fill:#694459;"/><path id="color_01" d="M325,161.667l0,93.333l-70,70l-93.333,0l-70,-70l-0,-93.333l70,-70l93.333,-0l70,70Z" style="fill:#7a5265;"/></g><g><clipPath id="_clip1"><path d="M358.333,148.333l0,120l-90,90l-120,0l-90,-90l0,-120l90,-90l120,0l90,90Z"/></clipPath><g clip-path="url(#_clip1)"><g><path id="shadow" d="M337.5,316.523l0,37.644l-258.333,-0l-0,-39.236l70.833,5.902l-62.5,-104.166l66.667,16.666l-12.5,-133.333l66.666,75l31.25,-83.333l22.917,91.666l58.333,-33.333l-33.333,100l45.833,-16.667l-37.5,87.5l41.667,-4.31Z" style="fill:#1b1b1b;stroke:#1b1b1b;stroke-width:29.17px;"/><path id="color_021" serif:id="color_02" d="M141.667,100l12.5,133.333l-66.667,-16.666l62.5,104.166l-150,-12.5l0,45.834l416.667,-0l-0,-45.834l-120.834,12.5l37.5,-87.5l-45.833,16.667l33.333,-100l-58.333,33.333l-22.917,-91.666l-31.25,83.333l-66.666,-75Z" style="fill:#945442;"/><path id="color_011" serif:id="color_01" d="M162.5,150l29.167,129.167l-54.167,-25l37.5,100l79.167,-0l50,-91.667l-33.334,4.167l12.5,-75l-33.333,33.333l-8.333,-100l-33.334,70.833l-45.833,-45.833Z" style="fill:#c09874;"/></g><g><path id="shadow1" serif:id="shadow" d="M187.5,221.358l-67.039,-43.536l9.078,-13.978l62.09,40.323l4.204,-0l0,-50l29.167,-0l0,50l5.782,-0l62.091,-40.323l9.077,13.978l-68.617,44.56l0,41.484l42.011,86.134l-25,0l-36.58,-75l-6.351,0l-36.58,75l-25,0l41.667,-85.429l-0,-43.213Z" style="fill:#1b1b1b;stroke:#1b1b1b;stroke-width:29.17px;"/><path id="color_012" serif:id="color_01" d="M187.5,221.358l-67.039,-43.536l9.078,-13.978l62.09,40.323l4.204,-0l0,-50l29.167,-0l0,50l5.782,-0l62.091,-40.323l9.077,13.978l-68.617,44.56l0,41.484l42.011,86.134l-25,0l-36.58,-75l-6.351,0l-36.58,75l-25,0l41.667,-85.429l-0,-43.213Z" style="fill:#c6b779;"/><rect x="195.833" y="191.667" width="29.167" height="12.5" style="fill:#a2945a;"/></g></g></g></g></svg>