<?xml version="1.0" encoding="UTF-8" standalone="no"?>
<!DOCTYPE svg PUBLIC "-//W3C//DTD SVG 1.1//EN" "http://www.w3.org/Graphics/SVG/1.1/DTD/svg11.dtd">
<svg width="100%" height="100%" viewBox="0 0 100 100" version="1.1" xmlns="http://www.w3.org/2000/svg" xmlns:xlink="http://www.w3.org/1999/xlink" xml:space="preserve" xmlns:serif="http://www.serif.com/" style="fill-rule:evenodd;clip-rule:evenodd;stroke-linecap:square;stroke-linejoin:round;stroke-miterlimit:1.5;">
    <g transform="matrix(1,0,0,1,-3100,0)">
        <g id="Gathering_Skill" transform="matrix(1,0,0,1,1100,0)">
            <g>
                <g id="color_02" transform="matrix(1.01333,0,0,1.01333,-26.8267,-0.16)">
                    <path d="M2087,34.5L2087,64.5L2064.5,87L2034.5,87L2012,64.5L2012,34.5L2034.5,12L2064.5,12L2087,34.5Z" style="fill:rgb(103,93,58);"/>
                </g>
                <g id="color_01" transform="matrix(0.746667,0,0,0.746667,519.707,13.04)">
                    <path d="M2087,34.5L2087,64.5L2064.5,87L2034.5,87L2012,64.5L2012,34.5L2034.5,12L2064.5,12L2087,34.5Z" style="fill:rgb(120,112,66);"/>
                </g>
            </g>
            <g>
                <g id="shadow" transform="matrix(1,0,0,1,-1100,0)">
                    <path d="M3137.58,45L3126,45L3119,44L3121,39L3126,42L3130,39L3126,34L3130,32L3132,36L3132,39L3138,39L3137,31L3142,31L3140,39L3140,44.589C3144.16,44 3148,44 3148,44L3155,44C3157,44 3160.33,46.333 3162,48C3163.67,49.667 3165.31,55 3166,55C3167,55 3165.17,46.167 3163,44C3160.83,41.833 3153,41 3153,41C3153,41 3156.33,38 3158,37C3159.54,36.076 3161.25,34.596 3163,35C3163.69,35.159 3164.64,35.482 3165.66,35.926L3163.29,38.293L3164.71,39.707L3167.55,36.866C3169.1,37.744 3170.49,38.841 3171,40C3172.83,44.167 3176,54.664 3176,60C3176,63 3173,72 3167,72L3133,72C3131,72 3128,69 3128,66C3128,62.134 3128.45,52.869 3130,49C3130.83,46.924 3134.07,45.71 3137.58,45ZM3166.75,34.834L3164,33L3164,27L3169,27L3176,33L3176,37L3170,37L3168.45,35.966L3170.72,33.697L3169.3,32.282L3166.75,34.834Z" style="fill:rgb(27,27,27);stroke:rgb(27,27,27);stroke-width:7px;"/>
                </g>
                <g id="color_04" transform="matrix(1,0,0,1,-1100,0)">
                    <path d="M3119,44L3121,39L3126,42L3126,45L3119,44ZM3126,34L3130,32L3132,36L3132,39L3130,39L3126,34ZM3138,39L3137,31L3142,31L3140,39L3138,39Z" style="fill:rgb(176,96,96);"/>
                </g>
                <g id="color_03" transform="matrix(1,0,0,1,-1100,0)">
                    <path d="M3175.16,64C3173.89,67.658 3171.17,72 3167,72L3133,72C3131,72 3128,69 3128,66C3128,65.437 3128.01,64.759 3128.03,64L3129,63L3175,63L3175.16,64Z" style="fill:rgb(165,153,105);"/>
                </g>
                <g id="color_021" serif:id="color_02" transform="matrix(1,0,0,1,-1100,0)">
                    <path d="M3128.03,64C3128.16,59.549 3128.68,52.305 3130,49C3132,44 3148,44 3148,44L3155,44C3157,44 3160.33,46.333 3162,48C3163.67,49.667 3165.31,55 3166,55C3167,55 3165.17,46.167 3163,44C3160.83,41.833 3153,41 3153,41C3153,41 3156.33,38 3158,37C3159.54,36.076 3161.25,34.596 3163,35C3163.69,35.159 3164.64,35.482 3165.66,35.926L3163.29,38.293L3164.71,39.707L3167.55,36.866C3169.1,37.744 3170.49,38.841 3171,40C3172.83,44.167 3176,54.664 3176,60C3176,60.916 3175.72,62.392 3175.16,64L3128.03,64ZM3166.75,34.834L3164,33L3164,27L3169,27L3176,33L3176,37L3170,37L3168.45,35.966L3170.72,33.697L3169.3,32.282L3166.75,34.834Z" style="fill:rgb(192,179,125);"/>
                </g>
                <g id="color_011" serif:id="color_01" transform="matrix(1,0,0,1,-1000.5,-3)">
                    <path d="M3049,63L3053,68L3045,68L3049,63ZM3037.5,63L3041.5,68L3033.5,68L3037.5,63ZM3060.5,63L3064.5,68L3056.5,68L3060.5,63Z" style="fill:rgb(55,51,46);"/>
                </g>
            </g>
        </g>
    </g>
</svg>
