<?xml version="1.0" encoding="UTF-8" standalone="no"?>
<!DOCTYPE svg PUBLIC "-//W3C//DTD SVG 1.1//EN" "http://www.w3.org/Graphics/SVG/1.1/DTD/svg11.dtd">
<svg width="100%" height="100%" viewBox="0 0 100 100" version="1.1" xmlns="http://www.w3.org/2000/svg" xmlns:xlink="http://www.w3.org/1999/xlink" xml:space="preserve" xmlns:serif="http://www.serif.com/" style="fill-rule:evenodd;clip-rule:evenodd;stroke-linecap:square;stroke-linejoin:round;stroke-miterlimit:1.5;">
    <g transform="matrix(1,0,0,1,-2900,0)">
        <g id="Skill_10" transform="matrix(1,0,0,1,900,0)">
            <g>
                <g id="color_02" transform="matrix(1.01333,0,0,1.01333,-26.8267,-0.16)">
                    <path d="M2087,34.5L2087,64.5L2064.5,87L2034.5,87L2012,64.5L2012,34.5L2034.5,12L2064.5,12L2087,34.5Z" style="fill:rgb(63,77,118);"/>
                </g>
                <g id="color_01" transform="matrix(0.746667,0,0,0.746667,519.707,13.04)">
                    <path d="M2087,34.5L2087,64.5L2064.5,87L2034.5,87L2012,64.5L2012,34.5L2034.5,12L2064.5,12L2087,34.5Z" style="fill:rgb(72,89,133);"/>
                </g>
            </g>
            <g>
                <clipPath id="_clip1">
                    <path d="M2086,35.6L2086,64.4L2064.4,86L2035.6,86L2014,64.4L2014,35.6L2035.6,14L2064.4,14L2086,35.6Z"/>
                </clipPath>
                <g clip-path="url(#_clip1)">
                    <g>
                        <g id="shadow" transform="matrix(1,0,0,1,-900,0)">
                            <path d="M2978,70C2975.83,73.833 2965,79 2965,79L2952,76L2932,80C2932,80 2926.5,73.5 2925,71C2923.53,68.558 2922,63 2922,63L2929,65C2929,65 2926.33,55 2927,50C2927.67,45 2933,35 2933,35C2933,35 2933.17,41 2934,43C2934.72,44.741 2937,47 2938,47C2939,47 2941,43 2941,41C2941,39 2939,38 2939,34C2939,31.251 2943.49,26.949 2947,25C2951.5,22.5 2966,19 2966,19C2966,19 2960.33,26.833 2959,30C2957.96,32.477 2958,35.667 2959,38C2960,40.333 2963.83,43.667 2965,44C2966.17,44.333 2966.11,41.37 2966,40C2965.83,37.833 2964,31 2964,31C2964,31 2971.63,35.448 2974,39C2976.67,43 2979.33,49.833 2980,55C2980.65,60.003 2980.17,66.167 2978,70Z" style="fill:rgb(27,27,27);stroke:rgb(27,27,27);stroke-width:7px;"/>
                        </g>
                        <g id="color_021" serif:id="color_02" transform="matrix(1,0,0,1,-900,0)">
                            <path d="M2978,70C2975.83,73.833 2965,79 2965,79L2952,76L2932,80C2932,80 2926.5,73.5 2925,71C2923.53,68.558 2922,63 2922,63L2929,65C2929,65 2926.33,55 2927,50C2927.67,45 2933,35 2933,35C2933,35 2933.17,41 2934,43C2934.72,44.741 2937,47 2938,47C2939,47 2941,43 2941,41C2941,39 2939,38 2939,34C2939,31.251 2943.49,26.949 2947,25C2951.5,22.5 2966,19 2966,19C2966,19 2960.33,26.833 2959,30C2957.96,32.477 2958,35.667 2959,38C2960,40.333 2963.83,43.667 2965,44C2966.17,44.333 2966.11,41.37 2966,40C2965.83,37.833 2964,31 2964,31C2964,31 2971.63,35.448 2974,39C2976.67,43 2979.33,49.833 2980,55C2980.65,60.003 2980.17,66.167 2978,70Z" style="fill:rgb(125,107,255);"/>
                        </g>
                        <g id="color_011" serif:id="color_01" transform="matrix(1,0,0,1,-900,0)">
                            <path d="M2928,67C2928,67 2929.74,72.179 2932,73C2935.67,74.333 2950,75 2950,75C2950,75 2968.83,73.167 2973,70C2976.75,67.148 2975.71,60.661 2975,56C2974.17,50.5 2968,37 2968,37C2968,37 2969.33,47 2967,48C2964.67,49 2952.17,44 2951,40C2949.83,36 2960,24 2960,24C2960,24 2946.33,28.167 2944,32C2941.67,35.833 2946.83,44.5 2946,47C2945.17,49.5 2940,51.5 2938,51C2936,50.5 2934,44 2934,44C2934,44 2930.59,50.545 2931,54C2931.5,58.167 2937,69 2937,69L2928,67Z" style="fill:rgb(108,167,255);"/>
                        </g>
                    </g>
                    <g>
                        <g id="shadow1" serif:id="shadow" transform="matrix(1,0,0,1,-900,0)">
                            <path d="M2947,37L2954,37L2954,51L2957,52L2963,67L2968,71L2967,74L2961,70L2956,58L2956,68L2967,74L2967,78L2964,78L2951,74L2938,78L2934,78L2934,74L2945,69L2946,58L2941,69L2936,73L2934,70L2939,66L2944,52L2947,51L2947,37Z" style="fill:rgb(27,27,27);stroke:rgb(27,27,27);stroke-width:7px;"/>
                        </g>
                        <g id="color_022" serif:id="color_02" transform="matrix(1,0,0,1,-900,0)">
                            <path d="M2947,37L2954,37L2954,51L2957,52L2963,67L2968,71L2967,74L2961,70L2956,58L2956,68L2967,74L2967,78L2964,78L2951,74L2938,78L2934,78L2934,74L2945,69L2946,58L2941,69L2936,73L2934,70L2939,66L2944,52L2947,51L2947,37Z" style="fill:rgb(198,183,121);"/>
                        </g>
                        <g id="color_012" serif:id="color_01" transform="matrix(1,0,0,1,-800,2)">
                            <rect x="2847" y="46" width="7" height="3" style="fill:rgb(162,148,90);"/>
                        </g>
                    </g>
                </g>
            </g>
        </g>
    </g>
</svg>
