<?xml version="1.0" encoding="UTF-8" standalone="no"?>
<!DOCTYPE svg PUBLIC "-//W3C//DTD SVG 1.1//EN" "http://www.w3.org/Graphics/SVG/1.1/DTD/svg11.dtd">
<svg width="100%" height="100%" viewBox="0 0 100 100" version="1.1" xmlns="http://www.w3.org/2000/svg" xmlns:xlink="http://www.w3.org/1999/xlink" xml:space="preserve" xmlns:serif="http://www.serif.com/" style="fill-rule:evenodd;clip-rule:evenodd;stroke-linecap:square;stroke-linejoin:round;stroke-miterlimit:1.5;">
    <g transform="matrix(1,0,0,1,-3300,0)">
        <g id="Set_Skill" transform="matrix(1,0,0,1,1300,0)">
            <g>
                <g id="color_02" transform="matrix(1.01333,0,0,1.01333,-26.8267,-0.16)">
                    <path d="M2087,34.5L2087,64.5L2064.5,87L2034.5,87L2012,64.5L2012,34.5L2034.5,12L2064.5,12L2087,34.5Z" style="fill:rgb(120,78,64);"/>
                </g>
                <g id="color_01" transform="matrix(0.746667,0,0,0.746667,519.707,13.04)">
                    <path d="M2087,34.5L2087,64.5L2064.5,87L2034.5,87L2012,64.5L2012,34.5L2034.5,12L2064.5,12L2087,34.5Z" style="fill:rgb(100,66,54);"/>
                </g>
            </g>
            <g>
                <g id="shadow" transform="matrix(1,0,0,1,-1200,0)">
                    <path d="M3247,61L3235,61L3235,59L3229,59L3229,63L3226,63L3223,61L3223,39L3225,39L3225,31L3230,31L3230,24C3230,24 3230,22 3232,22L3242,22L3242,27L3258,27L3258,22L3268,22C3270,22 3270,24 3270,24L3270,31L3275,31L3275,39L3277,39L3277,61L3274,63L3271,63L3271,59L3265,59L3265,61L3253,61L3253,71L3259,71L3261,75L3268,75L3268,78L3232,78L3232,75L3239,75L3241,71L3247,71L3247,61Z" style="fill:rgb(27,27,27);stroke:rgb(27,27,27);stroke-width:7px;"/>
                </g>
                <g id="color_021" serif:id="color_02" transform="matrix(1,0,0,1,-1200,0)">
                    <path d="M3230,37L3225,37L3225,31L3228,31L3228,35L3230,35L3230,37ZM3275,37L3270,37L3270,35L3272,35L3272,31L3275,31L3275,37ZM3240,35L3244,35L3244,27L3256,27L3256,35L3260,35L3260,32L3265,37L3265,38L3259,38L3259,41L3241,41L3241,38L3235,38L3235,37L3240,32L3240,35ZM3232,75L3239,75L3241,71L3259,71L3261,75L3268,75L3268,78L3232,78L3232,75ZM3253,63L3253,69L3247,69L3247,63L3253,63ZM3239,40L3239,44L3235,44L3235,40L3239,40ZM3265,40L3265,44L3261,44L3261,40L3265,40Z" style="fill:rgb(162,125,114);"/>
                </g>
                <g id="color_011" serif:id="color_01" transform="matrix(1,0,0,1,-1200,0)">
                    <path d="M3265,57L3265,61L3235,61L3235,57L3237,54L3263,54L3265,57ZM3238,50L3235,48L3235,46L3241,46L3241,43L3259,43L3259,46L3265,46L3265,48L3262,50L3262,52L3238,52L3238,50ZM3230,39L3230,41L3223,41L3223,39L3230,39ZM3223,43L3230,43L3229,51L3223,51L3223,43ZM3223,53L3229,53L3229,63L3226,63L3223,61L3223,53ZM3231,53L3233,55L3233,59L3231,59L3231,53ZM3230,24C3230,24 3230,22 3232,22L3242,22L3242,26L3235,33L3230,33L3230,24ZM3270,39L3277,39L3277,41L3270,41L3270,39ZM3277,43L3277,51L3271,51L3270,43L3277,43ZM3277,53L3277,61L3274,63L3271,63L3271,53L3277,53ZM3269,53L3269,59L3267,59L3267,55L3269,53ZM3270,24L3270,33L3258,26L3258,22L3268,22C3270,22 3270,24 3270,24Z" style="fill:rgb(242,187,170);"/>
                </g>
            </g>
        </g>
    </g>
</svg>
