<?xml version="1.0" encoding="UTF-8" standalone="no"?>
<!DOCTYPE svg PUBLIC "-//W3C//DTD SVG 1.1//EN" "http://www.w3.org/Graphics/SVG/1.1/DTD/svg11.dtd">
<svg width="100%" height="100%" viewBox="0 0 100 100" version="1.1" xmlns="http://www.w3.org/2000/svg" xmlns:xlink="http://www.w3.org/1999/xlink" xml:space="preserve" xmlns:serif="http://www.serif.com/" style="fill-rule:evenodd;clip-rule:evenodd;stroke-linecap:square;stroke-linejoin:round;stroke-miterlimit:1.5;">
    <g id="Sharpness_Skill">
        <g>
            <path id="color_02" d="M88,34.8l0,30.4l-22.8,22.8l-30.4,0l-22.8,-22.8l0,-30.4l22.8,-22.8l30.4,0l22.8,22.8Z" style="fill:#726841;"/>
            <path id="color_01" d="M78,38.8l0,22.4l-16.8,16.8l-22.4,0l-16.8,-16.8l0,-22.4l16.8,-16.8l22.4,-0l16.8,16.8Z" style="fill:#857d4b;"/>
        </g>
        <g>
            <path id="shadow" d="M32,72l-0,-43.579l1.219,0l10.359,10.29l0,22.394l-6.094,0l0,10.895l-5.484,0Zm18.281,-46c0,0 1.016,3.329 1.828,4.237c0.727,0.812 3.047,1.21 3.047,1.21c0,0 -2.307,0.898 -3.047,1.816c-0.812,1.009 -1.828,4.237 -1.828,4.237c0,0 -1.015,-3.228 -1.828,-4.237c-0.74,-0.918 -3.047,-1.816 -3.047,-1.816c0,0 2.32,-0.398 3.047,-1.21c0.813,-0.908 1.828,-4.237 1.828,-4.237Zm3.047,16.947l4.266,-4.236l9.14,-0l4.266,4.236l-0,29.053l-17.672,0l0,-29.053Z" style="fill:#1b1b1b;stroke:#1b1b1b;stroke-width:7px;"/>
            <path id="color_03" d="M53.328,63.526l1.219,0l2.437,2.421l14.016,0l-0,6.053l-17.672,0l0,-8.474Zm-14.32,-2.421l-7.008,0l-0,-32.684l1.219,0l6.515,6.471l-4.687,4.726l4.265,4.54l-4.265,4.237l4.265,4.539l-4.265,4.237l3.961,3.934Z" style="fill:#ba9a4e;"/>
            <path id="color_021" serif:id="color_02" d="M65.664,38.711l1.07,-0l4.266,4.236l-0,21.185l-5.484,-0l-0,-2.421l2.467,-2.451l-0,-14.497l-2.319,-2.303l0,-3.749Zm-1.983,25.421l-6.697,-0l-3.656,-3.632l0,-17.553l4.266,-4.236l5.484,-0l0,4.236l2.441,2.424l-0,13.313l-1.838,1.826l-0,3.622Zm-26.197,-1.211l0,9.079l-5.484,0l-0,-9.079l5.484,0Zm3.504,-26.783l2.59,2.573l0,22.394l-2.133,0l-3.961,-3.934l4.25,-4.146l-4.25,-4.63l4.266,-4.237l-4.266,-4.54l3.504,-3.48Zm9.293,-10.138c0,0 1.016,3.329 1.828,4.237c0.727,0.812 3.047,1.21 3.047,1.21c0,0 -2.307,0.898 -3.047,1.816c-0.812,1.009 -1.828,4.237 -1.828,4.237c0,0 -1.015,-3.228 -1.828,-4.237c-0.74,-0.918 -3.047,-1.816 -3.047,-1.816c0,0 2.32,-0.398 3.047,-1.21c0.813,-0.908 1.828,-4.237 1.828,-4.237Z" style="fill:#f7cf65;"/>
            <path id="color_011" serif:id="color_01" d="M41.445,61.105l-2.437,0l-3.961,-3.934l4.265,-4.237l-4.265,-4.539l4.265,-4.237l-4.265,-4.54l4.687,-4.726l1.254,1.246l-3.504,3.48l4.266,4.54l-4.266,4.237l4.25,4.63l-4.25,4.146l3.961,3.934Z" style="fill:#6d5d2f;"/>
        </g>
    </g>
</svg>
