<?xml version="1.0" encoding="UTF-8" standalone="no"?>
<!DOCTYPE svg PUBLIC "-//W3C//DTD SVG 1.1//EN" "http://www.w3.org/Graphics/SVG/1.1/DTD/svg11.dtd">
<svg width="100%" height="100%" viewBox="0 0 100 100" version="1.1" xmlns="http://www.w3.org/2000/svg" xmlns:xlink="http://www.w3.org/1999/xlink" xml:space="preserve" xmlns:serif="http://www.serif.com/" style="fill-rule:evenodd;clip-rule:evenodd;stroke-linecap:square;stroke-linejoin:round;stroke-miterlimit:1.5;">
    <g transform="matrix(1,0,0,1,-2300,0)">
        <g id="Sharpness_Skill" transform="matrix(1,0,0,1,300,0)">
            <g>
                <g id="color_02" transform="matrix(1.01333,0,0,1.01333,-26.8267,-0.16)">
                    <path d="M2087,34.5L2087,64.5L2064.5,87L2034.5,87L2012,64.5L2012,34.5L2034.5,12L2064.5,12L2087,34.5Z" style="fill:rgb(114,104,65);"/>
                </g>
                <g id="color_01" transform="matrix(0.746667,0,0,0.746667,519.707,13.04)">
                    <path d="M2087,34.5L2087,64.5L2064.5,87L2034.5,87L2012,64.5L2012,34.5L2034.5,12L2064.5,12L2087,34.5Z" style="fill:rgb(133,125,75);"/>
                </g>
            </g>
            <g transform="matrix(0.609375,0,0,0.605263,1532.92,18.7368)">
                <g id="shadow" transform="matrix(1,0,0,1,-300,0)">
                    <path d="M1119,88L1119,16L1121,16L1138,33L1138,70L1128,70L1128,88L1119,88ZM1149,12C1149,12 1150.67,17.5 1152,19C1153.19,20.342 1157,21 1157,21C1157,21 1153.21,22.482 1152,24C1150.67,25.667 1149,31 1149,31C1149,31 1147.33,25.667 1146,24C1144.79,22.482 1141,21 1141,21C1141,21 1144.81,20.342 1146,19C1147.33,17.5 1149,12 1149,12ZM1154,40L1161,33L1176,33L1183,40L1183,88L1154,88L1154,40Z" style="fill:rgb(27,27,27);stroke:rgb(27,27,27);stroke-width:11.53px;"/>
                </g>
                <g id="color_03" transform="matrix(1,0,0,1,-300,0)">
                    <path d="M1154,74L1156,74L1160,78L1183,78L1183,88L1154,88L1154,74ZM1130.5,70L1119,70L1119,16L1121,16L1131.69,26.692L1124,34.5L1131,42L1124,49L1131,56.5L1124,63.5L1130.5,70Z" style="fill:rgb(186,154,78);"/>
                </g>
                <g id="color_021" serif:id="color_02" transform="matrix(1,0,0,1,-300,0)">
                    <path d="M1174.24,33L1176,33L1183,40L1183,75L1174,75L1174,71L1178.05,66.952L1178.05,43L1174.24,39.195L1174.24,33ZM1170.99,75L1160,75L1154,69L1154,40L1161,33L1170,33L1170,40L1174.01,44.005L1174.01,66L1170.99,69.016L1170.99,75ZM1128,73L1128,88L1119,88L1119,73L1128,73ZM1133.75,28.75L1138,33L1138,70L1134.5,70L1128,63.5L1134.97,56.651L1128,49L1135,42L1128,34.5L1133.75,28.75ZM1149,12C1149,12 1150.67,17.5 1152,19C1153.19,20.342 1157,21 1157,21C1157,21 1153.21,22.482 1152,24C1150.67,25.667 1149,31 1149,31C1149,31 1147.33,25.667 1146,24C1144.79,22.482 1141,21 1141,21C1141,21 1144.81,20.342 1146,19C1147.33,17.5 1149,12 1149,12Z" style="fill:rgb(247,207,101);"/>
                </g>
                <g id="color_011" serif:id="color_01" transform="matrix(1,0,0,1,-300,0)">
                    <path d="M1134.5,70L1130.5,70L1124,63.5L1131,56.5L1124,49L1131,42L1124,34.5L1131.69,26.692L1133.75,28.75L1128,34.5L1135,42L1128,49L1134.97,56.651L1128,63.5L1134.5,70Z" style="fill:rgb(109,93,47);"/>
                </g>
            </g>
        </g>
    </g>
</svg>
