<?xml version="1.0" encoding="UTF-8" standalone="no"?>
<!DOCTYPE svg PUBLIC "-//W3C//DTD SVG 1.1//EN" "http://www.w3.org/Graphics/SVG/1.1/DTD/svg11.dtd">
<svg width="100%" height="100%" viewBox="0 0 100 100" version="1.1" xmlns="http://www.w3.org/2000/svg" xmlns:xlink="http://www.w3.org/1999/xlink" xml:space="preserve" xmlns:serif="http://www.serif.com/" style="fill-rule:evenodd;clip-rule:evenodd;stroke-linecap:square;stroke-linejoin:round;stroke-miterlimit:1.5;">
    <g transform="matrix(1,0,0,1,-2000,0)">
        <g id="Skill_01">
            <g>
                <g id="color_02" transform="matrix(1.01333,0,0,1.01333,-26.8267,-0.16)">
                    <path d="M2087,34.5L2087,64.5L2064.5,87L2034.5,87L2012,64.5L2012,34.5L2034.5,12L2064.5,12L2087,34.5Z" style="fill:rgb(114,65,65);"/>
                </g>
                <g id="color_01" transform="matrix(0.746667,0,0,0.746667,519.707,13.04)">
                    <path d="M2087,34.5L2087,64.5L2064.5,87L2034.5,87L2012,64.5L2012,34.5L2034.5,12L2064.5,12L2087,34.5Z" style="fill:rgb(133,78,74);"/>
                </g>
            </g>
            <g>
                <path id="shadow" d="M2061,60L2061,63L2069,63L2069,67L2054,67L2054,78L2047,78L2047,67L2033,67L2033,63L2040,63L2040,60C2040,60 2041.74,41.903 2041,36C2040,28 2033,25 2033,25C2033,25 2051,24 2058,33C2063.28,39.79 2061,60 2061,60Z" style="fill:rgb(27,27,27);stroke:rgb(27,27,27);stroke-width:7px;"/>
                <path id="color_03" d="M2054,70L2054,78L2047,78L2047,70L2054,70ZM2069,63L2069,67L2033,67L2033,63L2069,63Z" style="fill:rgb(155,124,97);"/>
                <path id="color_021" serif:id="color_02" d="M2033,25C2033,25 2040,28 2041,36C2041.74,41.903 2040,60 2040,60L2061,60C2061,60 2063.28,39.79 2058,33C2051,24 2033,25 2033,25Z" style="fill:rgb(122,120,127);"/>
                <path id="color_011" serif:id="color_01" d="M2033,25C2033,25 2047,25 2052,35C2057.22,45.431 2054,60 2054,60L2061,60C2061,60 2063.28,39.79 2058,33C2051,24 2033,25 2033,25Z" style="fill:rgb(204,204,204);"/>
            </g>
        </g>
    </g>
</svg>
