<?xml version="1.0" encoding="UTF-8" standalone="no"?>
<!DOCTYPE svg PUBLIC "-//W3C//DTD SVG 1.1//EN" "http://www.w3.org/Graphics/SVG/1.1/DTD/svg11.dtd">
<svg width="100%" height="100%" viewBox="0 0 100 100" version="1.1" xmlns="http://www.w3.org/2000/svg" xmlns:xlink="http://www.w3.org/1999/xlink" xml:space="preserve" xmlns:serif="http://www.serif.com/" style="fill-rule:evenodd;clip-rule:evenodd;stroke-linecap:square;stroke-linejoin:round;stroke-miterlimit:1.5;">
    <g transform="matrix(1,0,0,1,-3000,0)">
        <g id="Skill_11" transform="matrix(1,0,0,1,1000,0)">
            <g>
                <g id="color_02" transform="matrix(1.01333,0,0,1.01333,-26.8267,-0.16)">
                    <path d="M2087,34.5L2087,64.5L2064.5,87L2034.5,87L2012,64.5L2012,34.5L2034.5,12L2064.5,12L2087,34.5Z" style="fill:rgb(57,97,99);"/>
                </g>
                <g id="color_01" transform="matrix(0.746667,0,0,0.746667,519.707,13.04)">
                    <path d="M2087,34.5L2087,64.5L2064.5,87L2034.5,87L2012,64.5L2012,34.5L2034.5,12L2064.5,12L2087,34.5Z" style="fill:rgb(67,117,113);"/>
                </g>
            </g>
            <g>
                <g id="shadow" transform="matrix(1,0,0,1,-1000,0)">
                    <path d="M3057,51C3062,52 3062.83,53.167 3065,55C3067.17,56.833 3070,61.206 3070,64L3070,70C3070,70 3070,73 3066.96,73.041L3033.04,73.041C3030,73 3030,70 3030,70L3030,64C3030,61.206 3032.83,56.833 3035,55C3037.17,53.167 3038,52 3043,51C3044.96,50.608 3044,46 3043,45C3041,43 3037.82,39 3039,39C3044,39 3042,41 3045,41C3048,41 3048.33,36 3050,36C3051.67,36 3052,41 3055,41C3058,41 3056,39 3061,39C3062,39 3058.73,43.266 3057,45C3056,46 3055.33,50.667 3057,51ZM3049,32L3047,24L3053,24L3051,32L3049,32ZM3060,34L3065,28L3068,32L3062,36L3060,34ZM3071,41L3071,46L3063,44L3063,42L3071,41ZM3037,41L3037,43L3029,45L3029,39L3037,41ZM3036,27L3040,33L3038,35L3032,30L3036,27Z" style="fill:rgb(27,27,27);stroke:rgb(27,27,27);stroke-width:7px;"/>
                </g>
                <g id="color_04" transform="matrix(1,0,0,1,-1000,0)">
                    <path d="M3049,32L3047,24L3053,24L3051,32L3049,32ZM3060,34L3065,28L3068,32L3062,36L3060,34ZM3071,41L3071,46L3063,44L3063,42L3071,41ZM3037,41L3037,43L3029,45L3029,39L3037,41ZM3036,27L3040,33L3038,35L3032,30L3036,27Z" style="fill:rgb(133,77,75);"/>
                </g>
                <g id="color_03" transform="matrix(1,0,0,1,-1000,0)">
                    <path d="M3030,67L3070,67L3070,70C3070,70 3070,73 3066.96,73.041L3033.04,73.041C3030,73 3030,70 3030,70L3030,67Z" style="fill:rgb(165,153,105);"/>
                </g>
                <g id="color_021" serif:id="color_02" transform="matrix(1,0,0,1,-1000,0)">
                    <path d="M3030,68L3030,64C3030,61.206 3032.83,56.833 3035,55C3037.17,53.167 3038,52 3043,51C3044.96,50.608 3044,46 3043,45C3041,43 3037.82,39 3039,39C3044,39 3042,41 3045,41C3048,41 3048.33,36 3050,36C3051.67,36 3052,41 3055,41C3058,41 3056,39 3061,39C3062,39 3058.73,43.266 3057,45C3056,46 3055.33,50.667 3057,51C3062,52 3062.83,53.167 3065,55C3067.17,56.833 3070,61.206 3070,64L3070,68L3030,68Z" style="fill:rgb(192,179,125);"/>
                </g>
                <g id="color_011" serif:id="color_01" transform="matrix(1,0,0,1,-999,0)">
                    <path d="M3048,48.5L3048,50.5C3048,50.776 3047.78,51 3047.5,51L3046.5,51C3046.22,51 3046,50.776 3046,50.5L3046,48.5C3046,48.224 3046.22,48 3046.5,48L3047.5,48C3047.78,48 3048,48.224 3048,48.5ZM3052,48.5L3052,50.5C3052,50.776 3051.78,51 3051.5,51L3050.5,51C3050.22,51 3050,50.776 3050,50.5L3050,48.5C3050,48.224 3050.22,48 3050.5,48L3051.5,48C3051.78,48 3052,48.224 3052,48.5ZM3049,62L3053,68L3045,68L3049,62ZM3037.5,62L3041.5,68L3033.5,68L3037.5,62ZM3060.5,62L3064.5,68L3056.5,68L3060.5,62Z" style="fill:rgb(55,51,46);"/>
                </g>
            </g>
        </g>
    </g>
</svg>
