<?xml version="1.0" encoding="UTF-8" standalone="no"?>
<!DOCTYPE svg PUBLIC "-//W3C//DTD SVG 1.1//EN" "http://www.w3.org/Graphics/SVG/1.1/DTD/svg11.dtd">
<svg width="100%" height="100%" viewBox="0 0 100 100" version="1.1" xmlns="http://www.w3.org/2000/svg" xmlns:xlink="http://www.w3.org/1999/xlink" xml:space="preserve" xmlns:serif="http://www.serif.com/" style="fill-rule:evenodd;clip-rule:evenodd;stroke-linecap:square;stroke-linejoin:round;stroke-miterlimit:1.5;">
    <g transform="matrix(1,0,0,1,0,-800)">
        <g id="Palico" transform="matrix(1,0,0,1,-900,200)">
            <g id="shadow" transform="matrix(1,0,0,1,900,-200)">
                <path d="M22,855L12,855L12,848L15,848L15,852L22,852L22,845L37,830L63,830L78,845L78,852L85,852L85,848L88,848L88,855L78,855L78,862L88,862L88,869L85,869L85,865L78,865L78,872C78,874.208 76.208,876 74,876L26,876C23.792,876 22,874.208 22,872L22,865L15,865L15,869L12,869L12,862L22,862L22,855ZM34,829L22,841L22,817L34,829ZM66,829L78,817L78,841L66,829Z" style="fill:none;stroke:rgb(27,27,27);stroke-width:4px;"/>
                <path d="M22,855L12,855L12,848L15,848L15,852L22,852L22,845L37,830L63,830L78,845L78,852L85,852L85,848L88,848L88,855L78,855L78,862L88,862L88,869L85,869L85,865L78,865L78,872C78,874.208 76.208,876 74,876L26,876C23.792,876 22,874.208 22,872L22,865L15,865L15,869L12,869L12,862L22,862L22,855ZM34,829L22,841L22,817L34,829ZM66,829L78,817L78,841L66,829Z" style="fill:rgb(27,27,27);"/>
            </g>
            <g id="white" transform="matrix(1,0,0,1,900,-200)">
                <path d="M78,845L78,872C78,874.208 76.208,876 74,876L26,876C23.792,876 22,874.208 22,872L22,845L37,830L63,830L78,845Z" style="fill:white;"/>
            </g>
            <g id="grey--76--" serif:id="grey (76%)" transform="matrix(1,0,0,1,900,-200)">
                <path d="M34,829L22,841L22,817L34,829ZM66,829L78,817L78,841L66,829Z" style="fill:rgb(195,195,195);"/>
            </g>
            <g id="grey--67--" serif:id="grey (67%)" transform="matrix(1,0,0,1,900,-200)">
                <path d="M33,872L33,864C33,859 44,855 50,855C56,855 67,859 67,864L67,872L33,872Z" style="fill:rgb(170,170,170);"/>
            </g>
            <g id="grey--50--" serif:id="grey (50%)" transform="matrix(1,0,0,1,900,-200)">
                <path d="M15,865L15,869L12,869L12,862L26,862L26,865L15,865ZM15,852L26,852L26,855L12,855L12,848L15,848L15,852ZM85,865L74,865L74,862L88,862L88,869L85,869L85,865ZM85,852L85,848L88,848L88,855L74,855L74,852L85,852Z" style="fill:rgb(128,128,128);"/>
            </g>
            <g id="grey--17--" serif:id="grey (17%)" transform="matrix(1,0,0,1,900,-200)">
                <path d="M53,853L53,857C53,857.552 52.552,858 52,858L48,858C47.448,858 47,857.552 47,857L47,853C47,852.448 47.448,852 48,852L52,852C52.552,852 53,852.448 53,853ZM35,845C37.76,845 40,847.24 40,850C40,852.76 37.76,855 35,855C32.24,855 30,852.76 30,850C30,847.24 32.24,845 35,845ZM35,847.5C33.62,847.5 32.5,848.62 32.5,850C32.5,851.38 33.62,852.5 35,852.5C36.38,852.5 37.5,851.38 37.5,850C37.5,848.62 36.38,847.5 35,847.5ZM65,845C67.76,845 70,847.24 70,850C70,852.76 67.76,855 65,855C62.24,855 60,852.76 60,850C60,847.24 62.24,845 65,845ZM65,847.5C63.62,847.5 62.5,848.62 62.5,850C62.5,851.38 63.62,852.5 65,852.5C66.38,852.5 67.5,851.38 67.5,850C67.5,848.62 66.38,847.5 65,847.5ZM50,862C52,862 54,866 56,866C60,866 60,860 60,860C60,860 60,859 61.463,859C63,859 63,860 63,860C63,860 63,869 58,869C53,869 51,866 50,866C49,866 47,869 42,869C37,869 37,860 37,860C37,860 37,859 38.5,859C40,859 40,860 40,860C40,860 40,866 44,866C46,866 48,862 50,862Z" style="fill:rgb(43,43,43);"/>
            </g>
        </g>
    </g>
</svg>
