<?xml version="1.0" encoding="UTF-8" standalone="no"?>
<!DOCTYPE svg PUBLIC "-//W3C//DTD SVG 1.1//EN" "http://www.w3.org/Graphics/SVG/1.1/DTD/svg11.dtd">
<svg width="100%" height="100%" viewBox="0 0 100 100" version="1.1" xmlns="http://www.w3.org/2000/svg" xmlns:xlink="http://www.w3.org/1999/xlink" xml:space="preserve" xmlns:serif="http://www.serif.com/" style="fill-rule:evenodd;clip-rule:evenodd;stroke-linecap:square;stroke-linejoin:round;stroke-miterlimit:1.5;">
    <g transform="matrix(1,0,0,1,-100,-800)">
        <g id="Palico_Gadget" transform="matrix(1,0,0,1,-800,200)">
            <g id="shadow" transform="matrix(1,0,0,1,800,-200)">
                <path d="M161,832L159,822L167,812L175,812L177,814L169,822L169,829L176,829L185,820L187,822L187,830L179,840L169,838L139,868L141,878L133,888L125,888L123,886L131,878L131,871L124,871L115,880L113,878L113,870L121,860L131,862L161,832Z" style="fill:none;stroke:rgb(27,27,27);stroke-width:4px;"/>
                <path d="M161,832L159,822L167,812L175,812L177,814L169,822L169,829L176,829L185,820L187,822L187,830L179,840L169,838L139,868L141,878L133,888L125,888L123,886L131,878L131,871L124,871L115,880L113,878L113,870L121,860L131,862L161,832Z" style="fill:rgb(27,27,27);"/>
            </g>
            <g id="grey--50--" serif:id="grey (50%)" transform="matrix(1,0,0,1,800,-200)">
                <path d="M161,832L159,822L167,812L175,812L177,814L169,822L169,829L176,829L185,820L187,822L187,830L179,840L169,838L139,868L141,878L133,888L125,888L123,886L131,878L131,871L124,871L115,880L113,878L113,870L121,860L131,862L161,832Z" style="fill:rgb(128,128,128);"/>
            </g>
            <g id="shadow1" serif:id="shadow" transform="matrix(0.6,-0.6,3.66032,3.66032,-2371.96,-2462.76)">
                <path d="M181,888L166,888L168.557,871L176.95,871L181,888Z" style="fill:none;stroke:rgb(27,27,27);stroke-width:1.08px;"/>
                <path d="M181,888L166,888L168.557,871L176.95,871L181,888Z" style="fill:rgb(27,27,27);"/>
            </g>
            <g id="grey--76--" serif:id="grey (76%)" transform="matrix(0.6,-0.6,3.66032,3.66032,-2371.96,-2462.76)">
                <path d="M181,888L166,888L168.557,871L176.95,871L181,888Z" style="fill:rgb(195,195,195);"/>
            </g>
            <g id="shadow2" serif:id="shadow" transform="matrix(1,0,0,1,799.738,-200.238)">
                <path d="M112.262,838.218L125.697,827.611L136.303,814.176L149.324,827.197L135.889,837.803L125.282,851.238L112.262,838.218Z" style="fill:none;stroke:rgb(27,27,27);stroke-width:4px;"/>
                <path d="M112.262,838.218L125.697,827.611L136.303,814.176L149.324,827.197L135.889,837.803L125.282,851.238L112.262,838.218Z" style="fill:rgb(27,27,27);"/>
            </g>
            <g id="grey--33--" serif:id="grey (33%)" transform="matrix(1,0,0,1,799.738,-200.238)">
                <path d="M112.262,838.218L125.697,827.611L136.303,814.176L149.324,827.197L135.889,837.803L125.282,851.238L112.262,838.218Z" style="fill:rgb(85,85,85);"/>
            </g>
            <g id="shadow3" serif:id="shadow" transform="matrix(1,0,0,1,800,-200)">
                <path d="M161,885L139,883L134,864L152,855L167,863L163,875L150,878L145,867L153,864L156,869L151,870L152,873L158,872L159,865L152,860L142,865L145,878L161,885ZM130,843L139,843L142,851L139,858L133,857L127,853L130,843ZM144,840L152,835L160,840L158,848L152,852L146,848L144,840ZM163,846L171,844L177,850L174,856L168,858L163,854L163,846Z" style="fill:none;stroke:rgb(27,27,27);stroke-width:4px;"/>
                <path d="M161,885L139,883L134,864L152,855L167,863L163,875L150,878L145,867L153,864L156,869L151,870L152,873L158,872L159,865L152,860L142,865L145,878L161,885ZM130,843L139,843L142,851L139,858L133,857L127,853L130,843ZM144,840L152,835L160,840L158,848L152,852L146,848L144,840ZM163,846L171,844L177,850L174,856L168,858L163,854L163,846Z" style="fill:rgb(27,27,27);"/>
            </g>
            <g id="white" transform="matrix(1,0,0,1,800,-200)">
                <path d="M161,885L139,883L134,864L152,855L167,863L163,875L150,878L145,867L153,864L156,869L151,870L152,873L158,872L159,865L152,860L142,865L145,878L161,885ZM130,843L139,843L142,851L139,858L133,857L127,853L130,843ZM144,840L152,835L160,840L158,848L152,852L146,848L144,840ZM163,846L171,844L177,850L174,856L168,858L163,854L163,846Z" style="fill:white;"/>
            </g>
        </g>
    </g>
</svg>
