<?xml version="1.0" encoding="UTF-8" standalone="no"?><!DOCTYPE svg PUBLIC "-//W3C//DTD SVG 1.1//EN" "http://www.w3.org/Graphics/SVG/1.1/DTD/svg11.dtd"><svg width="100%" height="100%" viewBox="0 0 417 417" version="1.1" xmlns="http://www.w3.org/2000/svg" xmlns:xlink="http://www.w3.org/1999/xlink" xml:space="preserve" xmlns:serif="http://www.serif.com/" style="fill-rule:evenodd;clip-rule:evenodd;stroke-linecap:square;stroke-linejoin:round;stroke-miterlimit:1.5;"><g id="Talisman-" serif:id="Talisman "><g id="shadow"><path d="M170.833,333.333l33.334,33.334l-66.667,-0l33.333,-33.334Zm-66.666,33.334l-50,-50l50,-0l-0,50Zm133.333,-0l0,-50l50,-0l-50,50Zm-0.13,-132.926c-2.235,39.267 -33.06,70.426 -70.703,70.426c-37.644,-0 -68.468,-31.159 -70.704,-70.426l29.037,-25.408l41.667,37.5l41.666,-37.5l29.037,25.408Zm-101.953,7.926c-8.049,-0 -14.584,6.534 -14.584,14.583c0,8.049 6.535,14.583 14.584,14.583c8.048,0 14.583,-6.534 14.583,-14.583c0,-8.049 -6.535,-14.583 -14.583,-14.583Zm227.083,-29.167l0,8.333c0,2.3 -1.867,4.167 -4.167,4.167l-8.333,-0c-2.3,-0 -4.167,-1.867 -4.167,-4.167l0,-8.333c0,-2.3 1.867,-4.167 4.167,-4.167l8.333,0c2.3,0 4.167,1.867 4.167,4.167Zm-29.167,-0l0,8.333c0,2.3 -1.867,4.167 -4.166,4.167l-8.334,-0c-2.299,-0 -4.166,-1.867 -4.166,-4.167l-0,-8.333c-0,-2.3 1.867,-4.167 4.166,-4.167l8.334,0c2.299,0 4.166,1.867 4.166,4.167Zm-29.166,-0l-0,8.333c-0,2.3 -1.867,4.167 -4.167,4.167l-8.333,-0c-2.3,-0 -4.167,-1.867 -4.167,-4.167l0,-8.333c0,-2.3 1.867,-4.167 4.167,-4.167l8.333,0c2.3,0 4.167,1.867 4.167,4.167Zm58.333,-25l0,8.333c0,2.3 -1.867,4.167 -4.167,4.167l-8.333,-0c-2.3,-0 -4.167,-1.867 -4.167,-4.167l0,-8.333c0,-2.3 1.867,-4.167 4.167,-4.167l8.333,0c2.3,0 4.167,1.867 4.167,4.167Zm-58.333,-0l-0,8.333c-0,2.3 -1.867,4.167 -4.167,4.167l-8.333,-0c-2.3,-0 -4.167,-1.867 -4.167,-4.167l0,-8.333c0,-2.3 1.867,-4.167 4.167,-4.167l8.333,0c2.3,0 4.167,1.867 4.167,4.167Zm58.333,-25l0,8.333c0,2.3 -1.867,4.167 -4.167,4.167l-8.333,-0c-2.3,-0 -4.167,-1.867 -4.167,-4.167l0,-8.333c0,-2.3 1.867,-4.167 4.167,-4.167l8.333,0c2.3,0 4.167,1.867 4.167,4.167Zm-58.333,-0l-0,8.333c-0,2.3 -1.867,4.167 -4.167,4.167l-8.333,-0c-2.3,-0 -4.167,-1.867 -4.167,-4.167l0,-8.333c0,-2.3 1.867,-4.167 4.167,-4.167l8.333,0c2.3,0 4.167,1.867 4.167,4.167Zm58.333,-25l0,8.333c0,2.3 -1.867,4.167 -4.167,4.167l-8.333,-0c-2.3,-0 -4.167,-1.867 -4.167,-4.167l0,-8.333c0,-2.3 1.867,-4.167 4.167,-4.167l8.333,0c2.3,0 4.167,1.867 4.167,4.167Zm-58.333,-0l-0,8.333c-0,2.3 -1.867,4.167 -4.167,4.167l-8.333,-0c-2.3,-0 -4.167,-1.867 -4.167,-4.167l0,-8.333c0,-2.3 1.867,-4.167 4.167,-4.167l8.333,0c2.3,0 4.167,1.867 4.167,4.167Zm58.333,-29.167l0,8.334c0,2.299 -1.867,4.166 -4.167,4.166l-8.333,0c-2.3,0 -4.167,-1.867 -4.167,-4.166l0,-8.334c0,-2.299 1.867,-4.166 4.167,-4.166l8.333,-0c2.3,-0 4.167,1.867 4.167,4.166Zm0,-25l0,8.334c0,2.299 -1.867,4.166 -4.167,4.166l-8.333,0c-2.3,0 -4.167,-1.867 -4.167,-4.166l0,-8.334c0,-2.299 1.867,-4.166 4.167,-4.166l8.333,-0c2.3,-0 4.167,1.867 4.167,4.166Zm-58.333,25l-0,8.334c-0,2.299 -1.867,4.166 -4.167,4.166l-8.333,0c-2.3,0 -4.167,-1.867 -4.167,-4.166l0,-8.334c0,-2.299 1.867,-4.166 4.167,-4.166l8.333,-0c2.3,-0 4.167,1.867 4.167,4.166Zm-16.667,-16.666l0,8.333c0,2.3 -1.867,4.167 -4.167,4.167l-8.333,-0c-2.3,-0 -4.167,-1.867 -4.167,-4.167l0,-8.333c0,-2.3 1.867,-4.167 4.167,-4.167l8.333,-0c2.3,-0 4.167,1.867 4.167,4.167Zm-29.167,-0l0,8.333c0,2.3 -1.867,4.167 -4.166,4.167l-8.334,-0c-2.299,-0 -4.166,-1.867 -4.166,-4.167l-0,-8.333c-0,-2.3 1.867,-4.167 4.166,-4.167l8.334,-0c2.299,-0 4.166,1.867 4.166,4.167Zm-29.166,-0l-0,8.333c-0,2.3 -1.867,4.167 -4.167,4.167l-8.333,-0c-2.3,-0 -4.167,-1.867 -4.167,-4.167l0,-8.333c0,-2.3 1.867,-4.167 4.167,-4.167l8.333,-0c2.3,-0 4.167,1.867 4.167,4.167Zm-29.167,-0l0,8.333c0,2.3 -1.867,4.167 -4.167,4.167l-8.333,-0c-2.3,-0 -4.167,-1.867 -4.167,-4.167l0,-8.333c0,-2.3 1.867,-4.167 4.167,-4.167l8.333,-0c2.3,-0 4.167,1.867 4.167,4.167Zm-25,16.666l0,8.334c0,2.299 -1.867,4.166 -4.167,4.166l-8.333,0c-2.3,0 -4.167,-1.867 -4.167,-4.166l0,-8.334c0,-2.299 1.867,-4.166 4.167,-4.166l8.333,-0c2.3,-0 4.167,1.867 4.167,4.166Zm0,-37.5l0,8.334c0,2.299 -1.867,4.166 -4.167,4.166l-8.333,0c-2.3,0 -4.167,-1.867 -4.167,-4.166l0,-8.334c0,-2.299 1.867,-4.166 4.167,-4.166l8.333,-0c2.3,-0 4.167,1.867 4.167,4.166Zm16.667,-16.666l-0,8.333c-0,2.3 -1.867,4.167 -4.167,4.167l-8.333,-0c-2.3,-0 -4.167,-1.867 -4.167,-4.167l0,-8.333c0,-2.3 1.867,-4.167 4.167,-4.167l8.333,-0c2.3,-0 4.167,1.867 4.167,4.167Zm29.166,-0l0,8.333c0,2.3 -1.867,4.167 -4.166,4.167l-8.334,-0c-2.299,-0 -4.166,-1.867 -4.166,-4.167l-0,-8.333c-0,-2.3 1.867,-4.167 4.166,-4.167l8.334,-0c2.299,-0 4.166,1.867 4.166,4.167Zm29.167,-0l0,8.333c0,2.3 -1.867,4.167 -4.167,4.167l-8.333,-0c-2.3,-0 -4.167,-1.867 -4.167,-4.167l0,-8.333c0,-2.3 1.867,-4.167 4.167,-4.167l8.333,-0c2.3,-0 4.167,1.867 4.167,4.167Zm29.167,-0l-0,8.333c-0,2.3 -1.867,4.167 -4.167,4.167l-8.333,-0c-2.3,-0 -4.167,-1.867 -4.167,-4.167l0,-8.333c0,-2.3 1.867,-4.167 4.167,-4.167l8.333,-0c2.3,-0 4.167,1.867 4.167,4.167Zm33.333,-0l0,8.333c0,2.3 -1.867,4.167 -4.167,4.167l-8.333,-0c-2.3,-0 -4.167,-1.867 -4.167,-4.167l0,-8.333c0,-2.3 1.867,-4.167 4.167,-4.167l8.333,-0c2.3,-0 4.167,1.867 4.167,4.167Zm29.167,-0l-0,8.333c-0,2.3 -1.867,4.167 -4.167,4.167l-8.333,-0c-2.3,-0 -4.167,-1.867 -4.167,-4.167l0,-8.333c0,-2.3 1.867,-4.167 4.167,-4.167l8.333,-0c2.3,-0 4.167,1.867 4.167,4.167Zm-244.789,162.106c2.992,-18.253 12.226,-34.253 25.285,-45.44l89.008,0c13.059,11.187 22.292,27.187 25.284,45.44l-28.122,-24.606l-41.666,37.5l-41.667,-37.5l-28.122,24.606Zm44.789,-57.94l-0,-25c-0,-4.166 4.166,-4.166 4.166,-4.166l41.667,-0c0,-0 4.167,-0 4.167,4.166l-0,25c-0,0 -0,4.167 -4.167,4.167l-8.333,-0c-0,-0 -4.167,-0 -4.014,-4.251l0,-8.249l-16.82,-0l0,8.333c0,0 0,4.167 -4.166,4.167l-8.334,-0c0,-0 -4.166,-0 -4.166,-4.167Z" style="fill:none;stroke:#1b1b1b;stroke-width:16.67px;"/><path d="M170.833,333.333l33.334,33.334l-66.667,-0l33.333,-33.334Zm-66.666,33.334l-50,-50l50,-0l-0,50Zm133.333,-0l0,-50l50,-0l-50,50Zm-0.13,-132.926c-2.235,39.267 -33.06,70.426 -70.703,70.426c-37.644,-0 -68.468,-31.159 -70.704,-70.426l29.037,-25.408l41.667,37.5l41.666,-37.5l29.037,25.408Zm-101.953,7.926c-8.049,-0 -14.584,6.534 -14.584,14.583c0,8.049 6.535,14.583 14.584,14.583c8.048,0 14.583,-6.534 14.583,-14.583c0,-8.049 -6.535,-14.583 -14.583,-14.583Zm227.083,-29.167l0,8.333c0,2.3 -1.867,4.167 -4.167,4.167l-8.333,-0c-2.3,-0 -4.167,-1.867 -4.167,-4.167l0,-8.333c0,-2.3 1.867,-4.167 4.167,-4.167l8.333,0c2.3,0 4.167,1.867 4.167,4.167Zm-29.167,-0l0,8.333c0,2.3 -1.867,4.167 -4.166,4.167l-8.334,-0c-2.299,-0 -4.166,-1.867 -4.166,-4.167l-0,-8.333c-0,-2.3 1.867,-4.167 4.166,-4.167l8.334,0c2.299,0 4.166,1.867 4.166,4.167Zm-29.166,-0l-0,8.333c-0,2.3 -1.867,4.167 -4.167,4.167l-8.333,-0c-2.3,-0 -4.167,-1.867 -4.167,-4.167l0,-8.333c0,-2.3 1.867,-4.167 4.167,-4.167l8.333,0c2.3,0 4.167,1.867 4.167,4.167Zm58.333,-25l0,8.333c0,2.3 -1.867,4.167 -4.167,4.167l-8.333,-0c-2.3,-0 -4.167,-1.867 -4.167,-4.167l0,-8.333c0,-2.3 1.867,-4.167 4.167,-4.167l8.333,0c2.3,0 4.167,1.867 4.167,4.167Zm-58.333,-0l-0,8.333c-0,2.3 -1.867,4.167 -4.167,4.167l-8.333,-0c-2.3,-0 -4.167,-1.867 -4.167,-4.167l0,-8.333c0,-2.3 1.867,-4.167 4.167,-4.167l8.333,0c2.3,0 4.167,1.867 4.167,4.167Zm58.333,-25l0,8.333c0,2.3 -1.867,4.167 -4.167,4.167l-8.333,-0c-2.3,-0 -4.167,-1.867 -4.167,-4.167l0,-8.333c0,-2.3 1.867,-4.167 4.167,-4.167l8.333,0c2.3,0 4.167,1.867 4.167,4.167Zm-58.333,-0l-0,8.333c-0,2.3 -1.867,4.167 -4.167,4.167l-8.333,-0c-2.3,-0 -4.167,-1.867 -4.167,-4.167l0,-8.333c0,-2.3 1.867,-4.167 4.167,-4.167l8.333,0c2.3,0 4.167,1.867 4.167,4.167Zm58.333,-25l0,8.333c0,2.3 -1.867,4.167 -4.167,4.167l-8.333,-0c-2.3,-0 -4.167,-1.867 -4.167,-4.167l0,-8.333c0,-2.3 1.867,-4.167 4.167,-4.167l8.333,0c2.3,0 4.167,1.867 4.167,4.167Zm-58.333,-0l-0,8.333c-0,2.3 -1.867,4.167 -4.167,4.167l-8.333,-0c-2.3,-0 -4.167,-1.867 -4.167,-4.167l0,-8.333c0,-2.3 1.867,-4.167 4.167,-4.167l8.333,0c2.3,0 4.167,1.867 4.167,4.167Zm58.333,-29.167l0,8.334c0,2.299 -1.867,4.166 -4.167,4.166l-8.333,0c-2.3,0 -4.167,-1.867 -4.167,-4.166l0,-8.334c0,-2.299 1.867,-4.166 4.167,-4.166l8.333,-0c2.3,-0 4.167,1.867 4.167,4.166Zm0,-25l0,8.334c0,2.299 -1.867,4.166 -4.167,4.166l-8.333,0c-2.3,0 -4.167,-1.867 -4.167,-4.166l0,-8.334c0,-2.299 1.867,-4.166 4.167,-4.166l8.333,-0c2.3,-0 4.167,1.867 4.167,4.166Zm-58.333,25l-0,8.334c-0,2.299 -1.867,4.166 -4.167,4.166l-8.333,0c-2.3,0 -4.167,-1.867 -4.167,-4.166l0,-8.334c0,-2.299 1.867,-4.166 4.167,-4.166l8.333,-0c2.3,-0 4.167,1.867 4.167,4.166Zm-16.667,-16.666l0,8.333c0,2.3 -1.867,4.167 -4.167,4.167l-8.333,-0c-2.3,-0 -4.167,-1.867 -4.167,-4.167l0,-8.333c0,-2.3 1.867,-4.167 4.167,-4.167l8.333,-0c2.3,-0 4.167,1.867 4.167,4.167Zm-29.167,-0l0,8.333c0,2.3 -1.867,4.167 -4.166,4.167l-8.334,-0c-2.299,-0 -4.166,-1.867 -4.166,-4.167l-0,-8.333c-0,-2.3 1.867,-4.167 4.166,-4.167l8.334,-0c2.299,-0 4.166,1.867 4.166,4.167Zm-29.166,-0l-0,8.333c-0,2.3 -1.867,4.167 -4.167,4.167l-8.333,-0c-2.3,-0 -4.167,-1.867 -4.167,-4.167l0,-8.333c0,-2.3 1.867,-4.167 4.167,-4.167l8.333,-0c2.3,-0 4.167,1.867 4.167,4.167Zm-29.167,-0l0,8.333c0,2.3 -1.867,4.167 -4.167,4.167l-8.333,-0c-2.3,-0 -4.167,-1.867 -4.167,-4.167l0,-8.333c0,-2.3 1.867,-4.167 4.167,-4.167l8.333,-0c2.3,-0 4.167,1.867 4.167,4.167Zm-25,16.666l0,8.334c0,2.299 -1.867,4.166 -4.167,4.166l-8.333,0c-2.3,0 -4.167,-1.867 -4.167,-4.166l0,-8.334c0,-2.299 1.867,-4.166 4.167,-4.166l8.333,-0c2.3,-0 4.167,1.867 4.167,4.166Zm0,-37.5l0,8.334c0,2.299 -1.867,4.166 -4.167,4.166l-8.333,0c-2.3,0 -4.167,-1.867 -4.167,-4.166l0,-8.334c0,-2.299 1.867,-4.166 4.167,-4.166l8.333,-0c2.3,-0 4.167,1.867 4.167,4.166Zm16.667,-16.666l-0,8.333c-0,2.3 -1.867,4.167 -4.167,4.167l-8.333,-0c-2.3,-0 -4.167,-1.867 -4.167,-4.167l0,-8.333c0,-2.3 1.867,-4.167 4.167,-4.167l8.333,-0c2.3,-0 4.167,1.867 4.167,4.167Zm29.166,-0l0,8.333c0,2.3 -1.867,4.167 -4.166,4.167l-8.334,-0c-2.299,-0 -4.166,-1.867 -4.166,-4.167l-0,-8.333c-0,-2.3 1.867,-4.167 4.166,-4.167l8.334,-0c2.299,-0 4.166,1.867 4.166,4.167Zm29.167,-0l0,8.333c0,2.3 -1.867,4.167 -4.167,4.167l-8.333,-0c-2.3,-0 -4.167,-1.867 -4.167,-4.167l0,-8.333c0,-2.3 1.867,-4.167 4.167,-4.167l8.333,-0c2.3,-0 4.167,1.867 4.167,4.167Zm29.167,-0l-0,8.333c-0,2.3 -1.867,4.167 -4.167,4.167l-8.333,-0c-2.3,-0 -4.167,-1.867 -4.167,-4.167l0,-8.333c0,-2.3 1.867,-4.167 4.167,-4.167l8.333,-0c2.3,-0 4.167,1.867 4.167,4.167Zm33.333,-0l0,8.333c0,2.3 -1.867,4.167 -4.167,4.167l-8.333,-0c-2.3,-0 -4.167,-1.867 -4.167,-4.167l0,-8.333c0,-2.3 1.867,-4.167 4.167,-4.167l8.333,-0c2.3,-0 4.167,1.867 4.167,4.167Zm29.167,-0l-0,8.333c-0,2.3 -1.867,4.167 -4.167,4.167l-8.333,-0c-2.3,-0 -4.167,-1.867 -4.167,-4.167l0,-8.333c0,-2.3 1.867,-4.167 4.167,-4.167l8.333,-0c2.3,-0 4.167,1.867 4.167,4.167Zm-244.789,162.106c2.992,-18.253 12.226,-34.253 25.285,-45.44l89.008,0c13.059,11.187 22.292,27.187 25.284,45.44l-28.122,-24.606l-41.666,37.5l-41.667,-37.5l-28.122,24.606Zm44.789,-57.94l-0,-25c-0,-4.166 4.166,-4.166 4.166,-4.166l41.667,-0c0,-0 4.167,-0 4.167,4.166l-0,25c-0,0 -0,4.167 -4.167,4.167l-8.333,-0c-0,-0 -4.167,-0 -4.014,-4.251l0,-8.249l-16.82,-0l0,8.333c0,0 0,4.167 -4.166,4.167l-8.334,-0c0,-0 -4.166,-0 -4.166,-4.167Z" style="fill:#1b1b1b;"/></g><g id="white"><g><path d="M170.833,333.333l33.334,33.334l-66.667,-0l33.333,-33.334Z" style="fill:#fff;"/><path d="M104.167,366.667l-50,-50l50,-0l-0,50Z" style="fill:#fff;"/><path d="M237.5,366.667l50,-50l-50,-0l-0,50Z" style="fill:#fff;"/></g><clipPath id="_clip1"><path d="M241.667,237.5l-0.232,70.833l-149.537,0l-0.231,-70.833l33.333,-29.167l41.667,37.5l41.666,-37.5l33.334,29.167Zm-106.25,4.167c-8.049,-0 -14.584,6.534 -14.584,14.583c0,8.049 6.535,14.583 14.584,14.583c8.048,0 14.583,-6.534 14.583,-14.583c0,-8.049 -6.535,-14.583 -14.583,-14.583Z"/></clipPath><g clip-path="url(#_clip1)"><ellipse cx="166.667" cy="229.167" rx="70.833" ry="75" style="fill:#fff;"/></g></g><g id="grey--76--" serif:id="grey (76%)"><g><path d="M362.5,212.5l0,8.333c0,2.3 -1.867,4.167 -4.167,4.167l-8.333,0c-2.3,0 -4.167,-1.867 -4.167,-4.167l0,-8.333c0,-2.3 1.867,-4.167 4.167,-4.167l8.333,0c2.3,0 4.167,1.867 4.167,4.167Z" style="fill:#c3c3c3;"/><path d="M333.333,212.5l0,8.333c0,2.3 -1.867,4.167 -4.166,4.167l-8.334,0c-2.299,0 -4.166,-1.867 -4.166,-4.167l-0,-8.333c-0,-2.3 1.867,-4.167 4.166,-4.167l8.334,0c2.299,0 4.166,1.867 4.166,4.167Z" style="fill:#c3c3c3;"/><path d="M304.167,212.5l-0,8.333c-0,2.3 -1.867,4.167 -4.167,4.167l-8.333,0c-2.3,0 -4.167,-1.867 -4.167,-4.167l0,-8.333c0,-2.3 1.867,-4.167 4.167,-4.167l8.333,0c2.3,0 4.167,1.867 4.167,4.167Z" style="fill:#c3c3c3;"/><path d="M362.5,187.5l0,8.333c0,2.3 -1.867,4.167 -4.167,4.167l-8.333,0c-2.3,0 -4.167,-1.867 -4.167,-4.167l0,-8.333c0,-2.3 1.867,-4.167 4.167,-4.167l8.333,0c2.3,0 4.167,1.867 4.167,4.167Z" style="fill:#c3c3c3;"/><path d="M304.167,187.5l-0,8.333c-0,2.3 -1.867,4.167 -4.167,4.167l-8.333,0c-2.3,0 -4.167,-1.867 -4.167,-4.167l0,-8.333c0,-2.3 1.867,-4.167 4.167,-4.167l8.333,0c2.3,0 4.167,1.867 4.167,4.167Z" style="fill:#c3c3c3;"/><path d="M362.5,162.5l0,8.333c0,2.3 -1.867,4.167 -4.167,4.167l-8.333,0c-2.3,0 -4.167,-1.867 -4.167,-4.167l0,-8.333c0,-2.3 1.867,-4.167 4.167,-4.167l8.333,0c2.3,0 4.167,1.867 4.167,4.167Z" style="fill:#c3c3c3;"/><path d="M304.167,162.5l-0,8.333c-0,2.3 -1.867,4.167 -4.167,4.167l-8.333,0c-2.3,0 -4.167,-1.867 -4.167,-4.167l0,-8.333c0,-2.3 1.867,-4.167 4.167,-4.167l8.333,0c2.3,0 4.167,1.867 4.167,4.167Z" style="fill:#c3c3c3;"/><path d="M362.5,137.5l0,8.333c0,2.3 -1.867,4.167 -4.167,4.167l-8.333,0c-2.3,0 -4.167,-1.867 -4.167,-4.167l0,-8.333c0,-2.3 1.867,-4.167 4.167,-4.167l8.333,0c2.3,0 4.167,1.867 4.167,4.167Z" style="fill:#c3c3c3;"/><path d="M304.167,137.5l-0,8.333c-0,2.3 -1.867,4.167 -4.167,4.167l-8.333,0c-2.3,0 -4.167,-1.867 -4.167,-4.167l0,-8.333c0,-2.3 1.867,-4.167 4.167,-4.167l8.333,0c2.3,0 4.167,1.867 4.167,4.167Z" style="fill:#c3c3c3;"/><path d="M362.5,108.333l0,8.334c0,2.299 -1.867,4.166 -4.167,4.166l-8.333,0c-2.3,0 -4.167,-1.867 -4.167,-4.166l0,-8.334c0,-2.299 1.867,-4.166 4.167,-4.166l8.333,-0c2.3,-0 4.167,1.867 4.167,4.166Z" style="fill:#c3c3c3;"/><path d="M362.5,83.333l0,8.334c0,2.299 -1.867,4.166 -4.167,4.166l-8.333,0c-2.3,0 -4.167,-1.867 -4.167,-4.166l0,-8.334c0,-2.299 1.867,-4.166 4.167,-4.166l8.333,-0c2.3,-0 4.167,1.867 4.167,4.166Z" style="fill:#c3c3c3;"/><path d="M304.167,108.333l-0,8.334c-0,2.299 -1.867,4.166 -4.167,4.166l-8.333,0c-2.3,0 -4.167,-1.867 -4.167,-4.166l0,-8.334c0,-2.299 1.867,-4.166 4.167,-4.166l8.333,-0c2.3,-0 4.167,1.867 4.167,4.166Z" style="fill:#c3c3c3;"/><path d="M287.5,91.667l0,8.333c0,2.3 -1.867,4.167 -4.167,4.167l-8.333,-0c-2.3,-0 -4.167,-1.867 -4.167,-4.167l0,-8.333c0,-2.3 1.867,-4.167 4.167,-4.167l8.333,0c2.3,0 4.167,1.867 4.167,4.167Z" style="fill:#c3c3c3;"/><path d="M258.333,91.667l0,8.333c0,2.3 -1.867,4.167 -4.166,4.167l-8.334,-0c-2.299,-0 -4.166,-1.867 -4.166,-4.167l-0,-8.333c-0,-2.3 1.867,-4.167 4.166,-4.167l8.334,0c2.299,0 4.166,1.867 4.166,4.167Z" style="fill:#c3c3c3;"/><path d="M229.167,91.667l-0,8.333c-0,2.3 -1.867,4.167 -4.167,4.167l-8.333,-0c-2.3,-0 -4.167,-1.867 -4.167,-4.167l0,-8.333c0,-2.3 1.867,-4.167 4.167,-4.167l8.333,0c2.3,0 4.167,1.867 4.167,4.167Z" style="fill:#c3c3c3;"/><path d="M200,91.667l0,8.333c0,2.3 -1.867,4.167 -4.167,4.167l-8.333,-0c-2.3,-0 -4.167,-1.867 -4.167,-4.167l0,-8.333c0,-2.3 1.867,-4.167 4.167,-4.167l8.333,0c2.3,0 4.167,1.867 4.167,4.167Z" style="fill:#c3c3c3;"/><path d="M175,108.333l0,8.334c0,2.299 -1.867,4.166 -4.167,4.166l-8.333,0c-2.3,0 -4.167,-1.867 -4.167,-4.166l0,-8.334c0,-2.299 1.867,-4.166 4.167,-4.166l8.333,-0c2.3,-0 4.167,1.867 4.167,4.166Z" style="fill:#c3c3c3;"/><path d="M175,70.833l0,8.334c0,2.299 -1.867,4.166 -4.167,4.166l-8.333,0c-2.3,0 -4.167,-1.867 -4.167,-4.166l0,-8.334c0,-2.299 1.867,-4.166 4.167,-4.166l8.333,-0c2.3,-0 4.167,1.867 4.167,4.166Z" style="fill:#c3c3c3;"/><path d="M191.667,54.167l-0,8.333c-0,2.3 -1.867,4.167 -4.167,4.167l-8.333,-0c-2.3,-0 -4.167,-1.867 -4.167,-4.167l0,-8.333c0,-2.3 1.867,-4.167 4.167,-4.167l8.333,0c2.3,0 4.167,1.867 4.167,4.167Z" style="fill:#c3c3c3;"/><path d="M220.833,54.167l0,8.333c0,2.3 -1.867,4.167 -4.166,4.167l-8.334,-0c-2.299,-0 -4.166,-1.867 -4.166,-4.167l-0,-8.333c-0,-2.3 1.867,-4.167 4.166,-4.167l8.334,0c2.299,0 4.166,1.867 4.166,4.167Z" style="fill:#c3c3c3;"/><path d="M250,54.167l0,8.333c0,2.3 -1.867,4.167 -4.167,4.167l-8.333,-0c-2.3,-0 -4.167,-1.867 -4.167,-4.167l0,-8.333c0,-2.3 1.867,-4.167 4.167,-4.167l8.333,0c2.3,0 4.167,1.867 4.167,4.167Z" style="fill:#c3c3c3;"/><path d="M279.167,54.167l-0,8.333c-0,2.3 -1.867,4.167 -4.167,4.167l-8.333,-0c-2.3,-0 -4.167,-1.867 -4.167,-4.167l0,-8.333c0,-2.3 1.867,-4.167 4.167,-4.167l8.333,0c2.3,0 4.167,1.867 4.167,4.167Z" style="fill:#c3c3c3;"/><path d="M312.5,54.167l0,8.333c0,2.3 -1.867,4.167 -4.167,4.167l-8.333,-0c-2.3,-0 -4.167,-1.867 -4.167,-4.167l0,-8.333c0,-2.3 1.867,-4.167 4.167,-4.167l8.333,0c2.3,0 4.167,1.867 4.167,4.167Z" style="fill:#c3c3c3;"/><path d="M341.667,54.167l-0,8.333c-0,2.3 -1.867,4.167 -4.167,4.167l-8.333,-0c-2.3,-0 -4.167,-1.867 -4.167,-4.167l0,-8.333c0,-2.3 1.867,-4.167 4.167,-4.167l8.333,0c2.3,0 4.167,1.867 4.167,4.167Z" style="fill:#c3c3c3;"/></g><clipPath id="_clip2"><path d="M91.667,220.833l0.231,-50l149.537,0l0.232,50l-33.334,-29.166l-41.666,37.5l-41.667,-37.5l-33.333,29.166Z"/></clipPath><g clip-path="url(#_clip2)"><ellipse cx="166.667" cy="229.167" rx="70.833" ry="75" style="fill:#c3c3c3;"/></g><path d="M141.667,158.333l-0,-25c-0,-4.166 4.166,-4.166 4.166,-4.166l41.667,-0c0,-0 4.167,-0 4.167,4.166l-0,25c-0,0 -0,4.167 -4.167,4.167l-8.333,0c-0,0 -4.167,0 -4.014,-4.251l0,-8.249l-16.82,0l0,8.333c0,0 0,4.167 -4.166,4.167l-8.334,0c0,0 -4.166,0 -4.166,-4.167Z" style="fill:#c3c3c3;"/></g></g></svg>